<svg width="60" height="58" viewBox="0 0 60 58" fill="none" xmlns="http://www.w3.org/2000/svg">
<mask id="path-1-outside-1_1_9401" maskUnits="userSpaceOnUse" x="0" y="0" width="60" height="58" fill="black">
<rect fill="white" width="60" height="58"/>
<path d="M16.2188 14.8594H10.4062L10.375 11.8281H15.3594C16.2135 11.8281 16.9271 11.7083 17.5 11.4688C18.0729 11.2292 18.5052 10.8802 18.7969 10.4219C19.099 9.96354 19.25 9.40625 19.25 8.75C19.25 8.02083 19.1094 7.42708 18.8281 6.96875C18.5573 6.51042 18.1302 6.17708 17.5469 5.96875C16.9635 5.75 16.224 5.64062 15.3281 5.64062H11.7969V25H7.5V2.25H15.3281C16.6198 2.25 17.7708 2.375 18.7812 2.625C19.8021 2.86458 20.6667 3.23958 21.375 3.75C22.0833 4.26042 22.6198 4.90104 22.9844 5.67188C23.3594 6.44271 23.5469 7.35938 23.5469 8.42188C23.5469 9.35938 23.3281 10.224 22.8906 11.0156C22.4635 11.7969 21.8021 12.4323 20.9062 12.9219C20.0208 13.4115 18.8958 13.6927 17.5312 13.7656L16.2188 14.8594ZM16.0312 25H9.14062L10.9375 21.625H16.0312C16.8854 21.625 17.5885 21.4844 18.1406 21.2031C18.7031 20.9219 19.1198 20.5365 19.3906 20.0469C19.6719 19.5469 19.8125 18.974 19.8125 18.3281C19.8125 17.6198 19.6875 17.0052 19.4375 16.4844C19.1979 15.9635 18.8125 15.5625 18.2812 15.2812C17.7604 15 17.0729 14.8594 16.2188 14.8594H11.75L11.7812 11.8281H17.4688L18.4531 13C19.7656 13.0104 20.8333 13.2708 21.6562 13.7812C22.4896 14.2917 23.1042 14.9479 23.5 15.75C23.8958 16.5521 24.0938 17.4167 24.0938 18.3438C24.0938 19.8021 23.776 21.026 23.1406 22.0156C22.5156 23.0052 21.599 23.75 20.3906 24.25C19.1927 24.75 17.7396 25 16.0312 25ZM32.3906 2.25V25H28.0938V2.25H32.3906ZM54.7812 13.2344V22.0938C54.4479 22.5208 53.9219 22.9844 53.2031 23.4844C52.4948 23.9844 51.5677 24.4167 50.4219 24.7812C49.276 25.1354 47.8698 25.3125 46.2031 25.3125C44.7552 25.3125 43.4323 25.0729 42.2344 24.5938C41.0365 24.1042 40.0052 23.3906 39.1406 22.4531C38.276 21.5156 37.6094 20.3698 37.1406 19.0156C36.6719 17.6615 36.4375 16.1146 36.4375 14.375V12.875C36.4375 11.1354 36.6562 9.58854 37.0938 8.23438C37.5417 6.88021 38.1771 5.73438 39 4.79688C39.8333 3.85938 40.8281 3.14583 41.9844 2.65625C43.151 2.16667 44.4531 1.92188 45.8906 1.92188C47.8177 1.92188 49.401 2.23958 50.6406 2.875C51.8906 3.51042 52.849 4.38542 53.5156 5.5C54.1823 6.60417 54.599 7.875 54.7656 9.3125H50.5781C50.4635 8.52083 50.2344 7.82812 49.8906 7.23438C49.5469 6.63021 49.0573 6.16146 48.4219 5.82812C47.7969 5.48438 46.9844 5.3125 45.9844 5.3125C45.1406 5.3125 44.3958 5.47917 43.75 5.8125C43.1042 6.14583 42.5625 6.63021 42.125 7.26562C41.6875 7.90104 41.3542 8.6875 41.125 9.625C40.9062 10.5625 40.7969 11.6354 40.7969 12.8438V14.375C40.7969 15.5938 40.9219 16.6771 41.1719 17.625C41.4219 18.5625 41.7812 19.3542 42.25 20C42.7292 20.6354 43.3177 21.1198 44.0156 21.4531C44.724 21.776 45.526 21.9375 46.4219 21.9375C47.2344 21.9375 47.9062 21.8698 48.4375 21.7344C48.9792 21.5885 49.4115 21.4167 49.7344 21.2188C50.0573 21.0208 50.3073 20.8281 50.4844 20.6406V16.375H45.9688V13.2344H54.7812ZM8.78125 52.6406L13.3125 34.25H15.7656L15.9219 38.125L11.0781 57H8.48438L8.78125 52.6406ZM5.92188 34.25L9.64062 52.5781V57H6.8125L1.65625 34.25H5.92188ZM20.625 52.5L24.2812 34.25H28.5625L23.4062 57H20.5781L20.625 52.5ZM16.9375 34.25L21.4688 52.7031L21.7344 57H19.1406L14.3125 38.1094L14.5 34.25H16.9375ZM35.8594 34.25V57H31.5625V34.25H35.8594ZM58.7812 34.25V57H54.4688L44.7969 41.2188V57H40.5V34.25H44.7969L54.5 50.0469V34.25H58.7812Z"/>
</mask>
<path d="M16.2188 14.8594H10.4062L10.375 11.8281H15.3594C16.2135 11.8281 16.9271 11.7083 17.5 11.4688C18.0729 11.2292 18.5052 10.8802 18.7969 10.4219C19.099 9.96354 19.25 9.40625 19.25 8.75C19.25 8.02083 19.1094 7.42708 18.8281 6.96875C18.5573 6.51042 18.1302 6.17708 17.5469 5.96875C16.9635 5.75 16.224 5.64062 15.3281 5.64062H11.7969V25H7.5V2.25H15.3281C16.6198 2.25 17.7708 2.375 18.7812 2.625C19.8021 2.86458 20.6667 3.23958 21.375 3.75C22.0833 4.26042 22.6198 4.90104 22.9844 5.67188C23.3594 6.44271 23.5469 7.35938 23.5469 8.42188C23.5469 9.35938 23.3281 10.224 22.8906 11.0156C22.4635 11.7969 21.8021 12.4323 20.9062 12.9219C20.0208 13.4115 18.8958 13.6927 17.5312 13.7656L16.2188 14.8594ZM16.0312 25H9.14062L10.9375 21.625H16.0312C16.8854 21.625 17.5885 21.4844 18.1406 21.2031C18.7031 20.9219 19.1198 20.5365 19.3906 20.0469C19.6719 19.5469 19.8125 18.974 19.8125 18.3281C19.8125 17.6198 19.6875 17.0052 19.4375 16.4844C19.1979 15.9635 18.8125 15.5625 18.2812 15.2812C17.7604 15 17.0729 14.8594 16.2188 14.8594H11.75L11.7812 11.8281H17.4688L18.4531 13C19.7656 13.0104 20.8333 13.2708 21.6562 13.7812C22.4896 14.2917 23.1042 14.9479 23.5 15.75C23.8958 16.5521 24.0938 17.4167 24.0938 18.3438C24.0938 19.8021 23.776 21.026 23.1406 22.0156C22.5156 23.0052 21.599 23.75 20.3906 24.25C19.1927 24.75 17.7396 25 16.0312 25ZM32.3906 2.25V25H28.0938V2.25H32.3906ZM54.7812 13.2344V22.0938C54.4479 22.5208 53.9219 22.9844 53.2031 23.4844C52.4948 23.9844 51.5677 24.4167 50.4219 24.7812C49.276 25.1354 47.8698 25.3125 46.2031 25.3125C44.7552 25.3125 43.4323 25.0729 42.2344 24.5938C41.0365 24.1042 40.0052 23.3906 39.1406 22.4531C38.276 21.5156 37.6094 20.3698 37.1406 19.0156C36.6719 17.6615 36.4375 16.1146 36.4375 14.375V12.875C36.4375 11.1354 36.6562 9.58854 37.0938 8.23438C37.5417 6.88021 38.1771 5.73438 39 4.79688C39.8333 3.85938 40.8281 3.14583 41.9844 2.65625C43.151 2.16667 44.4531 1.92188 45.8906 1.92188C47.8177 1.92188 49.401 2.23958 50.6406 2.875C51.8906 3.51042 52.849 4.38542 53.5156 5.5C54.1823 6.60417 54.599 7.875 54.7656 9.3125H50.5781C50.4635 8.52083 50.2344 7.82812 49.8906 7.23438C49.5469 6.63021 49.0573 6.16146 48.4219 5.82812C47.7969 5.48438 46.9844 5.3125 45.9844 5.3125C45.1406 5.3125 44.3958 5.47917 43.75 5.8125C43.1042 6.14583 42.5625 6.63021 42.125 7.26562C41.6875 7.90104 41.3542 8.6875 41.125 9.625C40.9062 10.5625 40.7969 11.6354 40.7969 12.8438V14.375C40.7969 15.5938 40.9219 16.6771 41.1719 17.625C41.4219 18.5625 41.7812 19.3542 42.25 20C42.7292 20.6354 43.3177 21.1198 44.0156 21.4531C44.724 21.776 45.526 21.9375 46.4219 21.9375C47.2344 21.9375 47.9062 21.8698 48.4375 21.7344C48.9792 21.5885 49.4115 21.4167 49.7344 21.2188C50.0573 21.0208 50.3073 20.8281 50.4844 20.6406V16.375H45.9688V13.2344H54.7812ZM8.78125 52.6406L13.3125 34.25H15.7656L15.9219 38.125L11.0781 57H8.48438L8.78125 52.6406ZM5.92188 34.25L9.64062 52.5781V57H6.8125L1.65625 34.25H5.92188ZM20.625 52.5L24.2812 34.25H28.5625L23.4062 57H20.5781L20.625 52.5ZM16.9375 34.25L21.4688 52.7031L21.7344 57H19.1406L14.3125 38.1094L14.5 34.25H16.9375ZM35.8594 34.25V57H31.5625V34.25H35.8594ZM58.7812 34.25V57H54.4688L44.7969 41.2188V57H40.5V34.25H44.7969L54.5 50.0469V34.25H58.7812Z" fill="white"/>
<path d="M16.2188 14.8594V15.8594H16.5808L16.8589 15.6276L16.2188 14.8594ZM10.4062 14.8594L9.4063 14.8697L9.41651 15.8594H10.4062V14.8594ZM10.375 11.8281V10.8281H9.36464L9.37505 11.8384L10.375 11.8281ZM18.7969 10.4219L17.9619 9.87156L17.9575 9.87825L17.9532 9.885L18.7969 10.4219ZM18.8281 6.96875L17.9672 7.47748L17.9714 7.48466L17.9758 7.49177L18.8281 6.96875ZM17.5469 5.96875L17.1958 6.90508L17.2031 6.90784L17.2105 6.91049L17.5469 5.96875ZM11.7969 5.64062V4.64062H10.7969V5.64062H11.7969ZM11.7969 25V26H12.7969V25H11.7969ZM7.5 25H6.5V26H7.5V25ZM7.5 2.25V1.25H6.5V2.25H7.5ZM18.7812 2.625L18.5411 3.5958L18.5528 3.59855L18.7812 2.625ZM21.375 3.75L21.9596 2.93869L21.375 3.75ZM22.9844 5.67188L22.0803 6.09946L22.0851 6.10934L22.9844 5.67188ZM22.8906 11.0156L22.0154 10.5319L22.0132 10.536L22.8906 11.0156ZM20.9062 12.9219L20.4267 12.0444L20.4224 12.0467L20.9062 12.9219ZM17.5312 13.7656L17.4779 12.767L17.1462 12.7848L16.8911 12.9974L17.5312 13.7656ZM9.14062 25L8.25793 24.53L7.47532 26H9.14062V25ZM10.9375 21.625V20.625H10.337L10.0548 21.155L10.9375 21.625ZM18.1406 21.2031L17.6934 20.3087L17.6867 20.3121L18.1406 21.2031ZM19.3906 20.0469L18.519 19.5566L18.5156 19.5628L19.3906 20.0469ZM19.4375 16.4844L18.529 16.9023L18.5324 16.9097L18.536 16.9171L19.4375 16.4844ZM18.2812 15.2812L17.8061 16.1612L17.8134 16.165L18.2812 15.2812ZM11.75 14.8594L10.7501 14.8491L10.7396 15.8594H11.75V14.8594ZM11.7812 11.8281V10.8281H10.7915L10.7813 11.8178L11.7812 11.8281ZM17.4688 11.8281L18.2345 11.1849L17.9347 10.8281H17.4688V11.8281ZM18.4531 13L17.6874 13.6432L17.984 13.9963L18.4452 14L18.4531 13ZM21.6562 13.7812L21.1291 14.6311L21.1339 14.634L21.6562 13.7812ZM23.1406 22.0156L22.2991 21.4753L22.2951 21.4816L23.1406 22.0156ZM20.3906 24.25L20.0083 23.326L20.0054 23.3272L20.3906 24.25ZM16.2188 14.8594V13.8594H10.4062V14.8594V15.8594H16.2188V14.8594ZM10.4062 14.8594L11.4062 14.8491L11.3749 11.8178L10.375 11.8281L9.37505 11.8384L9.4063 14.8697L10.4062 14.8594ZM10.375 11.8281V12.8281H15.3594V11.8281V10.8281H10.375V11.8281ZM15.3594 11.8281V12.8281C16.2995 12.8281 17.1541 12.6973 17.8858 12.3913L17.5 11.4688L17.1142 10.5462C16.7001 10.7193 16.1276 10.8281 15.3594 10.8281V11.8281ZM17.5 11.4688L17.8858 12.3913C18.6193 12.0846 19.224 11.6133 19.6405 10.9588L18.7969 10.4219L17.9532 9.885C17.7864 10.1472 17.5266 10.3737 17.1142 10.5462L17.5 11.4688ZM18.7969 10.4219L19.6318 10.9722C20.0611 10.3209 20.25 9.56307 20.25 8.75H19.25H18.25C18.25 9.24943 18.1368 9.60622 17.9619 9.87156L18.7969 10.4219ZM19.25 8.75H20.25C20.25 7.89972 20.0868 7.10796 19.6804 6.44573L18.8281 6.96875L17.9758 7.49177C18.1319 7.7462 18.25 8.14195 18.25 8.75H19.25ZM18.8281 6.96875L19.6891 6.46002C19.2804 5.76839 18.6488 5.30042 17.8832 5.02701L17.5469 5.96875L17.2105 6.91049C17.6116 7.05374 17.8342 7.25244 17.9672 7.47748L18.8281 6.96875ZM17.5469 5.96875L17.898 5.03242C17.1648 4.75747 16.2958 4.64062 15.3281 4.64062V5.64062V6.64062C16.1521 6.64062 16.7623 6.74253 17.1958 6.90508L17.5469 5.96875ZM15.3281 5.64062V4.64062H11.7969V5.64062V6.64062H15.3281V5.64062ZM11.7969 5.64062H10.7969V25H11.7969H12.7969V5.64062H11.7969ZM11.7969 25V24H7.5V25V26H11.7969V25ZM7.5 25H8.5V2.25H7.5H6.5V25H7.5ZM7.5 2.25V3.25H15.3281V2.25V1.25H7.5V2.25ZM15.3281 2.25V3.25C16.5574 3.25 17.6254 3.36917 18.5411 3.59573L18.7812 2.625L19.0214 1.65427C17.9163 1.38083 16.6822 1.25 15.3281 1.25V2.25ZM18.7812 2.625L18.5528 3.59855C19.4706 3.81395 20.2081 4.14172 20.7904 4.56131L21.375 3.75L21.9596 2.93869C21.1252 2.33745 20.1336 1.91521 19.0097 1.65145L18.7812 2.625ZM21.375 3.75L20.7904 4.56131C21.3649 4.97533 21.7899 5.48523 22.0804 6.09944L22.9844 5.67188L23.8884 5.24431C23.4497 4.31686 22.8017 3.5455 21.9596 2.93869L21.375 3.75ZM22.9844 5.67188L22.0851 6.10934C22.3799 6.7152 22.5469 7.47546 22.5469 8.42188H23.5469H24.5469C24.5469 7.24329 24.3389 6.17022 23.8836 5.23441L22.9844 5.67188ZM23.5469 8.42188H22.5469C22.5469 9.19661 22.368 9.89387 22.0154 10.5319L22.8906 11.0156L23.7659 11.4993C24.2882 10.554 24.5469 9.52214 24.5469 8.42188H23.5469ZM22.8906 11.0156L22.0132 10.536C21.6908 11.1257 21.1798 11.6328 20.4267 12.0444L20.9062 12.9219L21.3858 13.7994C22.4244 13.2318 23.2363 12.4681 23.7681 11.4953L22.8906 11.0156ZM20.9062 12.9219L20.4224 12.0467C19.7072 12.4422 18.7418 12.6995 17.4779 12.767L17.5312 13.7656L17.5846 14.7642C19.0499 14.6859 20.3344 14.3807 21.3901 13.797L20.9062 12.9219ZM17.5312 13.7656L16.8911 12.9974L15.5786 14.0912L16.2188 14.8594L16.8589 15.6276L18.1714 14.5338L17.5312 13.7656ZM16.0312 25V24H9.14062V25V26H16.0312V25ZM9.14062 25L10.0233 25.47L11.8202 22.095L10.9375 21.625L10.0548 21.155L8.25793 24.53L9.14062 25ZM10.9375 21.625V22.625H16.0312V21.625V20.625H10.9375V21.625ZM16.0312 21.625V22.625C16.9867 22.625 17.8589 22.4689 18.5946 22.0942L18.1406 21.2031L17.6867 20.3121C17.3181 20.4998 16.7841 20.625 16.0312 20.625V21.625ZM18.1406 21.2031L18.5878 22.0976C19.3079 21.7375 19.8851 21.2189 20.2657 20.5309L19.3906 20.0469L18.5156 19.5628C18.3545 19.854 18.0984 20.1062 17.6934 20.3087L18.1406 21.2031ZM19.3906 20.0469L20.2622 20.5371C20.6378 19.8694 20.8125 19.1237 20.8125 18.3281H19.8125H18.8125C18.8125 18.8242 18.7059 19.2244 18.519 19.5566L19.3906 20.0469ZM19.8125 18.3281H20.8125C20.8125 17.5032 20.6668 16.7346 20.339 16.0516L19.4375 16.4844L18.536 16.9171C18.7082 17.2759 18.8125 17.7364 18.8125 18.3281H19.8125ZM19.4375 16.4844L20.346 16.0665C20.01 15.3361 19.4643 14.7761 18.7491 14.3975L18.2812 15.2812L17.8134 16.165C18.1607 16.3489 18.3858 16.591 18.529 16.9023L19.4375 16.4844ZM18.2812 15.2812L18.7564 14.4013C18.0392 14.0141 17.1701 13.8594 16.2188 13.8594V14.8594V15.8594C16.9757 15.8594 17.4816 15.9859 17.8061 16.1612L18.2812 15.2812ZM16.2188 14.8594V13.8594H11.75V14.8594V15.8594H16.2188V14.8594ZM11.75 14.8594L12.7499 14.8697L12.7812 11.8384L11.7812 11.8281L10.7813 11.8178L10.7501 14.8491L11.75 14.8594ZM11.7812 11.8281V12.8281H17.4688V11.8281V10.8281H11.7812V11.8281ZM17.4688 11.8281L16.703 12.4713L17.6874 13.6432L18.4531 13L19.2188 12.3568L18.2345 11.1849L17.4688 11.8281ZM18.4531 13L18.4452 14C19.6371 14.0094 20.5083 14.246 21.1292 14.6311L21.6562 13.7812L22.1833 12.9314C21.1584 12.2957 19.8941 12.0114 18.4611 12L18.4531 13ZM21.6562 13.7812L21.1339 14.634C21.8217 15.0553 22.2987 15.5754 22.6033 16.1925L23.5 15.75L24.3967 15.3075C23.9097 14.3205 23.1575 13.5281 22.1786 12.9285L21.6562 13.7812ZM23.5 15.75L22.6033 16.1925C22.9287 16.8519 23.0938 17.5644 23.0938 18.3438H24.0938H25.0938C25.0938 17.269 24.863 16.2523 24.3967 15.3075L23.5 15.75ZM24.0938 18.3438H23.0938C23.0938 19.6565 22.8087 20.6817 22.2992 21.4753L23.1406 22.0156L23.9821 22.5559C24.7433 21.3704 25.0938 19.9476 25.0938 18.3438H24.0938ZM23.1406 22.0156L22.2951 21.4816C21.7933 22.2762 21.049 22.8953 20.0083 23.326L20.3906 24.25L20.773 25.174C22.1489 24.6047 23.238 23.7342 23.9861 22.5496L23.1406 22.0156ZM20.3906 24.25L20.0054 23.3272C18.9615 23.7629 17.647 24 16.0312 24V25V26C17.8321 26 19.4239 25.7371 20.7758 25.1728L20.3906 24.25ZM32.3906 2.25H33.3906V1.25H32.3906V2.25ZM32.3906 25V26H33.3906V25H32.3906ZM28.0938 25H27.0938V26H28.0938V25ZM28.0938 2.25V1.25H27.0938V2.25H28.0938ZM32.3906 2.25H31.3906V25H32.3906H33.3906V2.25H32.3906ZM32.3906 25V24H28.0938V25V26H32.3906V25ZM28.0938 25H29.0938V2.25H28.0938H27.0938V25H28.0938ZM28.0938 2.25V3.25H32.3906V2.25V1.25H28.0938V2.25ZM54.7812 13.2344H55.7812V12.2344H54.7812V13.2344ZM54.7812 22.0938L55.5696 22.709L55.7812 22.4378V22.0938H54.7812ZM53.2031 23.4844L52.632 22.6635L52.6264 22.6674L53.2031 23.4844ZM50.4219 24.7812L50.7172 25.7367L50.7251 25.7342L50.4219 24.7812ZM42.2344 24.5938L41.856 25.5195L41.863 25.5222L42.2344 24.5938ZM37.0938 8.23438L36.1443 7.92033L36.1422 7.92694L37.0938 8.23438ZM39 4.79688L38.2526 4.1325L38.2485 4.13719L39 4.79688ZM41.9844 2.65625L41.5974 1.73415L41.5945 1.7354L41.9844 2.65625ZM50.6406 2.875L50.1845 3.7649L50.1875 3.76644L50.6406 2.875ZM53.5156 5.5L52.6574 6.01332L52.6596 6.01687L53.5156 5.5ZM54.7656 9.3125V10.3125H55.8883L55.759 9.19733L54.7656 9.3125ZM50.5781 9.3125L49.5884 9.45574L49.7124 10.3125H50.5781V9.3125ZM49.8906 7.23438L49.0214 7.72891L49.0252 7.73541L49.8906 7.23438ZM48.4219 5.82812L47.94 6.70434L47.9486 6.70909L47.9573 6.71367L48.4219 5.82812ZM41.125 9.625L40.1535 9.38753L40.1512 9.39777L41.125 9.625ZM41.1719 17.625L40.2049 17.88L40.2056 17.8827L41.1719 17.625ZM42.25 20L41.4407 20.5874L41.4461 20.5948L41.4516 20.6021L42.25 20ZM44.0156 21.4531L43.5846 22.3555L43.5927 22.3593L43.6008 22.363L44.0156 21.4531ZM48.4375 21.7344L48.6845 22.7035L48.6975 22.7L48.4375 21.7344ZM50.4844 20.6406L51.2114 21.3272L51.4844 21.0382V20.6406H50.4844ZM50.4844 16.375H51.4844V15.375H50.4844V16.375ZM45.9688 16.375H44.9688V17.375H45.9688V16.375ZM45.9688 13.2344V12.2344H44.9688V13.2344H45.9688ZM54.7812 13.2344H53.7812V22.0938H54.7812H55.7812V13.2344H54.7812ZM54.7812 22.0938L53.9929 21.4785C53.7474 21.7931 53.3125 22.1901 52.6321 22.6635L53.2031 23.4844L53.7742 24.3053C54.5312 23.7787 55.1485 23.2485 55.5696 22.709L54.7812 22.0938ZM53.2031 23.4844L52.6264 22.6674C52.0271 23.0905 51.2017 23.4837 50.1187 23.8283L50.4219 24.7812L50.7251 25.7342C51.9337 25.3496 52.9625 24.8783 53.7798 24.3013L53.2031 23.4844ZM50.4219 24.7812L50.1266 23.8258C49.1055 24.1414 47.8056 24.3125 46.2031 24.3125V25.3125V26.3125C47.934 26.3125 49.4466 26.1294 50.7172 25.7367L50.4219 24.7812ZM46.2031 25.3125V24.3125C44.8669 24.3125 43.672 24.0918 42.6058 23.6653L42.2344 24.5938L41.863 25.5222C43.1926 26.0541 44.6435 26.3125 46.2031 26.3125V25.3125ZM42.2344 24.5938L42.6127 23.6681C41.5484 23.2331 40.6395 22.6033 39.8757 21.7752L39.1406 22.4531L38.4055 23.1311C39.3709 24.1779 40.5246 24.9752 41.8561 25.5194L42.2344 24.5938ZM39.1406 22.4531L39.8757 21.7752C39.1154 20.9507 38.5149 19.9286 38.0856 18.6885L37.1406 19.0156L36.1956 19.3427C36.7039 20.8109 37.4367 22.0805 38.4055 23.1311L39.1406 22.4531ZM37.1406 19.0156L38.0856 18.6885C37.6601 17.4593 37.4375 16.0263 37.4375 14.375H36.4375H35.4375C35.4375 16.2029 35.6836 17.8636 36.1956 19.3427L37.1406 19.0156ZM36.4375 14.375H37.4375V12.875H36.4375H35.4375V14.375H36.4375ZM36.4375 12.875H37.4375C37.4375 11.2175 37.6461 9.77742 38.0453 8.54181L37.0938 8.23438L36.1422 7.92694C35.6664 9.39967 35.4375 11.0534 35.4375 12.875H36.4375ZM37.0938 8.23438L38.0432 8.54841C38.455 7.30341 39.0289 6.27984 39.7515 5.45656L39 4.79688L38.2485 4.13719C37.3253 5.18891 36.6284 6.457 36.1443 7.92034L37.0938 8.23438ZM39 4.79688L39.7474 5.46124C40.482 4.63484 41.3546 4.00885 42.3743 3.5771L41.9844 2.65625L41.5945 1.7354C40.3016 2.28281 39.1847 3.08391 38.2526 4.13251L39 4.79688ZM41.9844 2.65625L42.3713 3.57835C43.3999 3.14672 44.568 2.92188 45.8906 2.92188V1.92188V0.921875C44.3383 0.921875 42.9022 1.18661 41.5974 1.73415L41.9844 2.65625ZM45.8906 1.92188V2.92188C47.7166 2.92188 49.1296 3.22417 50.1845 3.7649L50.6406 2.875L51.0968 1.9851C49.6725 1.255 47.9188 0.921875 45.8906 0.921875V1.92188ZM50.6406 2.875L50.1875 3.76644C51.2835 4.32356 52.0952 5.07331 52.6574 6.01332L53.5156 5.5L54.3738 4.98668C53.6027 3.69752 52.4978 2.69727 51.0938 1.98356L50.6406 2.875ZM53.5156 5.5L52.6596 6.01687C53.2437 6.98434 53.6201 8.11495 53.7723 9.42767L54.7656 9.3125L55.759 9.19733C55.5778 7.63505 55.1209 6.22399 54.3717 4.98313L53.5156 5.5ZM54.7656 9.3125V8.3125H50.5781V9.3125V10.3125H54.7656V9.3125ZM50.5781 9.3125L51.5678 9.16926C51.438 8.27211 51.1733 7.45404 50.7561 6.73334L49.8906 7.23438L49.0252 7.73541C49.2954 8.20221 49.4891 8.76955 49.5884 9.45574L50.5781 9.3125ZM49.8906 7.23438L50.7598 6.73985C50.3182 5.96373 49.6856 5.36181 48.8864 4.94258L48.4219 5.82812L47.9573 6.71367C48.429 6.96111 48.7755 7.29669 49.0215 7.7289L49.8906 7.23438ZM48.4219 5.82812L48.9038 4.95191C48.0837 4.50085 47.0888 4.3125 45.9844 4.3125V5.3125V6.3125C46.8799 6.3125 47.5101 6.4679 47.94 6.70434L48.4219 5.82812ZM45.9844 5.3125V4.3125C45.0068 4.3125 44.1002 4.5064 43.2914 4.92388L43.75 5.8125L44.2086 6.70112C44.6914 6.45193 45.2745 6.3125 45.9844 6.3125V5.3125ZM43.75 5.8125L43.2914 4.92388C42.4902 5.33735 41.8263 5.93612 41.3014 6.69852L42.125 7.26562L42.9486 7.83273C43.2987 7.3243 43.7181 6.95431 44.2086 6.70112L43.75 5.8125ZM42.125 7.26562L41.3014 6.69852C40.7801 7.45553 40.4046 8.36057 40.1536 9.38755L41.125 9.625L42.0964 9.86245C42.3037 9.01443 42.5949 8.34656 42.9486 7.83273L42.125 7.26562ZM41.125 9.625L40.1512 9.39777C39.9113 10.4258 39.7969 11.5774 39.7969 12.8438H40.7969H41.7969C41.7969 11.6934 41.9012 10.6992 42.0988 9.85223L41.125 9.625ZM40.7969 12.8438H39.7969V14.375H40.7969H41.7969V12.8438H40.7969ZM40.7969 14.375H39.7969C39.7969 15.6599 39.9284 16.8316 40.2049 17.88L41.1719 17.625L42.1388 17.37C41.9153 16.5226 41.7969 15.5276 41.7969 14.375H40.7969ZM41.1719 17.625L40.2056 17.8827C40.4806 18.9139 40.8861 19.8233 41.4407 20.5874L42.25 20L43.0593 19.4126C42.6764 18.885 42.3631 18.2111 42.1381 17.3673L41.1719 17.625ZM42.25 20L41.4516 20.6021C42.0245 21.3618 42.7376 21.9509 43.5846 22.3555L44.0156 21.4531L44.4466 20.5508C43.8978 20.2886 43.4339 19.9091 43.0484 19.3979L42.25 20ZM44.0156 21.4531L43.6008 22.363C44.4576 22.7536 45.4044 22.9375 46.4219 22.9375V21.9375V20.9375C45.6477 20.9375 44.9903 20.7985 44.4304 20.5432L44.0156 21.4531ZM46.4219 21.9375V22.9375C47.2818 22.9375 48.0439 22.8667 48.6845 22.7034L48.4375 21.7344L48.1905 20.7654C47.7686 20.8729 47.187 20.9375 46.4219 20.9375V21.9375ZM48.4375 21.7344L48.6975 22.7C49.2917 22.54 49.8233 22.3371 50.2569 22.0714L49.7344 21.2188L49.2118 20.3661C48.9996 20.4962 48.6666 20.6371 48.1775 20.7688L48.4375 21.7344ZM49.7344 21.2188L50.2569 22.0714C50.6234 21.8468 50.9527 21.6012 51.2114 21.3272L50.4844 20.6406L49.7574 19.954C49.6619 20.0551 49.4912 20.1949 49.2118 20.3661L49.7344 21.2188ZM50.4844 20.6406H51.4844V16.375H50.4844H49.4844V20.6406H50.4844ZM50.4844 16.375V15.375H45.9688V16.375V17.375H50.4844V16.375ZM45.9688 16.375H46.9688V13.2344H45.9688H44.9688V16.375H45.9688ZM45.9688 13.2344V14.2344H54.7812V13.2344V12.2344H45.9688V13.2344ZM8.78125 52.6406L7.81029 52.4014L7.78947 52.4859L7.78356 52.5727L8.78125 52.6406ZM13.3125 34.25V33.25H12.529L12.3415 34.0108L13.3125 34.25ZM15.7656 34.25L16.7648 34.2097L16.7261 33.25H15.7656V34.25ZM15.9219 38.125L16.8905 38.3736L16.927 38.2314L16.9211 38.0847L15.9219 38.125ZM11.0781 57V58H11.8539L12.0467 57.2486L11.0781 57ZM8.48438 57L7.48669 56.9321L7.41396 58H8.48438V57ZM5.92188 34.25L6.90191 34.0512L6.73935 33.25H5.92188V34.25ZM9.64062 52.5781H10.6406V52.4777L10.6207 52.3793L9.64062 52.5781ZM9.64062 57V58H10.6406V57H9.64062ZM6.8125 57L5.83724 57.221L6.01379 58H6.8125V57ZM1.65625 34.25V33.25H0.404239L0.680986 34.471L1.65625 34.25ZM20.625 52.5L19.6445 52.3036L19.626 52.3957L19.6251 52.4896L20.625 52.5ZM24.2812 34.25V33.25H23.4617L23.3007 34.0536L24.2812 34.25ZM28.5625 34.25L29.5378 34.471L29.8145 33.25H28.5625V34.25ZM23.4062 57V58H24.205L24.3815 57.221L23.4062 57ZM20.5781 57L19.5782 56.9896L19.5677 58H20.5781V57ZM16.9375 34.25L17.9086 34.0115L17.7217 33.25H16.9375V34.25ZM21.4688 52.7031L22.4668 52.6414L22.4613 52.5518L22.4399 52.4647L21.4688 52.7031ZM21.7344 57V58H22.7981L22.7325 56.9383L21.7344 57ZM19.1406 57L18.1718 57.2476L18.3641 58H19.1406V57ZM14.3125 38.1094L13.3137 38.0608L13.3064 38.2112L13.3436 38.357L14.3125 38.1094ZM14.5 34.25V33.25H13.5474L13.5012 34.2015L14.5 34.25ZM8.78125 52.6406L9.75221 52.8799L14.2835 34.4892L13.3125 34.25L12.3415 34.0108L7.81029 52.4014L8.78125 52.6406ZM13.3125 34.25V35.25H15.7656V34.25V33.25H13.3125V34.25ZM15.7656 34.25L14.7664 34.2903L14.9227 38.1653L15.9219 38.125L16.9211 38.0847L16.7648 34.2097L15.7656 34.25ZM15.9219 38.125L14.9533 37.8764L10.1095 56.7514L11.0781 57L12.0467 57.2486L16.8905 38.3736L15.9219 38.125ZM11.0781 57V56H8.48438V57V58H11.0781V57ZM8.48438 57L9.48206 57.0679L9.77894 52.7086L8.78125 52.6406L7.78356 52.5727L7.48669 56.9321L8.48438 57ZM5.92188 34.25L4.94184 34.4488L8.66059 52.777L9.64062 52.5781L10.6207 52.3793L6.90191 34.0512L5.92188 34.25ZM9.64062 52.5781H8.64062V57H9.64062H10.6406V52.5781H9.64062ZM9.64062 57V56H6.8125V57V58H9.64062V57ZM6.8125 57L7.78776 56.779L2.63151 34.029L1.65625 34.25L0.680986 34.471L5.83724 57.221L6.8125 57ZM1.65625 34.25V35.25H5.92188V34.25V33.25H1.65625V34.25ZM20.625 52.5L21.6055 52.6964L25.2618 34.4464L24.2812 34.25L23.3007 34.0536L19.6445 52.3036L20.625 52.5ZM24.2812 34.25V35.25H28.5625V34.25V33.25H24.2812V34.25ZM28.5625 34.25L27.5872 34.029L22.431 56.779L23.4062 57L24.3815 57.221L29.5378 34.471L28.5625 34.25ZM23.4062 57V56H20.5781V57V58H23.4062V57ZM20.5781 57L21.5781 57.0104L21.6249 52.5104L20.625 52.5L19.6251 52.4896L19.5782 56.9896L20.5781 57ZM16.9375 34.25L15.9664 34.4885L20.4976 52.9416L21.4688 52.7031L22.4399 52.4647L17.9086 34.0115L16.9375 34.25ZM21.4688 52.7031L20.4707 52.7648L20.7363 57.0617L21.7344 57L22.7325 56.9383L22.4668 52.6414L21.4688 52.7031ZM21.7344 57V56H19.1406V57V58H21.7344V57ZM19.1406 57L20.1095 56.7524L15.2814 37.8618L14.3125 38.1094L13.3436 38.357L18.1718 57.2476L19.1406 57ZM14.3125 38.1094L15.3113 38.1579L15.4988 34.2985L14.5 34.25L13.5012 34.2015L13.3137 38.0608L14.3125 38.1094ZM14.5 34.25V35.25H16.9375V34.25V33.25H14.5V34.25ZM35.8594 34.25H36.8594V33.25H35.8594V34.25ZM35.8594 57V58H36.8594V57H35.8594ZM31.5625 57H30.5625V58H31.5625V57ZM31.5625 34.25V33.25H30.5625V34.25H31.5625ZM35.8594 34.25H34.8594V57H35.8594H36.8594V34.25H35.8594ZM35.8594 57V56H31.5625V57V58H35.8594V57ZM31.5625 57H32.5625V34.25H31.5625H30.5625V57H31.5625ZM31.5625 34.25V35.25H35.8594V34.25V33.25H31.5625V34.25ZM58.7812 34.25H59.7812V33.25H58.7812V34.25ZM58.7812 57V58H59.7812V57H58.7812ZM54.4688 57L53.6161 57.5225L53.9088 58H54.4688V57ZM44.7969 41.2188L45.6495 40.6962L43.7969 37.6734V41.2188H44.7969ZM44.7969 57V58H45.7969V57H44.7969ZM40.5 57H39.5V58H40.5V57ZM40.5 34.25V33.25H39.5V34.25H40.5ZM44.7969 34.25L45.649 33.7266L45.3562 33.25H44.7969V34.25ZM54.5 50.0469L53.6479 50.5703L55.5 53.5855V50.0469H54.5ZM54.5 34.25V33.25H53.5V34.25H54.5ZM58.7812 34.25H57.7812V57H58.7812H59.7812V34.25H58.7812ZM58.7812 57V56H54.4688V57V58H58.7812V57ZM54.4688 57L55.3214 56.4775L45.6495 40.6962L44.7969 41.2188L43.9443 41.7413L53.6161 57.5225L54.4688 57ZM44.7969 41.2188H43.7969V57H44.7969H45.7969V41.2188H44.7969ZM44.7969 57V56H40.5V57V58H44.7969V57ZM40.5 57H41.5V34.25H40.5H39.5V57H40.5ZM40.5 34.25V35.25H44.7969V34.25V33.25H40.5V34.25ZM44.7969 34.25L43.9448 34.7734L53.6479 50.5703L54.5 50.0469L55.3521 49.5235L45.649 33.7266L44.7969 34.25ZM54.5 50.0469H55.5V34.25H54.5H53.5V50.0469H54.5ZM54.5 34.25V35.25H58.7812V34.25V33.25H54.5V34.25Z" fill="white" mask="url(#path-1-outside-1_1_9401)"/>
</svg>
