<svg width="20" height="29" viewBox="0 0 20 29" fill="none" xmlns="http://www.w3.org/2000/svg">
<path d="M0.0307617 15.1274C0.0307617 5.49805 3.73438 0.152832 10.3809 0.152832C12.5229 0.152832 14.585 0.733398 16.1064 1.77441C17.4277 2.63525 18.2285 3.73633 18.2285 4.65723C18.2285 5.51807 17.6079 6.15869 16.7471 6.15869C16.1865 6.15869 15.7661 5.93848 15.0454 5.23779C13.604 3.81641 12.1025 3.17578 10.3208 3.17578C5.85645 3.17578 3.49414 7.09961 3.43408 14.5869H3.59424C4.51514 12.1445 7.37793 10.4229 10.501 10.4229C15.5859 10.4229 19.1494 14.0864 19.1494 19.3115C19.1494 24.8169 15.3857 28.5605 9.82031 28.5605C6.43701 28.5605 3.73438 27.1592 2.09277 24.5767C0.711426 22.3745 0.0307617 19.2715 0.0307617 15.1274ZM3.93457 19.4316C3.93457 23.0151 6.41699 25.5576 9.96045 25.5576C13.4038 25.5576 15.7061 23.1353 15.7061 19.4517C15.7061 15.8081 13.3838 13.4058 9.82031 13.4058C6.35693 13.4058 3.93457 15.8882 3.93457 19.4316Z" fill="#211C1D"/>
</svg>
