<svg width="19" height="29" viewBox="0 0 19 29" fill="none" xmlns="http://www.w3.org/2000/svg">
<path d="M0.311035 22.3945C0.311035 21.4937 0.931641 20.853 1.8125 20.853C2.51318 20.853 2.95361 21.2134 3.47412 22.2344C4.51514 24.3765 6.59717 25.5776 9.31982 25.5776C12.9033 25.5776 15.1855 23.6157 15.1855 20.5527C15.1855 17.4897 12.8433 15.4277 9.35986 15.4277H6.85742C5.93652 15.4277 5.25586 14.7671 5.25586 13.9062C5.25586 13.0254 5.89648 12.4048 6.85742 12.4048H9.21973C12.1426 12.4048 14.2646 10.4229 14.2646 7.68018C14.2646 4.9375 12.2026 3.0957 9.13965 3.0957C6.75732 3.0957 4.95557 4.27686 4.15479 6.33887C3.75439 7.43994 3.25391 7.86035 2.47314 7.86035C1.55225 7.86035 0.95166 7.19971 0.95166 6.19873C0.95166 3.0957 4.29492 0.0927734 9.21973 0.0927734C14.2246 0.0927734 17.7881 3.07568 17.7881 7.23975C17.7881 10.2627 15.5259 13.1455 12.7432 13.626V13.8262C16.1265 14.2065 18.709 17.1694 18.709 20.6128C18.709 25.2974 14.8252 28.5806 9.25977 28.5806C4.09473 28.5806 0.311035 25.4575 0.311035 22.3945Z" fill="#211C1D"/>
</svg>
