<svg width="21" height="29" viewBox="0 0 21 29" fill="none" xmlns="http://www.w3.org/2000/svg">
<path d="M13.4634 26.3784V22.3145H2.93311C1.37158 22.3145 0.330566 21.4937 0.330566 20.1724C0.330566 19.4316 0.570801 18.731 1.27148 17.4497C4.13428 12.3848 5.93604 9.50195 10.4805 2.69531C11.6616 0.953613 12.5825 0.353027 13.9639 0.353027C15.7856 0.353027 16.8066 1.39404 16.8066 3.25586V19.2515H18.8887C20.0098 19.2515 20.6704 19.812 20.6704 20.793C20.6704 21.7539 20.0298 22.3145 18.8887 22.3145H16.8066V26.3784C16.8066 27.5396 16.2061 28.2002 15.125 28.2002C14.064 28.2002 13.4634 27.5396 13.4634 26.3784ZM3.69385 19.2515H13.4634V3.75635H13.2832C9.87988 8.78125 6.31641 14.5068 3.69385 19.0513V19.2515Z" fill="#211C1D"/>
</svg>
