<svg width="20" height="29" viewBox="0 0 20 29" fill="none" xmlns="http://www.w3.org/2000/svg">
<path d="M0.95166 23.936C0.95166 23.0352 1.57227 22.4546 2.43311 22.4546C2.97363 22.4546 3.39404 22.6948 4.13477 23.4155C5.59619 24.8569 7.07764 25.5176 8.91943 25.5176C13.4438 25.5176 15.7461 21.3735 15.7461 14.1665H15.5659C14.5649 16.8691 12.0024 18.4907 8.73926 18.4907C3.61426 18.4907 0.0507812 14.7271 0.0507812 9.32178C0.0507812 3.75635 3.83447 0.0527344 9.52002 0.0527344C15.7861 0.0527344 19.1294 4.9375 19.1294 14.0063C19.1294 23.5557 15.666 28.5205 8.97949 28.5205C6.77734 28.5205 4.69531 27.96 3.13379 26.939C1.79248 26.0581 0.95166 24.937 0.95166 23.936ZM15.1455 9.40186C15.1455 5.6582 12.7832 3.0957 9.31982 3.0957C5.87646 3.0957 3.51416 5.6582 3.51416 9.38184C3.51416 13.0254 5.83643 15.4678 9.31982 15.4678C12.8232 15.4678 15.1455 13.0454 15.1455 9.40186Z" fill="#211C1D"/>
</svg>
