<svg width="219" height="304" viewBox="0 0 219 304" fill="none" xmlns="http://www.w3.org/2000/svg">
<g filter="url(#filter0_d_123_1672)">
<rect x="8" y="4" width="203" height="288" rx="10" fill="white"/>
<path d="M84.6958 152.415C84.6958 150.252 85.7168 148.571 89.2603 144.547L114.245 115.959C121.031 108.211 123.614 103.167 123.614 97.521C123.614 89.0527 117.548 83.4072 108.419 83.4072C100.671 83.4072 94.9658 88.0317 93.1641 95.8394C92.3232 99.0225 90.6416 100.644 88.1792 100.644C85.2363 100.644 83.3145 98.4219 83.3145 95.1787C83.3145 84.9688 93.2241 74.2783 109.08 74.2783C123.854 74.2783 134.244 83.6475 134.244 96.8604C134.244 104.668 131.181 110.374 120.371 122.686L98.1489 148.09V148.811H131.481C134.665 148.811 136.707 150.553 136.707 153.436C136.707 156.258 134.785 158 131.481 158H91.8428C87.4585 158 84.6958 155.898 84.6958 152.415Z" fill="#211C1D"/>
<path d="M105.097 242C104.445 242 103.916 241.478 103.916 240.834C103.916 238.674 107.795 230.604 108.57 224.288C108.654 223.608 107.658 223.356 107.292 223.937C105.295 227.108 102.571 231.545 95.9353 231.39L95.8064 231.394C95.7204 231.397 95.6344 231.4 95.5476 231.4C88.3414 231.4 82.5 225.062 82.5 217.245C82.5 209.427 88.3414 203.09 95.5476 203.09C96.9545 203.09 98.309 203.333 99.5784 203.78C99.8745 203.884 100.176 203.543 100.029 203.269C98.9047 201.178 98.2593 198.747 98.2593 196.151C98.2593 188.445 103.875 182 111 182C118.125 182 123.741 188.445 123.741 196.151C123.741 198.747 123.095 201.178 121.971 203.269C121.824 203.543 122.125 203.884 122.422 203.78C123.691 203.333 125.046 203.09 126.452 203.09C133.659 203.09 139.5 209.427 139.5 217.245C139.5 225.062 133.659 231.4 126.452 231.4C126.366 231.4 126.28 231.397 126.194 231.394L126.065 231.39C119.429 231.545 116.705 227.108 114.708 223.937C114.342 223.356 113.346 223.608 113.43 224.288C114.205 230.604 118.084 238.674 118.084 240.834C118.084 241.478 117.555 242 116.903 242H105.097Z" fill="#211C1D"/>
</g>
<defs>
<filter id="filter0_d_123_1672" x="0" y="0" width="219" height="304" filterUnits="userSpaceOnUse" color-interpolation-filters="sRGB">
<feFlood flood-opacity="0" result="BackgroundImageFix"/>
<feColorMatrix in="SourceAlpha" type="matrix" values="0 0 0 0 0 0 0 0 0 0 0 0 0 0 0 0 0 0 127 0" result="hardAlpha"/>
<feOffset dy="4"/>
<feGaussianBlur stdDeviation="4"/>
<feComposite in2="hardAlpha" operator="out"/>
<feColorMatrix type="matrix" values="0 0 0 0 0.614771 0 0 0 0 0.70094 0 0 0 0 0.806257 0 0 0 1 0"/>
<feBlend mode="normal" in2="BackgroundImageFix" result="effect1_dropShadow_123_1672"/>
<feBlend mode="normal" in="SourceGraphic" in2="effect1_dropShadow_123_1672" result="shape"/>
</filter>
</defs>
</svg>
