<svg width="219" height="304" viewBox="0 0 219 304" fill="none" xmlns="http://www.w3.org/2000/svg">
<g filter="url(#filter0_d_123_1740)">
<rect x="8" y="4" width="203" height="288" rx="10" fill="white"/>
<path d="M81.0923 119.382C81.0923 90.4941 92.2031 74.4585 112.143 74.4585C118.569 74.4585 124.755 76.2002 129.319 79.3232C133.283 81.9058 135.686 85.209 135.686 87.9717C135.686 90.5542 133.824 92.4761 131.241 92.4761C129.56 92.4761 128.298 91.8154 126.136 89.7134C121.812 85.4492 117.308 83.5273 111.962 83.5273C98.5693 83.5273 91.4824 95.2988 91.3022 117.761H91.7827C94.5454 110.434 103.134 105.269 112.503 105.269C127.758 105.269 138.448 116.259 138.448 131.935C138.448 148.451 127.157 159.682 110.461 159.682C100.311 159.682 92.2031 155.478 87.2783 147.73C83.1343 141.124 81.0923 131.814 81.0923 119.382ZM92.8037 132.295C92.8037 143.045 100.251 150.673 110.881 150.673C121.211 150.673 128.118 143.406 128.118 132.355C128.118 121.424 121.151 114.217 110.461 114.217C100.071 114.217 92.8037 121.665 92.8037 132.295Z" fill="#211C1D"/>
<path d="M105.097 242C104.445 242 103.916 241.478 103.916 240.834C103.916 238.674 107.795 230.604 108.57 224.288C108.654 223.608 107.658 223.356 107.292 223.937C105.295 227.108 102.571 231.545 95.9353 231.39L95.8064 231.394C95.7204 231.397 95.6344 231.4 95.5476 231.4C88.3414 231.4 82.5 225.062 82.5 217.245C82.5 209.427 88.3414 203.09 95.5476 203.09C96.9545 203.09 98.309 203.333 99.5784 203.78C99.8745 203.884 100.176 203.543 100.029 203.269C98.9047 201.178 98.2593 198.747 98.2593 196.151C98.2593 188.445 103.875 182 111 182C118.125 182 123.741 188.445 123.741 196.151C123.741 198.747 123.095 201.178 121.971 203.269C121.824 203.543 122.125 203.884 122.422 203.78C123.691 203.333 125.046 203.09 126.452 203.09C133.659 203.09 139.5 209.427 139.5 217.245C139.5 225.062 133.659 231.4 126.452 231.4C126.366 231.4 126.28 231.397 126.194 231.394L126.065 231.39C119.429 231.545 116.705 227.108 114.708 223.937C114.342 223.356 113.346 223.608 113.43 224.288C114.205 230.604 118.084 238.674 118.084 240.834C118.084 241.478 117.555 242 116.903 242H105.097Z" fill="#211C1D"/>
</g>
<defs>
<filter id="filter0_d_123_1740" x="0" y="0" width="219" height="304" filterUnits="userSpaceOnUse" color-interpolation-filters="sRGB">
<feFlood flood-opacity="0" result="BackgroundImageFix"/>
<feColorMatrix in="SourceAlpha" type="matrix" values="0 0 0 0 0 0 0 0 0 0 0 0 0 0 0 0 0 0 127 0" result="hardAlpha"/>
<feOffset dy="4"/>
<feGaussianBlur stdDeviation="4"/>
<feComposite in2="hardAlpha" operator="out"/>
<feColorMatrix type="matrix" values="0 0 0 0 0.614771 0 0 0 0 0.70094 0 0 0 0 0.806257 0 0 0 1 0"/>
<feBlend mode="normal" in2="BackgroundImageFix" result="effect1_dropShadow_123_1740"/>
<feBlend mode="normal" in="SourceGraphic" in2="effect1_dropShadow_123_1740" result="shape"/>
</filter>
</defs>
</svg>
