<svg width="219" height="304" viewBox="0 0 219 304" fill="none" xmlns="http://www.w3.org/2000/svg">
<g filter="url(#filter0_d_123_1881)">
<rect x="8" y="4" width="203" height="288" rx="10" fill="white"/>
<path d="M134.424 167.069C132.082 167.069 130.46 165.988 128.418 163.225L123.794 156.859C119.65 158.721 114.905 159.742 109.5 159.742C88.7798 159.742 76.708 145.988 76.708 123.466V111.395C76.708 88.5122 89.3203 74.2783 109.5 74.2783C129.379 74.2783 142.352 88.5122 142.352 111.395V123.466C142.352 136.319 138.568 145.568 131.962 151.514L136.466 157.7C138.088 159.982 138.688 161.123 138.688 162.625C138.688 164.907 137.067 167.069 134.424 167.069ZM87.1582 123.586C87.1582 140.343 95.7466 150.433 109.44 150.433C112.443 150.433 115.326 149.892 117.968 148.811L114.485 144.126C113.164 142.325 112.143 140.703 112.143 138.961C112.143 136.379 114.125 134.397 116.707 134.397C118.329 134.397 119.95 135.298 121.812 137.88L125.716 143.286C129.5 138.841 131.842 133.136 131.842 123.586V111.395C131.842 94.2778 122.172 83.7075 109.5 83.7075C95.7466 83.7075 87.1582 94.2778 87.1582 111.395V123.586Z" fill="#211C1D"/>
<path d="M105.097 242C104.445 242 103.916 241.478 103.916 240.834C103.916 238.674 107.795 230.604 108.57 224.288C108.654 223.608 107.658 223.356 107.292 223.937C105.295 227.108 102.571 231.545 95.9353 231.39L95.8064 231.394C95.7204 231.397 95.6344 231.4 95.5476 231.4C88.3414 231.4 82.5 225.062 82.5 217.245C82.5 209.427 88.3414 203.09 95.5476 203.09C96.9545 203.09 98.309 203.333 99.5784 203.78C99.8745 203.884 100.176 203.543 100.029 203.269C98.9047 201.178 98.2593 198.747 98.2593 196.151C98.2593 188.445 103.875 182 111 182C118.125 182 123.741 188.445 123.741 196.151C123.741 198.747 123.095 201.178 121.971 203.269C121.824 203.543 122.125 203.884 122.422 203.78C123.691 203.333 125.046 203.09 126.452 203.09C133.659 203.09 139.5 209.427 139.5 217.245C139.5 225.062 133.659 231.4 126.452 231.4C126.366 231.4 126.28 231.397 126.194 231.394L126.065 231.39C119.429 231.545 116.705 227.108 114.708 223.937C114.342 223.356 113.346 223.608 113.43 224.288C114.205 230.604 118.084 238.674 118.084 240.834C118.084 241.478 117.555 242 116.903 242H105.097Z" fill="#211C1D"/>
</g>
<defs>
<filter id="filter0_d_123_1881" x="0" y="0" width="219" height="304" filterUnits="userSpaceOnUse" color-interpolation-filters="sRGB">
<feFlood flood-opacity="0" result="BackgroundImageFix"/>
<feColorMatrix in="SourceAlpha" type="matrix" values="0 0 0 0 0 0 0 0 0 0 0 0 0 0 0 0 0 0 127 0" result="hardAlpha"/>
<feOffset dy="4"/>
<feGaussianBlur stdDeviation="4"/>
<feComposite in2="hardAlpha" operator="out"/>
<feColorMatrix type="matrix" values="0 0 0 0 0.614771 0 0 0 0 0.70094 0 0 0 0 0.806257 0 0 0 1 0"/>
<feBlend mode="normal" in2="BackgroundImageFix" result="effect1_dropShadow_123_1881"/>
<feBlend mode="normal" in="SourceGraphic" in2="effect1_dropShadow_123_1881" result="shape"/>
</filter>
</defs>
</svg>
