<svg width="219" height="304" viewBox="0 0 219 304" fill="none" xmlns="http://www.w3.org/2000/svg">
<g filter="url(#filter0_d_123_1686)">
<rect x="8" y="4" width="203" height="288" rx="10" fill="white"/>
<path d="M81.9331 141.184C81.9331 138.481 83.7949 136.559 86.4375 136.559C88.5396 136.559 89.8608 137.64 91.4224 140.703C94.5454 147.129 100.792 150.733 108.959 150.733C119.71 150.733 126.557 144.847 126.557 135.658C126.557 126.469 119.53 120.283 109.08 120.283H101.572C98.8096 120.283 96.7676 118.301 96.7676 115.719C96.7676 113.076 98.6895 111.214 101.572 111.214H108.659C117.428 111.214 123.794 105.269 123.794 97.0405C123.794 88.8125 117.608 83.2871 108.419 83.2871C101.272 83.2871 95.8667 86.8306 93.4644 93.0166C92.2632 96.3198 90.7617 97.5811 88.4194 97.5811C85.6567 97.5811 83.855 95.5991 83.855 92.5962C83.855 83.2871 93.8848 74.2783 108.659 74.2783C123.674 74.2783 134.364 83.2271 134.364 95.7192C134.364 104.788 127.578 113.437 119.229 114.878V115.479C129.379 116.62 137.127 125.508 137.127 135.838C137.127 149.892 125.476 159.742 108.779 159.742C93.2842 159.742 81.9331 150.373 81.9331 141.184Z" fill="#211C1D"/>
<path d="M105.097 242C104.445 242 103.916 241.478 103.916 240.834C103.916 238.674 107.795 230.604 108.57 224.288C108.654 223.608 107.658 223.356 107.292 223.937C105.295 227.108 102.571 231.545 95.9353 231.39L95.8064 231.394C95.7204 231.397 95.6344 231.4 95.5476 231.4C88.3414 231.4 82.5 225.062 82.5 217.245C82.5 209.427 88.3414 203.09 95.5476 203.09C96.9545 203.09 98.309 203.333 99.5784 203.78C99.8745 203.884 100.176 203.543 100.029 203.269C98.9047 201.178 98.2593 198.747 98.2593 196.151C98.2593 188.445 103.875 182 111 182C118.125 182 123.741 188.445 123.741 196.151C123.741 198.747 123.095 201.178 121.971 203.269C121.824 203.543 122.125 203.884 122.422 203.78C123.691 203.333 125.046 203.09 126.452 203.09C133.659 203.09 139.5 209.427 139.5 217.245C139.5 225.062 133.659 231.4 126.452 231.4C126.366 231.4 126.28 231.397 126.194 231.394L126.065 231.39C119.429 231.545 116.705 227.108 114.708 223.937C114.342 223.356 113.346 223.608 113.43 224.288C114.205 230.604 118.084 238.674 118.084 240.834C118.084 241.478 117.555 242 116.903 242H105.097Z" fill="#211C1D"/>
</g>
<defs>
<filter id="filter0_d_123_1686" x="0" y="0" width="219" height="304" filterUnits="userSpaceOnUse" color-interpolation-filters="sRGB">
<feFlood flood-opacity="0" result="BackgroundImageFix"/>
<feColorMatrix in="SourceAlpha" type="matrix" values="0 0 0 0 0 0 0 0 0 0 0 0 0 0 0 0 0 0 127 0" result="hardAlpha"/>
<feOffset dy="4"/>
<feGaussianBlur stdDeviation="4"/>
<feComposite in2="hardAlpha" operator="out"/>
<feColorMatrix type="matrix" values="0 0 0 0 0.614771 0 0 0 0 0.70094 0 0 0 0 0.806257 0 0 0 1 0"/>
<feBlend mode="normal" in2="BackgroundImageFix" result="effect1_dropShadow_123_1686"/>
<feBlend mode="normal" in="SourceGraphic" in2="effect1_dropShadow_123_1686" result="shape"/>
</filter>
</defs>
</svg>
