<svg width="219" height="304" viewBox="0 0 219 304" fill="none" xmlns="http://www.w3.org/2000/svg">
<g filter="url(#filter0_d_123_1812)">
<rect x="8" y="4" width="203" height="288" rx="10" fill="white"/>
<path d="M83.855 145.808C83.855 143.105 85.7168 141.364 88.2993 141.364C89.9209 141.364 91.1821 142.084 93.4043 144.247C97.7886 148.571 102.233 150.553 107.758 150.553C121.332 150.553 128.238 138.121 128.238 116.5H127.698C124.695 124.607 117.007 129.472 107.218 129.472C91.8428 129.472 81.1523 118.181 81.1523 101.965C81.1523 85.269 92.5034 74.1582 109.56 74.1582C128.358 74.1582 138.388 88.8125 138.388 116.019C138.388 144.667 127.998 159.562 107.938 159.562C101.332 159.562 95.0859 157.88 90.4014 154.817C86.3774 152.174 83.855 148.811 83.855 145.808ZM126.437 102.206C126.437 90.9746 119.35 83.2871 108.959 83.2871C98.6294 83.2871 91.5425 90.9746 91.5425 102.146C91.5425 113.076 98.5093 120.403 108.959 120.403C119.47 120.403 126.437 113.136 126.437 102.206Z" fill="#211C1D"/>
<path d="M105.097 242C104.445 242 103.916 241.478 103.916 240.834C103.916 238.674 107.795 230.604 108.57 224.288C108.654 223.608 107.658 223.356 107.292 223.937C105.295 227.108 102.571 231.545 95.9353 231.39L95.8064 231.394C95.7204 231.397 95.6344 231.4 95.5476 231.4C88.3414 231.4 82.5 225.062 82.5 217.245C82.5 209.427 88.3414 203.09 95.5476 203.09C96.9545 203.09 98.309 203.333 99.5784 203.78C99.8745 203.884 100.176 203.543 100.029 203.269C98.9047 201.178 98.2593 198.747 98.2593 196.151C98.2593 188.445 103.875 182 111 182C118.125 182 123.741 188.445 123.741 196.151C123.741 198.747 123.095 201.178 121.971 203.269C121.824 203.543 122.125 203.884 122.422 203.78C123.691 203.333 125.046 203.09 126.452 203.09C133.659 203.09 139.5 209.427 139.5 217.245C139.5 225.062 133.659 231.4 126.452 231.4C126.366 231.4 126.28 231.397 126.194 231.394L126.065 231.39C119.429 231.545 116.705 227.108 114.708 223.937C114.342 223.356 113.346 223.608 113.43 224.288C114.205 230.604 118.084 238.674 118.084 240.834C118.084 241.478 117.555 242 116.903 242H105.097Z" fill="#211C1D"/>
</g>
<defs>
<filter id="filter0_d_123_1812" x="0" y="0" width="219" height="304" filterUnits="userSpaceOnUse" color-interpolation-filters="sRGB">
<feFlood flood-opacity="0" result="BackgroundImageFix"/>
<feColorMatrix in="SourceAlpha" type="matrix" values="0 0 0 0 0 0 0 0 0 0 0 0 0 0 0 0 0 0 127 0" result="hardAlpha"/>
<feOffset dy="4"/>
<feGaussianBlur stdDeviation="4"/>
<feComposite in2="hardAlpha" operator="out"/>
<feColorMatrix type="matrix" values="0 0 0 0 0.614771 0 0 0 0 0.70094 0 0 0 0 0.806257 0 0 0 1 0"/>
<feBlend mode="normal" in2="BackgroundImageFix" result="effect1_dropShadow_123_1812"/>
<feBlend mode="normal" in="SourceGraphic" in2="effect1_dropShadow_123_1812" result="shape"/>
</filter>
</defs>
</svg>
