<svg width="219" height="304" viewBox="0 0 219 304" fill="none" xmlns="http://www.w3.org/2000/svg">
<g filter="url(#filter0_d_123_1892)">
<rect x="8" y="4" width="203" height="288" rx="10" fill="white"/>
<path d="M134.246 158.18C132.144 158.18 130.342 156.979 128.24 154.036L103.075 118.421L92.7451 129.112V152.835C92.7451 156.378 90.7031 158.601 87.46 158.601C84.2168 158.601 82.2349 156.378 82.2349 152.835V81.1851C82.2349 77.6416 84.2168 75.4194 87.46 75.4194C90.7031 75.4194 92.7451 77.6416 92.7451 81.1851V115.539H93.2256L127.399 79.083C129.621 76.6206 131.002 75.8398 132.744 75.8398C135.387 75.8398 137.369 77.8818 137.369 80.4043C137.369 81.9658 136.888 82.8667 134.486 85.3892L110.883 111.214L136.588 146.889C139.11 150.373 139.651 151.454 139.651 153.015C139.651 156.078 137.429 158.18 134.246 158.18Z" fill="#211C1D"/>
<path d="M105.097 242C104.445 242 103.916 241.478 103.916 240.834C103.916 238.674 107.795 230.604 108.57 224.288C108.654 223.608 107.658 223.356 107.292 223.937C105.295 227.108 102.571 231.545 95.9353 231.39L95.8064 231.394C95.7204 231.397 95.6344 231.4 95.5476 231.4C88.3414 231.4 82.5 225.062 82.5 217.245C82.5 209.427 88.3414 203.09 95.5476 203.09C96.9545 203.09 98.309 203.333 99.5784 203.78C99.8745 203.884 100.176 203.543 100.029 203.269C98.9047 201.178 98.2593 198.747 98.2593 196.151C98.2593 188.445 103.875 182 111 182C118.125 182 123.741 188.445 123.741 196.151C123.741 198.747 123.095 201.178 121.971 203.269C121.824 203.543 122.125 203.884 122.422 203.78C123.691 203.333 125.046 203.09 126.452 203.09C133.659 203.09 139.5 209.427 139.5 217.245C139.5 225.062 133.659 231.4 126.452 231.4C126.366 231.4 126.28 231.397 126.194 231.394L126.065 231.39C119.429 231.545 116.705 227.108 114.708 223.937C114.342 223.356 113.346 223.608 113.43 224.288C114.205 230.604 118.084 238.674 118.084 240.834C118.084 241.478 117.555 242 116.903 242H105.097Z" fill="#211C1D"/>
</g>
<defs>
<filter id="filter0_d_123_1892" x="0" y="0" width="219" height="304" filterUnits="userSpaceOnUse" color-interpolation-filters="sRGB">
<feFlood flood-opacity="0" result="BackgroundImageFix"/>
<feColorMatrix in="SourceAlpha" type="matrix" values="0 0 0 0 0 0 0 0 0 0 0 0 0 0 0 0 0 0 127 0" result="hardAlpha"/>
<feOffset dy="4"/>
<feGaussianBlur stdDeviation="4"/>
<feComposite in2="hardAlpha" operator="out"/>
<feColorMatrix type="matrix" values="0 0 0 0 0.614771 0 0 0 0 0.70094 0 0 0 0 0.806257 0 0 0 1 0"/>
<feBlend mode="normal" in2="BackgroundImageFix" result="effect1_dropShadow_123_1892"/>
<feBlend mode="normal" in="SourceGraphic" in2="effect1_dropShadow_123_1892" result="shape"/>
</filter>
</defs>
</svg>
