<svg width="219" height="304" viewBox="0 0 219 304" fill="none" xmlns="http://www.w3.org/2000/svg">
<g filter="url(#filter0_d_123_1661)">
<rect x="8" y="4" width="203" height="288" rx="10" fill="white"/>
<path d="M81.5728 148.781C78.5698 148.781 76.5879 147.039 76.5879 144.276C76.5879 143.075 76.8882 141.934 77.3687 140.493L102.053 71.4854C103.554 67.2812 105.656 65.3594 109.5 65.3594C113.344 65.3594 115.446 67.2812 116.947 71.4854L141.631 140.493C142.112 141.814 142.412 143.075 142.412 144.216C142.412 147.039 140.43 148.781 137.367 148.781C134.484 148.781 132.863 147.399 131.722 143.856L124.815 123.376H94.125L87.2183 143.856C86.0771 147.459 84.4556 148.781 81.5728 148.781ZM96.9478 114.908H121.992L109.68 78.3921H109.26L96.9478 114.908Z" fill="#211C1D"/>
<path d="M105.097 232C104.445 232 103.916 231.478 103.916 230.834C103.916 228.674 107.795 220.604 108.57 214.288C108.654 213.608 107.658 213.356 107.292 213.937C105.295 217.108 102.571 221.545 95.9353 221.39L95.8064 221.394C95.7204 221.397 95.6344 221.4 95.5476 221.4C88.3414 221.4 82.5 215.062 82.5 207.245C82.5 199.427 88.3414 193.09 95.5476 193.09C96.9545 193.09 98.309 193.333 99.5784 193.78C99.8745 193.884 100.176 193.543 100.029 193.269C98.9047 191.178 98.2593 188.747 98.2593 186.151C98.2593 178.445 103.875 172 111 172C118.125 172 123.741 178.445 123.741 186.151C123.741 188.747 123.095 191.178 121.971 193.269C121.824 193.543 122.125 193.884 122.422 193.78C123.691 193.333 125.046 193.09 126.452 193.09C133.659 193.09 139.5 199.427 139.5 207.245C139.5 215.062 133.659 221.4 126.452 221.4C126.366 221.4 126.28 221.397 126.194 221.394L126.065 221.39C119.429 221.545 116.705 217.108 114.708 213.937C114.342 213.356 113.346 213.608 113.43 214.288C114.205 220.604 118.084 228.674 118.084 230.834C118.084 231.478 117.555 232 116.903 232H105.097Z" fill="#211C1D"/>
</g>
<defs>
<filter id="filter0_d_123_1661" x="0" y="0" width="219" height="304" filterUnits="userSpaceOnUse" color-interpolation-filters="sRGB">
<feFlood flood-opacity="0" result="BackgroundImageFix"/>
<feColorMatrix in="SourceAlpha" type="matrix" values="0 0 0 0 0 0 0 0 0 0 0 0 0 0 0 0 0 0 127 0" result="hardAlpha"/>
<feOffset dy="4"/>
<feGaussianBlur stdDeviation="4"/>
<feComposite in2="hardAlpha" operator="out"/>
<feColorMatrix type="matrix" values="0 0 0 0 0.614771 0 0 0 0 0.70094 0 0 0 0 0.806257 0 0 0 1 0"/>
<feBlend mode="normal" in2="BackgroundImageFix" result="effect1_dropShadow_123_1661"/>
<feBlend mode="normal" in="SourceGraphic" in2="effect1_dropShadow_123_1661" result="shape"/>
</filter>
</defs>
</svg>
