<svg width="219" height="304" viewBox="0 0 219 304" fill="none" xmlns="http://www.w3.org/2000/svg">
<g filter="url(#filter0_d_123_1840)">
<rect x="8" y="4" width="203" height="288" rx="10" fill="white"/>
<path d="M79.4361 158.601C76.193 158.601 74.211 156.378 74.211 152.835V81.1851C74.211 77.6416 76.193 75.4194 79.4361 75.4194C82.6793 75.4194 84.7213 77.6416 84.7213 81.1851V152.835C84.7213 156.378 82.6793 158.601 79.4361 158.601ZM87.7362 118.602V115.599C87.7362 90.7344 98.3666 74.2783 116.925 74.2783C135.483 74.2783 146.053 90.7344 146.053 115.599V118.602C146.053 143.406 135.423 159.742 116.865 159.742C98.3666 159.742 87.7362 143.466 87.7362 118.602ZM98.2465 115.659V118.481C98.2465 138.481 105.393 150.673 116.925 150.673C128.456 150.673 135.603 138.481 135.603 118.481V115.659C135.603 95.6592 128.396 83.4072 116.865 83.4072C105.393 83.4072 98.2465 95.6592 98.2465 115.659Z" fill="#211C1D"/>
<path d="M105.097 242C104.445 242 103.916 241.478 103.916 240.834C103.916 238.674 107.795 230.604 108.57 224.288C108.654 223.608 107.658 223.356 107.292 223.937C105.295 227.108 102.571 231.545 95.9353 231.39L95.8064 231.394C95.7204 231.397 95.6344 231.4 95.5476 231.4C88.3414 231.4 82.5 225.062 82.5 217.245C82.5 209.427 88.3414 203.09 95.5476 203.09C96.9545 203.09 98.309 203.333 99.5784 203.78C99.8745 203.884 100.176 203.543 100.029 203.269C98.9047 201.178 98.2593 198.747 98.2593 196.151C98.2593 188.445 103.875 182 111 182C118.125 182 123.741 188.445 123.741 196.151C123.741 198.747 123.095 201.178 121.971 203.269C121.824 203.543 122.125 203.884 122.422 203.78C123.691 203.333 125.046 203.09 126.452 203.09C133.659 203.09 139.5 209.427 139.5 217.245C139.5 225.062 133.659 231.4 126.452 231.4C126.366 231.4 126.28 231.397 126.194 231.394L126.065 231.39C119.429 231.545 116.705 227.108 114.708 223.937C114.342 223.356 113.346 223.608 113.43 224.288C114.205 230.604 118.084 238.674 118.084 240.834C118.084 241.478 117.555 242 116.903 242H105.097Z" fill="#211C1D"/>
</g>
<defs>
<filter id="filter0_d_123_1840" x="0" y="0" width="219" height="304" filterUnits="userSpaceOnUse" color-interpolation-filters="sRGB">
<feFlood flood-opacity="0" result="BackgroundImageFix"/>
<feColorMatrix in="SourceAlpha" type="matrix" values="0 0 0 0 0 0 0 0 0 0 0 0 0 0 0 0 0 0 127 0" result="hardAlpha"/>
<feOffset dy="4"/>
<feGaussianBlur stdDeviation="4"/>
<feComposite in2="hardAlpha" operator="out"/>
<feColorMatrix type="matrix" values="0 0 0 0 0.614771 0 0 0 0 0.70094 0 0 0 0 0.806257 0 0 0 1 0"/>
<feBlend mode="normal" in2="BackgroundImageFix" result="effect1_dropShadow_123_1840"/>
<feBlend mode="normal" in="SourceGraphic" in2="effect1_dropShadow_123_1840" result="shape"/>
</filter>
</defs>
</svg>
