<svg width="219" height="304" viewBox="0 0 219 304" fill="none" xmlns="http://www.w3.org/2000/svg">
<g filter="url(#filter0_d_123_1720)">
<rect x="8" y="4" width="203" height="288" rx="10" fill="white"/>
<path d="M81.334 141.664C81.334 138.661 83.0757 136.619 85.7183 136.619C87.7603 136.619 89.0815 137.7 90.6431 140.763C93.9463 147.189 99.4717 150.673 106.679 150.673C117.609 150.673 125.237 142.985 125.237 131.935C125.237 121.364 117.85 113.917 107.459 113.917C102.775 113.917 98.6309 115.479 95.1475 118.602C90.7632 122.686 89.562 123.406 87.6401 123.406C84.2168 123.406 82.4751 120.704 82.7754 116.079L85.418 82.4463C85.7783 78.002 88.3608 75.8999 93.5259 75.8999H127.219C130.702 75.8999 132.744 77.6416 132.744 80.5845C132.744 83.4673 130.762 85.0889 127.219 85.0889H94.8472L92.5649 111.815H93.1655C95.8682 107.791 102.895 104.908 109.802 104.908C125.057 104.908 135.807 115.839 135.807 131.394C135.807 147.97 123.855 159.742 107.099 159.742C91.2437 159.742 81.334 150.072 81.334 141.664Z" fill="#211C1D"/>
<path d="M105.097 242C104.445 242 103.916 241.478 103.916 240.834C103.916 238.674 107.795 230.604 108.57 224.288C108.654 223.608 107.658 223.356 107.292 223.937C105.295 227.108 102.571 231.545 95.9353 231.39L95.8064 231.394C95.7204 231.397 95.6344 231.4 95.5476 231.4C88.3414 231.4 82.5 225.062 82.5 217.245C82.5 209.427 88.3414 203.09 95.5476 203.09C96.9545 203.09 98.309 203.333 99.5784 203.78C99.8745 203.884 100.176 203.543 100.029 203.269C98.9047 201.178 98.2593 198.747 98.2593 196.151C98.2593 188.445 103.875 182 111 182C118.125 182 123.741 188.445 123.741 196.151C123.741 198.747 123.095 201.178 121.971 203.269C121.824 203.543 122.125 203.884 122.422 203.78C123.691 203.333 125.046 203.09 126.452 203.09C133.659 203.09 139.5 209.427 139.5 217.245C139.5 225.062 133.659 231.4 126.452 231.4C126.366 231.4 126.28 231.397 126.194 231.394L126.065 231.39C119.429 231.545 116.705 227.108 114.708 223.937C114.342 223.356 113.346 223.608 113.43 224.288C114.205 230.604 118.084 238.674 118.084 240.834C118.084 241.478 117.555 242 116.903 242H105.097Z" fill="#211C1D"/>
</g>
<defs>
<filter id="filter0_d_123_1720" x="0" y="0" width="219" height="304" filterUnits="userSpaceOnUse" color-interpolation-filters="sRGB">
<feFlood flood-opacity="0" result="BackgroundImageFix"/>
<feColorMatrix in="SourceAlpha" type="matrix" values="0 0 0 0 0 0 0 0 0 0 0 0 0 0 0 0 0 0 127 0" result="hardAlpha"/>
<feOffset dy="4"/>
<feGaussianBlur stdDeviation="4"/>
<feComposite in2="hardAlpha" operator="out"/>
<feColorMatrix type="matrix" values="0 0 0 0 0.614771 0 0 0 0 0.70094 0 0 0 0 0.806257 0 0 0 1 0"/>
<feBlend mode="normal" in2="BackgroundImageFix" result="effect1_dropShadow_123_1720"/>
<feBlend mode="normal" in="SourceGraphic" in2="effect1_dropShadow_123_1720" result="shape"/>
</filter>
</defs>
</svg>
