<svg width="219" height="304" viewBox="0 0 219 304" fill="none" xmlns="http://www.w3.org/2000/svg">
<g filter="url(#filter0_d_123_1786)">
<rect x="8" y="4" width="203" height="288" rx="10" fill="white"/>
<path d="M107.76 159.742C90.8232 159.742 79.0518 149.892 79.0518 135.718C79.0518 125.809 85.7183 117.46 95.6279 115.058V114.458C87.5801 111.815 82.2949 104.548 82.2949 96.1997C82.2949 83.5874 93.1055 74.2783 108 74.2783C122.895 74.2783 133.765 83.5874 133.765 96.1997C133.765 104.428 128.3 111.815 120.372 114.458V115.058C130.162 117.4 136.888 125.809 136.888 135.598C136.888 149.712 124.756 159.742 107.76 159.742ZM108 110.914C117.129 110.914 123.555 105.088 123.555 96.9204C123.555 88.8125 117.189 83.167 108 83.167C98.8711 83.167 92.4448 88.8726 92.4448 96.9204C92.4448 105.028 98.9312 110.914 108 110.914ZM108 150.973C118.871 150.973 126.678 144.427 126.678 135.298C126.678 126.169 118.871 119.502 108 119.502C97.1294 119.502 89.3218 126.109 89.3218 135.298C89.3218 144.427 97.1294 150.973 108 150.973Z" fill="#211C1D"/>
<path d="M105.097 242C104.445 242 103.916 241.478 103.916 240.834C103.916 238.674 107.795 230.604 108.57 224.288C108.654 223.608 107.658 223.356 107.292 223.937C105.295 227.108 102.571 231.545 95.9353 231.39L95.8064 231.394C95.7204 231.397 95.6344 231.4 95.5476 231.4C88.3414 231.4 82.5 225.062 82.5 217.245C82.5 209.427 88.3414 203.09 95.5476 203.09C96.9545 203.09 98.309 203.333 99.5784 203.78C99.8745 203.884 100.176 203.543 100.029 203.269C98.9047 201.178 98.2593 198.747 98.2593 196.151C98.2593 188.445 103.875 182 111 182C118.125 182 123.741 188.445 123.741 196.151C123.741 198.747 123.095 201.178 121.971 203.269C121.824 203.543 122.125 203.884 122.422 203.78C123.691 203.333 125.046 203.09 126.452 203.09C133.659 203.09 139.5 209.427 139.5 217.245C139.5 225.062 133.659 231.4 126.452 231.4C126.366 231.4 126.28 231.397 126.194 231.394L126.065 231.39C119.429 231.545 116.705 227.108 114.708 223.937C114.342 223.356 113.346 223.608 113.43 224.288C114.205 230.604 118.084 238.674 118.084 240.834C118.084 241.478 117.555 242 116.903 242H105.097Z" fill="#211C1D"/>
</g>
<defs>
<filter id="filter0_d_123_1786" x="0" y="0" width="219" height="304" filterUnits="userSpaceOnUse" color-interpolation-filters="sRGB">
<feFlood flood-opacity="0" result="BackgroundImageFix"/>
<feColorMatrix in="SourceAlpha" type="matrix" values="0 0 0 0 0 0 0 0 0 0 0 0 0 0 0 0 0 0 127 0" result="hardAlpha"/>
<feOffset dy="4"/>
<feGaussianBlur stdDeviation="4"/>
<feComposite in2="hardAlpha" operator="out"/>
<feColorMatrix type="matrix" values="0 0 0 0 0.614771 0 0 0 0 0.70094 0 0 0 0 0.806257 0 0 0 1 0"/>
<feBlend mode="normal" in2="BackgroundImageFix" result="effect1_dropShadow_123_1786"/>
<feBlend mode="normal" in="SourceGraphic" in2="effect1_dropShadow_123_1786" result="shape"/>
</filter>
</defs>
</svg>
