<svg width="615" height="362" viewBox="0 0 615 362" fill="none" xmlns="http://www.w3.org/2000/svg">
<rect x="0.5" y="0.5" width="614" height="361" rx="4.5" stroke="#9747FF" stroke-dasharray="10 5"/>
<path d="M28.1909 60.2603C27.1899 60.2603 26.5293 59.6797 26.5293 58.7588C26.5293 58.3584 26.6294 57.978 26.7896 57.4976L35.0176 34.4951C35.5181 33.0938 36.2188 32.4531 37.5 32.4531C38.7812 32.4531 39.4819 33.0938 39.9824 34.4951L48.2104 57.4976C48.3706 57.938 48.4707 58.3584 48.4707 58.7388C48.4707 59.6797 47.8101 60.2603 46.7891 60.2603C45.8281 60.2603 45.2876 59.7998 44.9072 58.6187L42.605 51.792H32.375L30.0728 58.6187C29.6924 59.8198 29.1519 60.2603 28.1909 60.2603ZM33.3159 48.9692H41.6641L37.5601 36.7974H37.4199L33.3159 48.9692Z" fill="#BC1E24"/>
<path d="M38.1801 68.104C38.1038 67.9653 37.8962 67.9653 37.8199 68.104C35.5263 72.2724 33.8722 74.4782 30.5553 77.8648C30.4816 77.9401 30.4816 78.0599 30.5553 78.1352C33.8722 81.5218 35.5263 83.7276 37.8199 87.896C37.8962 88.0347 38.1038 88.0347 38.1801 87.896C40.4737 83.7276 42.1278 81.5218 45.4447 78.1352C45.5184 78.0599 45.5184 77.9401 45.4447 77.8648C42.1278 74.4782 40.4737 72.2724 38.1801 68.104Z" fill="#BC1E24"/>
<path d="M74.2319 58.1382C74.2319 57.4175 74.5723 56.8569 75.7534 55.5156L84.0815 45.9863C86.3438 43.4038 87.2046 41.7222 87.2046 39.8403C87.2046 37.0176 85.1826 35.1357 82.1396 35.1357C79.5571 35.1357 77.6553 36.6772 77.0547 39.2798C76.7744 40.3408 76.2139 40.8813 75.3931 40.8813C74.4121 40.8813 73.7715 40.1406 73.7715 39.0596C73.7715 35.6562 77.0747 32.0928 82.3599 32.0928C87.2847 32.0928 90.748 35.2158 90.748 39.6201C90.748 42.2227 89.7271 44.1245 86.1235 48.2285L78.7163 56.6968V56.937H89.8271C90.8882 56.937 91.5688 57.5176 91.5688 58.4785C91.5688 59.4194 90.9282 60 89.8271 60H76.6143C75.1528 60 74.2319 59.2993 74.2319 58.1382Z" fill="#BC1E24"/>
<path d="M83.1801 68.104C83.1038 67.9653 82.8962 67.9653 82.8199 68.104C80.5263 72.2724 78.8722 74.4782 75.5553 77.8648C75.4816 77.9401 75.4816 78.0599 75.5553 78.1352C78.8722 81.5218 80.5263 83.7276 82.8199 87.896C82.8962 88.0347 83.1038 88.0347 83.1801 87.896C85.4737 83.7276 87.1278 81.5218 90.4447 78.1352C90.5184 78.0599 90.5184 77.9401 90.4447 77.8648C87.1278 74.4782 85.4737 72.2724 83.1801 68.104Z" fill="#BC1E24"/>
<path d="M118.311 54.3945C118.311 53.4937 118.932 52.853 119.812 52.853C120.513 52.853 120.954 53.2134 121.474 54.2344C122.515 56.3765 124.597 57.5776 127.32 57.5776C130.903 57.5776 133.186 55.6157 133.186 52.5527C133.186 49.4897 130.843 47.4277 127.36 47.4277H124.857C123.937 47.4277 123.256 46.7671 123.256 45.9062C123.256 45.0254 123.896 44.4048 124.857 44.4048H127.22C130.143 44.4048 132.265 42.4229 132.265 39.6802C132.265 36.9375 130.203 35.0957 127.14 35.0957C124.757 35.0957 122.956 36.2769 122.155 38.3389C121.754 39.4399 121.254 39.8604 120.473 39.8604C119.552 39.8604 118.952 39.1997 118.952 38.1987C118.952 35.0957 122.295 32.0928 127.22 32.0928C132.225 32.0928 135.788 35.0757 135.788 39.2397C135.788 42.2627 133.526 45.1455 130.743 45.626V45.8262C134.126 46.2065 136.709 49.1694 136.709 52.6128C136.709 57.2974 132.825 60.5806 127.26 60.5806C122.095 60.5806 118.311 57.4575 118.311 54.3945Z" fill="#BC1E24"/>
<path d="M128.18 68.104C128.104 67.9653 127.896 67.9653 127.82 68.104C125.526 72.2724 123.872 74.4782 120.555 77.8648C120.482 77.9401 120.482 78.0599 120.555 78.1352C123.872 81.5218 125.526 83.7276 127.82 87.896C127.896 88.0347 128.104 88.0347 128.18 87.896C130.474 83.7276 132.128 81.5218 135.445 78.1352C135.518 78.0599 135.518 77.9401 135.445 77.8648C132.128 74.4782 130.474 72.2724 128.18 68.104Z" fill="#BC1E24"/>
<path d="M175.463 58.3784V54.3145H164.933C163.372 54.3145 162.331 53.4937 162.331 52.1724C162.331 51.4316 162.571 50.731 163.271 49.4497C166.134 44.3848 167.936 41.502 172.48 34.6953C173.662 32.9536 174.583 32.353 175.964 32.353C177.786 32.353 178.807 33.394 178.807 35.2559V51.2515H180.889C182.01 51.2515 182.67 51.812 182.67 52.793C182.67 53.7539 182.03 54.3145 180.889 54.3145H178.807V58.3784C178.807 59.5396 178.206 60.2002 177.125 60.2002C176.064 60.2002 175.463 59.5396 175.463 58.3784ZM165.694 51.2515H175.463V35.7563H175.283C171.88 40.7812 168.316 46.5068 165.694 51.0513V51.2515Z" fill="#BC1E24"/>
<path d="M173.18 68.104C173.104 67.9653 172.896 67.9653 172.82 68.104C170.526 72.2724 168.872 74.4782 165.555 77.8648C165.482 77.9401 165.482 78.0599 165.555 78.1352C168.872 81.5218 170.526 83.7276 172.82 87.896C172.896 88.0347 173.104 88.0347 173.18 87.896C175.474 83.7276 177.128 81.5218 180.445 78.1352C180.518 78.0599 180.518 77.9401 180.445 77.8648C177.128 74.4782 175.474 72.2724 173.18 68.104Z" fill="#BC1E24"/>
<path d="M208.111 54.5547C208.111 53.5537 208.692 52.873 209.573 52.873C210.253 52.873 210.694 53.2334 211.214 54.2544C212.315 56.3965 214.157 57.5576 216.56 57.5576C220.203 57.5576 222.746 54.9951 222.746 51.3115C222.746 47.7881 220.283 45.3057 216.82 45.3057C215.258 45.3057 213.877 45.8262 212.716 46.8672C211.254 48.2285 210.854 48.4688 210.213 48.4688C209.072 48.4688 208.492 47.5679 208.592 46.0264L209.473 34.8154C209.593 33.334 210.454 32.6333 212.175 32.6333H223.406C224.567 32.6333 225.248 33.2139 225.248 34.1948C225.248 35.1558 224.587 35.6963 223.406 35.6963H212.616L211.855 44.605H212.055C212.956 43.2637 215.298 42.3027 217.601 42.3027C222.686 42.3027 226.269 45.9463 226.269 51.1313C226.269 56.6567 222.285 60.5806 216.7 60.5806C211.415 60.5806 208.111 57.3574 208.111 54.5547Z" fill="#BC1E24"/>
<path d="M218.18 68.104C218.104 67.9653 217.896 67.9653 217.82 68.104C215.526 72.2724 213.872 74.4782 210.555 77.8648C210.482 77.9401 210.482 78.0599 210.555 78.1352C213.872 81.5218 215.526 83.7276 217.82 87.896C217.896 88.0347 218.104 88.0347 218.18 87.896C220.474 83.7276 222.128 81.5218 225.445 78.1352C225.518 78.0599 225.518 77.9401 225.445 77.8648C222.128 74.4782 220.474 72.2724 218.18 68.104Z" fill="#BC1E24"/>
<path d="M253.031 47.1274C253.031 37.498 256.734 32.1528 263.381 32.1528C265.523 32.1528 267.585 32.7334 269.106 33.7744C270.428 34.6353 271.229 35.7363 271.229 36.6572C271.229 37.5181 270.608 38.1587 269.747 38.1587C269.187 38.1587 268.766 37.9385 268.045 37.2378C266.604 35.8164 265.103 35.1758 263.321 35.1758C258.856 35.1758 256.494 39.0996 256.434 46.5869H256.594C257.515 44.1445 260.378 42.4229 263.501 42.4229C268.586 42.4229 272.149 46.0864 272.149 51.3115C272.149 56.8169 268.386 60.5605 262.82 60.5605C259.437 60.5605 256.734 59.1592 255.093 56.5767C253.711 54.3745 253.031 51.2715 253.031 47.1274ZM256.935 51.4316C256.935 55.0151 259.417 57.5576 262.96 57.5576C266.404 57.5576 268.706 55.1353 268.706 51.4517C268.706 47.8081 266.384 45.4058 262.82 45.4058C259.357 45.4058 256.935 47.8882 256.935 51.4316Z" fill="#BC1E24"/>
<path d="M263.18 68.104C263.104 67.9653 262.896 67.9653 262.82 68.104C260.526 72.2724 258.872 74.4782 255.555 77.8648C255.482 77.9401 255.482 78.0599 255.555 78.1352C258.872 81.5218 260.526 83.7276 262.82 87.896C262.896 88.0347 263.104 88.0347 263.18 87.896C265.474 83.7276 267.128 81.5218 270.445 78.1352C270.518 78.0599 270.518 77.9401 270.445 77.8648C267.128 74.4782 265.474 72.2724 263.18 68.104Z" fill="#BC1E24"/>
<path d="M301.535 58.7588C301.535 58.3184 301.675 57.938 301.895 57.4976L312.005 35.9365V35.7363H299.593C298.352 35.7363 297.751 35.0957 297.751 34.2148C297.751 33.314 298.352 32.6733 299.593 32.6733H313.847C314.888 32.6733 315.749 33.394 315.749 34.5752C315.749 35.1357 315.468 36.0566 315.028 36.9976L304.818 59.0391C304.438 59.8398 303.957 60.3203 303.116 60.3203C302.295 60.3203 301.535 59.6997 301.535 58.7588Z" fill="#BC1E24"/>
<path d="M308.18 68.104C308.104 67.9653 307.896 67.9653 307.82 68.104C305.526 72.2724 303.872 74.4782 300.555 77.8648C300.482 77.9401 300.482 78.0599 300.555 78.1352C303.872 81.5218 305.526 83.7276 307.82 87.896C307.896 88.0347 308.104 88.0347 308.18 87.896C310.474 83.7276 312.128 81.5218 315.445 78.1352C315.518 78.0599 315.518 77.9401 315.445 77.8648C312.128 74.4782 310.474 72.2724 308.18 68.104Z" fill="#BC1E24"/>
<path d="M351.92 60.5806C346.274 60.5806 342.351 57.2974 342.351 52.5728C342.351 49.2695 344.573 46.4868 347.876 45.686V45.4858C345.193 44.605 343.432 42.1826 343.432 39.3999C343.432 35.1958 347.035 32.0928 352 32.0928C356.965 32.0928 360.588 35.1958 360.588 39.3999C360.588 42.1426 358.767 44.605 356.124 45.4858V45.686C359.387 46.4668 361.629 49.2695 361.629 52.5327C361.629 57.2373 357.585 60.5806 351.92 60.5806ZM352 44.3047C355.043 44.3047 357.185 42.3628 357.185 39.6401C357.185 36.9375 355.063 35.0557 352 35.0557C348.957 35.0557 346.815 36.9575 346.815 39.6401C346.815 42.3428 348.977 44.3047 352 44.3047ZM352 57.6577C355.624 57.6577 358.226 55.4756 358.226 52.4326C358.226 49.3896 355.624 47.1675 352 47.1675C348.376 47.1675 345.774 49.3696 345.774 52.4326C345.774 55.4756 348.376 57.6577 352 57.6577Z" fill="#BC1E24"/>
<path d="M353.18 68.104C353.104 67.9653 352.896 67.9653 352.82 68.104C350.526 72.2724 348.872 74.4782 345.555 77.8648C345.482 77.9401 345.482 78.0599 345.555 78.1352C348.872 81.5218 350.526 83.7276 352.82 87.896C352.896 88.0347 353.104 88.0347 353.18 87.896C355.474 83.7276 357.128 81.5218 360.445 78.1352C360.518 78.0599 360.518 77.9401 360.445 77.8648C357.128 74.4782 355.474 72.2724 353.18 68.104Z" fill="#BC1E24"/>
<path d="M388.952 55.936C388.952 55.0352 389.572 54.4546 390.433 54.4546C390.974 54.4546 391.394 54.6948 392.135 55.4155C393.596 56.8569 395.078 57.5176 396.919 57.5176C401.444 57.5176 403.746 53.3735 403.746 46.1665H403.566C402.565 48.8691 400.002 50.4907 396.739 50.4907C391.614 50.4907 388.051 46.7271 388.051 41.3218C388.051 35.7563 391.834 32.0527 397.52 32.0527C403.786 32.0527 407.129 36.9375 407.129 46.0063C407.129 55.5557 403.666 60.5205 396.979 60.5205C394.777 60.5205 392.695 59.96 391.134 58.939C389.792 58.0581 388.952 56.937 388.952 55.936ZM403.146 41.4019C403.146 37.6582 400.783 35.0957 397.32 35.0957C393.876 35.0957 391.514 37.6582 391.514 41.3818C391.514 45.0254 393.836 47.4678 397.32 47.4678C400.823 47.4678 403.146 45.0454 403.146 41.4019Z" fill="#BC1E24"/>
<path d="M398.18 68.104C398.104 67.9653 397.896 67.9653 397.82 68.104C395.526 72.2724 393.872 74.4782 390.555 77.8648C390.482 77.9401 390.482 78.0599 390.555 78.1352C393.872 81.5218 395.526 83.7276 397.82 87.896C397.896 88.0347 398.104 88.0347 398.18 87.896C400.474 83.7276 402.128 81.5218 405.445 78.1352C405.518 78.0599 405.518 77.9401 405.445 77.8648C402.128 74.4782 400.474 72.2724 398.18 68.104Z" fill="#BC1E24"/>
<path d="M432.479 60.2002C431.398 60.2002 430.737 59.4595 430.737 58.2783V34.395C430.737 33.2139 431.398 32.4731 432.479 32.4731C433.56 32.4731 434.24 33.2139 434.24 34.395V58.2783C434.24 59.4595 433.56 60.2002 432.479 60.2002ZM435.245 46.8672V45.8662C435.245 37.5781 438.789 32.0928 444.975 32.0928C451.161 32.0928 454.684 37.5781 454.684 45.8662V46.8672C454.684 55.1353 451.141 60.5806 444.955 60.5806C438.789 60.5806 435.245 55.1553 435.245 46.8672ZM438.749 45.8862V46.8271C438.749 53.4937 441.131 57.5576 444.975 57.5576C448.819 57.5576 451.201 53.4937 451.201 46.8271V45.8862C451.201 39.2197 448.799 35.1357 444.955 35.1357C441.131 35.1357 438.749 39.2197 438.749 45.8862Z" fill="#BC1E24"/>
<path d="M443.18 68.104C443.104 67.9653 442.896 67.9653 442.82 68.104C440.526 72.2724 438.872 74.4782 435.555 77.8648C435.482 77.9401 435.482 78.0599 435.555 78.1352C438.872 81.5218 440.526 83.7276 442.82 87.896C442.896 88.0347 443.104 88.0347 443.18 87.896C445.474 83.7276 447.128 81.5218 450.445 78.1352C450.518 78.0599 450.518 77.9401 450.445 77.8648C447.128 74.4782 445.474 72.2724 443.18 68.104Z" fill="#BC1E24"/>
<path d="M489.923 34.415C489.923 33.2139 490.583 32.4731 491.665 32.4731C492.746 32.4731 493.426 33.2139 493.426 34.415V52.1924C493.426 57.3774 490.423 60.5806 485.599 60.5806C482.996 60.5806 480.934 59.7998 479.513 58.3184C478.592 57.3574 478.031 56.1562 478.031 55.0752C478.031 54.0342 478.592 53.3936 479.493 53.3936C480.193 53.3936 480.574 53.7339 481.094 54.7549C481.955 56.5166 483.437 57.4375 485.458 57.4375C488.281 57.4375 489.923 55.5757 489.923 52.3325V34.415Z" fill="#BC1E24"/>
<path d="M488.18 68.104C488.104 67.9653 487.896 67.9653 487.82 68.104C485.526 72.2724 483.872 74.4782 480.555 77.8648C480.482 77.9401 480.482 78.0599 480.555 78.1352C483.872 81.5218 485.526 83.7276 487.82 87.896C487.896 88.0347 488.104 88.0347 488.18 87.896C490.474 83.7276 492.128 81.5218 495.445 78.1352C495.518 78.0599 495.518 77.9401 495.445 77.8648C492.128 74.4782 490.474 72.2724 488.18 68.104Z" fill="#BC1E24"/>
<path d="M540.808 63.0229C540.027 63.0229 539.487 62.6626 538.806 61.7417L537.265 59.6196C535.883 60.2402 534.302 60.5806 532.5 60.5806C525.593 60.5806 521.569 55.9961 521.569 48.4888V44.4648C521.569 36.8374 525.773 32.0928 532.5 32.0928C539.126 32.0928 543.451 36.8374 543.451 44.4648V48.4888C543.451 52.7729 542.189 55.856 539.987 57.8379L541.489 59.8999C542.029 60.6606 542.229 61.041 542.229 61.5415C542.229 62.3022 541.689 63.0229 540.808 63.0229ZM525.053 48.5288C525.053 54.1143 527.916 57.4775 532.48 57.4775C533.481 57.4775 534.442 57.2974 535.323 56.937L534.162 55.3755C533.721 54.7749 533.381 54.2344 533.381 53.6538C533.381 52.793 534.042 52.1323 534.902 52.1323C535.443 52.1323 535.983 52.4326 536.604 53.2935L537.905 55.0952C539.167 53.6138 539.947 51.7119 539.947 48.5288V44.4648C539.947 38.7593 536.724 35.2358 532.5 35.2358C527.916 35.2358 525.053 38.7593 525.053 44.4648V48.5288Z" fill="#BC1E24"/>
<path d="M533.18 68.104C533.104 67.9653 532.896 67.9653 532.82 68.104C530.526 72.2724 528.872 74.4782 525.555 77.8648C525.482 77.9401 525.482 78.0599 525.555 78.1352C528.872 81.5218 530.526 83.7276 532.82 87.896C532.896 88.0347 533.104 88.0347 533.18 87.896C535.474 83.7276 537.128 81.5218 540.445 78.1352C540.518 78.0599 540.518 77.9401 540.445 77.8648C537.128 74.4782 535.474 72.2724 533.18 68.104Z" fill="#BC1E24"/>
<path d="M585.749 60.0601C585.048 60.0601 584.447 59.6597 583.747 58.6787L575.358 46.8071L571.915 50.3706V58.2783C571.915 59.4595 571.234 60.2002 570.153 60.2002C569.072 60.2002 568.412 59.4595 568.412 58.2783V34.395C568.412 33.2139 569.072 32.4731 570.153 32.4731C571.234 32.4731 571.915 33.2139 571.915 34.395V45.8462H572.075L583.466 33.6943C584.207 32.8735 584.667 32.6133 585.248 32.6133C586.129 32.6133 586.79 33.2939 586.79 34.1348C586.79 34.6553 586.629 34.9556 585.829 35.7964L577.961 44.4048L586.529 56.2964C587.37 57.4575 587.55 57.8179 587.55 58.3384C587.55 59.3594 586.81 60.0601 585.749 60.0601Z" fill="#BC1E24"/>
<path d="M578.18 68.104C578.104 67.9653 577.896 67.9653 577.82 68.104C575.526 72.2724 573.872 74.4782 570.555 77.8648C570.482 77.9401 570.482 78.0599 570.555 78.1352C573.872 81.5218 575.526 83.7276 577.82 87.896C577.896 88.0347 578.104 88.0347 578.18 87.896C580.474 83.7276 582.128 81.5218 585.445 78.1352C585.518 78.0599 585.518 77.9401 585.445 77.8648C582.128 74.4782 580.474 72.2724 578.18 68.104Z" fill="#BC1E24"/>
<path d="M28.1909 143.26C27.1899 143.26 26.5293 142.68 26.5293 141.759C26.5293 141.358 26.6294 140.978 26.7896 140.498L35.0176 117.495C35.5181 116.094 36.2188 115.453 37.5 115.453C38.7812 115.453 39.4819 116.094 39.9824 117.495L48.2104 140.498C48.3706 140.938 48.4707 141.358 48.4707 141.739C48.4707 142.68 47.8101 143.26 46.7891 143.26C45.8281 143.26 45.2876 142.8 44.9072 141.619L42.605 134.792H32.375L30.0728 141.619C29.6924 142.82 29.1519 143.26 28.1909 143.26ZM33.3159 131.969H41.6641L37.5601 119.797H37.4199L33.3159 131.969Z" fill="#BC1E24"/>
<path d="M33.7347 152.001C36.4518 152.042 37.5069 154.398 37.8537 155.509C37.8888 155.622 38.1122 155.622 38.1472 155.509C38.4938 154.398 39.5482 152.042 42.2653 152.001C45.8229 151.946 48.4995 155.929 46.0587 159.929C43.8832 163.494 38.0821 170 38 170C37.9165 170 32.1169 163.494 29.9413 159.929C27.5005 155.929 30.177 151.946 33.7347 152.001Z" fill="#BC1E24"/>
<path d="M74.2319 141.138C74.2319 140.417 74.5723 139.857 75.7534 138.516L84.0815 128.986C86.3438 126.404 87.2046 124.722 87.2046 122.84C87.2046 120.018 85.1826 118.136 82.1396 118.136C79.5571 118.136 77.6553 119.677 77.0547 122.28C76.7744 123.341 76.2139 123.881 75.3931 123.881C74.4121 123.881 73.7715 123.141 73.7715 122.06C73.7715 118.656 77.0747 115.093 82.3599 115.093C87.2847 115.093 90.748 118.216 90.748 122.62C90.748 125.223 89.7271 127.125 86.1235 131.229L78.7163 139.697V139.937H89.8271C90.8882 139.937 91.5688 140.518 91.5688 141.479C91.5688 142.419 90.9282 143 89.8271 143H76.6143C75.1528 143 74.2319 142.299 74.2319 141.138Z" fill="#BC1E24"/>
<path d="M78.7347 152.001C81.4518 152.042 82.5069 154.398 82.8537 155.509C82.8888 155.622 83.1122 155.622 83.1472 155.509C83.4938 154.398 84.5482 152.042 87.2653 152.001C90.8229 151.946 93.4995 155.929 91.0587 159.929C88.8832 163.494 83.0821 170 83 170C82.9165 170 77.1169 163.494 74.9413 159.929C72.5005 155.929 75.177 151.946 78.7347 152.001Z" fill="#BC1E24"/>
<path d="M118.311 137.395C118.311 136.494 118.932 135.853 119.812 135.853C120.513 135.853 120.954 136.213 121.474 137.234C122.515 139.376 124.597 140.578 127.32 140.578C130.903 140.578 133.186 138.616 133.186 135.553C133.186 132.49 130.843 130.428 127.36 130.428H124.857C123.937 130.428 123.256 129.767 123.256 128.906C123.256 128.025 123.896 127.405 124.857 127.405H127.22C130.143 127.405 132.265 125.423 132.265 122.68C132.265 119.938 130.203 118.096 127.14 118.096C124.757 118.096 122.956 119.277 122.155 121.339C121.754 122.44 121.254 122.86 120.473 122.86C119.552 122.86 118.952 122.2 118.952 121.199C118.952 118.096 122.295 115.093 127.22 115.093C132.225 115.093 135.788 118.076 135.788 122.24C135.788 125.263 133.526 128.146 130.743 128.626V128.826C134.126 129.207 136.709 132.169 136.709 135.613C136.709 140.297 132.825 143.581 127.26 143.581C122.095 143.581 118.311 140.458 118.311 137.395Z" fill="#BC1E24"/>
<path d="M123.735 152.001C126.452 152.042 127.507 154.398 127.854 155.509C127.889 155.622 128.112 155.622 128.147 155.509C128.494 154.398 129.548 152.042 132.265 152.001C135.823 151.946 138.499 155.929 136.059 159.929C133.883 163.494 128.082 170 128 170C127.917 170 122.117 163.494 119.941 159.929C117.501 155.929 120.177 151.946 123.735 152.001Z" fill="#BC1E24"/>
<path d="M175.463 141.378V137.314H164.933C163.372 137.314 162.331 136.494 162.331 135.172C162.331 134.432 162.571 133.731 163.271 132.45C166.134 127.385 167.936 124.502 172.48 117.695C173.662 115.954 174.583 115.353 175.964 115.353C177.786 115.353 178.807 116.394 178.807 118.256V134.251H180.889C182.01 134.251 182.67 134.812 182.67 135.793C182.67 136.754 182.03 137.314 180.889 137.314H178.807V141.378C178.807 142.54 178.206 143.2 177.125 143.2C176.064 143.2 175.463 142.54 175.463 141.378ZM165.694 134.251H175.463V118.756H175.283C171.88 123.781 168.316 129.507 165.694 134.051V134.251Z" fill="#BC1E24"/>
<path d="M168.735 152.001C171.452 152.042 172.507 154.398 172.854 155.509C172.889 155.622 173.112 155.622 173.147 155.509C173.494 154.398 174.548 152.042 177.265 152.001C180.823 151.946 183.499 155.929 181.059 159.929C178.883 163.494 173.082 170 173 170C172.917 170 167.117 163.494 164.941 159.929C162.501 155.929 165.177 151.946 168.735 152.001Z" fill="#BC1E24"/>
<path d="M208.111 137.555C208.111 136.554 208.692 135.873 209.573 135.873C210.253 135.873 210.694 136.233 211.214 137.254C212.315 139.396 214.157 140.558 216.56 140.558C220.203 140.558 222.746 137.995 222.746 134.312C222.746 130.788 220.283 128.306 216.82 128.306C215.258 128.306 213.877 128.826 212.716 129.867C211.254 131.229 210.854 131.469 210.213 131.469C209.072 131.469 208.492 130.568 208.592 129.026L209.473 117.815C209.593 116.334 210.454 115.633 212.175 115.633H223.406C224.567 115.633 225.248 116.214 225.248 117.195C225.248 118.156 224.587 118.696 223.406 118.696H212.616L211.855 127.605H212.055C212.956 126.264 215.298 125.303 217.601 125.303C222.686 125.303 226.269 128.946 226.269 134.131C226.269 139.657 222.285 143.581 216.7 143.581C211.415 143.581 208.111 140.357 208.111 137.555Z" fill="#BC1E24"/>
<path d="M213.735 152.001C216.452 152.042 217.507 154.398 217.854 155.509C217.889 155.622 218.112 155.622 218.147 155.509C218.494 154.398 219.548 152.042 222.265 152.001C225.823 151.946 228.499 155.929 226.059 159.929C223.883 163.494 218.082 170 218 170C217.917 170 212.117 163.494 209.941 159.929C207.501 155.929 210.177 151.946 213.735 152.001Z" fill="#BC1E24"/>
<path d="M253.031 130.127C253.031 120.498 256.734 115.153 263.381 115.153C265.523 115.153 267.585 115.733 269.106 116.774C270.428 117.635 271.229 118.736 271.229 119.657C271.229 120.518 270.608 121.159 269.747 121.159C269.187 121.159 268.766 120.938 268.045 120.238C266.604 118.816 265.103 118.176 263.321 118.176C258.856 118.176 256.494 122.1 256.434 129.587H256.594C257.515 127.145 260.378 125.423 263.501 125.423C268.586 125.423 272.149 129.086 272.149 134.312C272.149 139.817 268.386 143.561 262.82 143.561C259.437 143.561 256.734 142.159 255.093 139.577C253.711 137.375 253.031 134.271 253.031 130.127ZM256.935 134.432C256.935 138.015 259.417 140.558 262.96 140.558C266.404 140.558 268.706 138.135 268.706 134.452C268.706 130.808 266.384 128.406 262.82 128.406C259.357 128.406 256.935 130.888 256.935 134.432Z" fill="#BC1E24"/>
<path d="M258.735 152.001C261.452 152.042 262.507 154.398 262.854 155.509C262.889 155.622 263.112 155.622 263.147 155.509C263.494 154.398 264.548 152.042 267.265 152.001C270.823 151.946 273.499 155.929 271.059 159.929C268.883 163.494 263.082 170 263 170C262.917 170 257.117 163.494 254.941 159.929C252.501 155.929 255.177 151.946 258.735 152.001Z" fill="#BC1E24"/>
<path d="M301.535 141.759C301.535 141.318 301.675 140.938 301.895 140.498L312.005 118.937V118.736H299.593C298.352 118.736 297.751 118.096 297.751 117.215C297.751 116.314 298.352 115.673 299.593 115.673H313.847C314.888 115.673 315.749 116.394 315.749 117.575C315.749 118.136 315.468 119.057 315.028 119.998L304.818 142.039C304.438 142.84 303.957 143.32 303.116 143.32C302.295 143.32 301.535 142.7 301.535 141.759Z" fill="#BC1E24"/>
<path d="M303.735 152.001C306.452 152.042 307.507 154.398 307.854 155.509C307.889 155.622 308.112 155.622 308.147 155.509C308.494 154.398 309.548 152.042 312.265 152.001C315.823 151.946 318.499 155.929 316.059 159.929C313.883 163.494 308.082 170 308 170C307.917 170 302.117 163.494 299.941 159.929C297.501 155.929 300.177 151.946 303.735 152.001Z" fill="#BC1E24"/>
<path d="M351.92 143.581C346.274 143.581 342.351 140.297 342.351 135.573C342.351 132.27 344.573 129.487 347.876 128.686V128.486C345.193 127.605 343.432 125.183 343.432 122.4C343.432 118.196 347.035 115.093 352 115.093C356.965 115.093 360.588 118.196 360.588 122.4C360.588 125.143 358.767 127.605 356.124 128.486V128.686C359.387 129.467 361.629 132.27 361.629 135.533C361.629 140.237 357.585 143.581 351.92 143.581ZM352 127.305C355.043 127.305 357.185 125.363 357.185 122.64C357.185 119.938 355.063 118.056 352 118.056C348.957 118.056 346.815 119.958 346.815 122.64C346.815 125.343 348.977 127.305 352 127.305ZM352 140.658C355.624 140.658 358.226 138.476 358.226 135.433C358.226 132.39 355.624 130.167 352 130.167C348.376 130.167 345.774 132.37 345.774 135.433C345.774 138.476 348.376 140.658 352 140.658Z" fill="#BC1E24"/>
<path d="M348.735 152.001C351.452 152.042 352.507 154.398 352.854 155.509C352.889 155.622 353.112 155.622 353.147 155.509C353.494 154.398 354.548 152.042 357.265 152.001C360.823 151.946 363.499 155.929 361.059 159.929C358.883 163.494 353.082 170 353 170C352.917 170 347.117 163.494 344.941 159.929C342.501 155.929 345.177 151.946 348.735 152.001Z" fill="#BC1E24"/>
<path d="M388.952 138.936C388.952 138.035 389.572 137.455 390.433 137.455C390.974 137.455 391.394 137.695 392.135 138.416C393.596 139.857 395.078 140.518 396.919 140.518C401.444 140.518 403.746 136.374 403.746 129.167H403.566C402.565 131.869 400.002 133.491 396.739 133.491C391.614 133.491 388.051 129.727 388.051 124.322C388.051 118.756 391.834 115.053 397.52 115.053C403.786 115.053 407.129 119.938 407.129 129.006C407.129 138.556 403.666 143.521 396.979 143.521C394.777 143.521 392.695 142.96 391.134 141.939C389.792 141.058 388.952 139.937 388.952 138.936ZM403.146 124.402C403.146 120.658 400.783 118.096 397.32 118.096C393.876 118.096 391.514 120.658 391.514 124.382C391.514 128.025 393.836 130.468 397.32 130.468C400.823 130.468 403.146 128.045 403.146 124.402Z" fill="#BC1E24"/>
<path d="M393.735 152.001C396.452 152.042 397.507 154.398 397.854 155.509C397.889 155.622 398.112 155.622 398.147 155.509C398.494 154.398 399.548 152.042 402.265 152.001C405.823 151.946 408.499 155.929 406.059 159.929C403.883 163.494 398.082 170 398 170C397.917 170 392.117 163.494 389.941 159.929C387.501 155.929 390.177 151.946 393.735 152.001Z" fill="#BC1E24"/>
<path d="M432.479 143.2C431.398 143.2 430.737 142.459 430.737 141.278V117.395C430.737 116.214 431.398 115.473 432.479 115.473C433.56 115.473 434.24 116.214 434.24 117.395V141.278C434.24 142.459 433.56 143.2 432.479 143.2ZM435.245 129.867V128.866C435.245 120.578 438.789 115.093 444.975 115.093C451.161 115.093 454.684 120.578 454.684 128.866V129.867C454.684 138.135 451.141 143.581 444.955 143.581C438.789 143.581 435.245 138.155 435.245 129.867ZM438.749 128.886V129.827C438.749 136.494 441.131 140.558 444.975 140.558C448.819 140.558 451.201 136.494 451.201 129.827V128.886C451.201 122.22 448.799 118.136 444.955 118.136C441.131 118.136 438.749 122.22 438.749 128.886Z" fill="#BC1E24"/>
<path d="M438.735 152.001C441.452 152.042 442.507 154.398 442.854 155.509C442.889 155.622 443.112 155.622 443.147 155.509C443.494 154.398 444.548 152.042 447.265 152.001C450.823 151.946 453.499 155.929 451.059 159.929C448.883 163.494 443.082 170 443 170C442.917 170 437.117 163.494 434.941 159.929C432.501 155.929 435.177 151.946 438.735 152.001Z" fill="#BC1E24"/>
<path d="M489.923 117.415C489.923 116.214 490.583 115.473 491.665 115.473C492.746 115.473 493.426 116.214 493.426 117.415V135.192C493.426 140.377 490.423 143.581 485.599 143.581C482.996 143.581 480.934 142.8 479.513 141.318C478.592 140.357 478.031 139.156 478.031 138.075C478.031 137.034 478.592 136.394 479.493 136.394C480.193 136.394 480.574 136.734 481.094 137.755C481.955 139.517 483.437 140.438 485.458 140.438C488.281 140.438 489.923 138.576 489.923 135.333V117.415Z" fill="#BC1E24"/>
<path d="M483.735 152.001C486.452 152.042 487.507 154.398 487.854 155.509C487.889 155.622 488.112 155.622 488.147 155.509C488.494 154.398 489.548 152.042 492.265 152.001C495.823 151.946 498.499 155.929 496.059 159.929C493.883 163.494 488.082 170 488 170C487.917 170 482.117 163.494 479.941 159.929C477.501 155.929 480.177 151.946 483.735 152.001Z" fill="#BC1E24"/>
<path d="M540.808 146.023C540.027 146.023 539.487 145.663 538.806 144.742L537.265 142.62C535.883 143.24 534.302 143.581 532.5 143.581C525.593 143.581 521.569 138.996 521.569 131.489V127.465C521.569 119.837 525.773 115.093 532.5 115.093C539.126 115.093 543.451 119.837 543.451 127.465V131.489C543.451 135.773 542.189 138.856 539.987 140.838L541.489 142.9C542.029 143.661 542.229 144.041 542.229 144.542C542.229 145.302 541.689 146.023 540.808 146.023ZM525.053 131.529C525.053 137.114 527.916 140.478 532.48 140.478C533.481 140.478 534.442 140.297 535.323 139.937L534.162 138.375C533.721 137.775 533.381 137.234 533.381 136.654C533.381 135.793 534.042 135.132 534.902 135.132C535.443 135.132 535.983 135.433 536.604 136.293L537.905 138.095C539.167 136.614 539.947 134.712 539.947 131.529V127.465C539.947 121.759 536.724 118.236 532.5 118.236C527.916 118.236 525.053 121.759 525.053 127.465V131.529Z" fill="#BC1E24"/>
<path d="M528.735 152.001C531.452 152.042 532.507 154.398 532.854 155.509C532.889 155.622 533.112 155.622 533.147 155.509C533.494 154.398 534.548 152.042 537.265 152.001C540.823 151.946 543.499 155.929 541.059 159.929C538.883 163.494 533.082 170 533 170C532.917 170 527.117 163.494 524.941 159.929C522.501 155.929 525.177 151.946 528.735 152.001Z" fill="#BC1E24"/>
<path d="M585.749 143.06C585.048 143.06 584.447 142.66 583.747 141.679L575.358 129.807L571.915 133.371V141.278C571.915 142.459 571.234 143.2 570.153 143.2C569.072 143.2 568.412 142.459 568.412 141.278V117.395C568.412 116.214 569.072 115.473 570.153 115.473C571.234 115.473 571.915 116.214 571.915 117.395V128.846H572.075L583.466 116.694C584.207 115.874 584.667 115.613 585.248 115.613C586.129 115.613 586.79 116.294 586.79 117.135C586.79 117.655 586.629 117.956 585.829 118.796L577.961 127.405L586.529 139.296C587.37 140.458 587.55 140.818 587.55 141.338C587.55 142.359 586.81 143.06 585.749 143.06Z" fill="#BC1E24"/>
<path d="M573.735 152.001C576.452 152.042 577.507 154.398 577.854 155.509C577.889 155.622 578.112 155.622 578.147 155.509C578.494 154.398 579.548 152.042 582.265 152.001C585.823 151.946 588.499 155.929 586.059 159.929C583.883 163.494 578.082 170 578 170C577.917 170 572.117 163.494 569.941 159.929C567.501 155.929 570.177 151.946 573.735 152.001Z" fill="#BC1E24"/>
<path d="M28.1909 226.26C27.1899 226.26 26.5293 225.68 26.5293 224.759C26.5293 224.358 26.6294 223.978 26.7896 223.498L35.0176 200.495C35.5181 199.094 36.2188 198.453 37.5 198.453C38.7812 198.453 39.4819 199.094 39.9824 200.495L48.2104 223.498C48.3706 223.938 48.4707 224.358 48.4707 224.739C48.4707 225.68 47.8101 226.26 46.7891 226.26C45.8281 226.26 45.2876 225.8 44.9072 224.619L42.605 217.792H32.375L30.0728 224.619C29.6924 225.82 29.1519 226.26 28.1909 226.26ZM33.3159 214.969H41.6641L37.5601 202.797H37.4199L33.3159 214.969Z" fill="#211C1D"/>
<path d="M36.2375 254C36.0275 254 35.8572 253.836 35.8572 253.635C35.8572 253.205 36.9342 250.383 37.1943 248.483C37.2256 248.255 36.9357 248.164 36.8047 248.35C36.177 249.24 35.5441 250.192 33.8225 250.215C30.615 250.257 28.7672 247.21 29.7761 244.437C30.2708 243.078 37.0754 234 38 234C38.9245 234 45.7292 243.078 46.2239 244.437C47.2328 247.21 45.385 250.257 42.1775 250.215C40.4559 250.192 39.823 249.24 39.1953 248.35C39.0643 248.164 38.7744 248.255 38.8057 248.483C39.0658 250.383 40.1428 253.205 40.1428 253.635C40.1428 253.836 39.9725 254 39.7625 254H36.2375Z" fill="#211C1D"/>
<path d="M74.2319 224.138C74.2319 223.417 74.5723 222.857 75.7534 221.516L84.0815 211.986C86.3438 209.404 87.2046 207.722 87.2046 205.84C87.2046 203.018 85.1826 201.136 82.1396 201.136C79.5571 201.136 77.6553 202.677 77.0547 205.28C76.7744 206.341 76.2139 206.881 75.3931 206.881C74.4121 206.881 73.7715 206.141 73.7715 205.06C73.7715 201.656 77.0747 198.093 82.3599 198.093C87.2847 198.093 90.748 201.216 90.748 205.62C90.748 208.223 89.7271 210.125 86.1235 214.229L78.7163 222.697V222.937H89.8271C90.8882 222.937 91.5688 223.518 91.5688 224.479C91.5688 225.419 90.9282 226 89.8271 226H76.6143C75.1528 226 74.2319 225.299 74.2319 224.138Z" fill="#211C1D"/>
<path d="M81.2375 254C81.0275 254 80.8572 253.836 80.8572 253.635C80.8572 253.205 81.9342 250.383 82.1943 248.483C82.2256 248.255 81.9357 248.164 81.8047 248.35C81.177 249.24 80.5441 250.192 78.8225 250.215C75.615 250.257 73.7672 247.21 74.7761 244.437C75.2708 243.078 82.0754 234 83 234C83.9245 234 90.7292 243.078 91.2239 244.437C92.2328 247.21 90.385 250.257 87.1775 250.215C85.4559 250.192 84.823 249.24 84.1953 248.35C84.0643 248.164 83.7744 248.255 83.8057 248.483C84.0658 250.383 85.1428 253.205 85.1428 253.635C85.1428 253.836 84.9725 254 84.7625 254H81.2375Z" fill="#211C1D"/>
<path d="M118.311 220.395C118.311 219.494 118.932 218.853 119.812 218.853C120.513 218.853 120.954 219.213 121.474 220.234C122.515 222.376 124.597 223.578 127.32 223.578C130.903 223.578 133.186 221.616 133.186 218.553C133.186 215.49 130.843 213.428 127.36 213.428H124.857C123.937 213.428 123.256 212.767 123.256 211.906C123.256 211.025 123.896 210.405 124.857 210.405H127.22C130.143 210.405 132.265 208.423 132.265 205.68C132.265 202.938 130.203 201.096 127.14 201.096C124.757 201.096 122.956 202.277 122.155 204.339C121.754 205.44 121.254 205.86 120.473 205.86C119.552 205.86 118.952 205.2 118.952 204.199C118.952 201.096 122.295 198.093 127.22 198.093C132.225 198.093 135.788 201.076 135.788 205.24C135.788 208.263 133.526 211.146 130.743 211.626V211.826C134.126 212.207 136.709 215.169 136.709 218.613C136.709 223.297 132.825 226.581 127.26 226.581C122.095 226.581 118.311 223.458 118.311 220.395Z" fill="#211C1D"/>
<path d="M126.238 254C126.027 254 125.857 253.836 125.857 253.635C125.857 253.205 126.934 250.383 127.194 248.483C127.226 248.255 126.936 248.164 126.805 248.35C126.177 249.24 125.544 250.192 123.823 250.215C120.615 250.257 118.767 247.21 119.776 244.437C120.271 243.078 127.075 234 128 234C128.925 234 135.729 243.078 136.224 244.437C137.233 247.21 135.385 250.257 132.177 250.215C130.456 250.192 129.823 249.24 129.195 248.35C129.064 248.164 128.774 248.255 128.806 248.483C129.066 250.383 130.143 253.205 130.143 253.635C130.143 253.836 129.973 254 129.762 254H126.238Z" fill="#211C1D"/>
<path d="M175.463 224.378V220.314H164.933C163.372 220.314 162.331 219.494 162.331 218.172C162.331 217.432 162.571 216.731 163.271 215.45C166.134 210.385 167.936 207.502 172.48 200.695C173.662 198.954 174.583 198.353 175.964 198.353C177.786 198.353 178.807 199.394 178.807 201.256V217.251H180.889C182.01 217.251 182.67 217.812 182.67 218.793C182.67 219.754 182.03 220.314 180.889 220.314H178.807V224.378C178.807 225.54 178.206 226.2 177.125 226.2C176.064 226.2 175.463 225.54 175.463 224.378ZM165.694 217.251H175.463V201.756H175.283C171.88 206.781 168.316 212.507 165.694 217.051V217.251Z" fill="#211C1D"/>
<path d="M171.238 254C171.027 254 170.857 253.836 170.857 253.635C170.857 253.205 171.934 250.383 172.194 248.483C172.226 248.255 171.936 248.164 171.805 248.35C171.177 249.24 170.544 250.192 168.823 250.215C165.615 250.257 163.767 247.21 164.776 244.437C165.271 243.078 172.075 234 173 234C173.925 234 180.729 243.078 181.224 244.437C182.233 247.21 180.385 250.257 177.177 250.215C175.456 250.192 174.823 249.24 174.195 248.35C174.064 248.164 173.774 248.255 173.806 248.483C174.066 250.383 175.143 253.205 175.143 253.635C175.143 253.836 174.973 254 174.762 254H171.238Z" fill="#211C1D"/>
<path d="M208.111 220.555C208.111 219.554 208.692 218.873 209.573 218.873C210.253 218.873 210.694 219.233 211.214 220.254C212.315 222.396 214.157 223.558 216.56 223.558C220.203 223.558 222.746 220.995 222.746 217.312C222.746 213.788 220.283 211.306 216.82 211.306C215.258 211.306 213.877 211.826 212.716 212.867C211.254 214.229 210.854 214.469 210.213 214.469C209.072 214.469 208.492 213.568 208.592 212.026L209.473 200.815C209.593 199.334 210.454 198.633 212.175 198.633H223.406C224.567 198.633 225.248 199.214 225.248 200.195C225.248 201.156 224.587 201.696 223.406 201.696H212.616L211.855 210.605H212.055C212.956 209.264 215.298 208.303 217.601 208.303C222.686 208.303 226.269 211.946 226.269 217.131C226.269 222.657 222.285 226.581 216.7 226.581C211.415 226.581 208.111 223.357 208.111 220.555Z" fill="#211C1D"/>
<path d="M216.238 254C216.027 254 215.857 253.836 215.857 253.635C215.857 253.205 216.934 250.383 217.194 248.483C217.226 248.255 216.936 248.164 216.805 248.35C216.177 249.24 215.544 250.192 213.823 250.215C210.615 250.257 208.767 247.21 209.776 244.437C210.271 243.078 217.075 234 218 234C218.925 234 225.729 243.078 226.224 244.437C227.233 247.21 225.385 250.257 222.177 250.215C220.456 250.192 219.823 249.24 219.195 248.35C219.064 248.164 218.774 248.255 218.806 248.483C219.066 250.383 220.143 253.205 220.143 253.635C220.143 253.836 219.973 254 219.762 254H216.238Z" fill="#211C1D"/>
<path d="M253.031 213.127C253.031 203.498 256.734 198.153 263.381 198.153C265.523 198.153 267.585 198.733 269.106 199.774C270.428 200.635 271.229 201.736 271.229 202.657C271.229 203.518 270.608 204.159 269.747 204.159C269.187 204.159 268.766 203.938 268.045 203.238C266.604 201.816 265.103 201.176 263.321 201.176C258.856 201.176 256.494 205.1 256.434 212.587H256.594C257.515 210.145 260.378 208.423 263.501 208.423C268.586 208.423 272.149 212.086 272.149 217.312C272.149 222.817 268.386 226.561 262.82 226.561C259.437 226.561 256.734 225.159 255.093 222.577C253.711 220.375 253.031 217.271 253.031 213.127ZM256.935 217.432C256.935 221.015 259.417 223.558 262.96 223.558C266.404 223.558 268.706 221.135 268.706 217.452C268.706 213.808 266.384 211.406 262.82 211.406C259.357 211.406 256.935 213.888 256.935 217.432Z" fill="#211C1D"/>
<path d="M261.238 254C261.027 254 260.857 253.836 260.857 253.635C260.857 253.205 261.934 250.383 262.194 248.483C262.226 248.255 261.936 248.164 261.805 248.35C261.177 249.24 260.544 250.192 258.823 250.215C255.615 250.257 253.767 247.21 254.776 244.437C255.271 243.078 262.075 234 263 234C263.925 234 270.729 243.078 271.224 244.437C272.233 247.21 270.385 250.257 267.177 250.215C265.456 250.192 264.823 249.24 264.195 248.35C264.064 248.164 263.774 248.255 263.806 248.483C264.066 250.383 265.143 253.205 265.143 253.635C265.143 253.836 264.973 254 264.762 254H261.238Z" fill="#211C1D"/>
<path d="M301.535 224.759C301.535 224.318 301.675 223.938 301.895 223.498L312.005 201.937V201.736H299.593C298.352 201.736 297.751 201.096 297.751 200.215C297.751 199.314 298.352 198.673 299.593 198.673H313.847C314.888 198.673 315.749 199.394 315.749 200.575C315.749 201.136 315.468 202.057 315.028 202.998L304.818 225.039C304.438 225.84 303.957 226.32 303.116 226.32C302.295 226.32 301.535 225.7 301.535 224.759Z" fill="#211C1D"/>
<path d="M306.238 254C306.027 254 305.857 253.836 305.857 253.635C305.857 253.205 306.934 250.383 307.194 248.483C307.226 248.255 306.936 248.164 306.805 248.35C306.177 249.24 305.544 250.192 303.823 250.215C300.615 250.257 298.767 247.21 299.776 244.437C300.271 243.078 307.075 234 308 234C308.925 234 315.729 243.078 316.224 244.437C317.233 247.21 315.385 250.257 312.177 250.215C310.456 250.192 309.823 249.24 309.195 248.35C309.064 248.164 308.774 248.255 308.806 248.483C309.066 250.383 310.143 253.205 310.143 253.635C310.143 253.836 309.973 254 309.762 254H306.238Z" fill="#211C1D"/>
<path d="M351.92 226.581C346.274 226.581 342.351 223.297 342.351 218.573C342.351 215.27 344.573 212.487 347.876 211.686V211.486C345.193 210.605 343.432 208.183 343.432 205.4C343.432 201.196 347.035 198.093 352 198.093C356.965 198.093 360.588 201.196 360.588 205.4C360.588 208.143 358.767 210.605 356.124 211.486V211.686C359.387 212.467 361.629 215.27 361.629 218.533C361.629 223.237 357.585 226.581 351.92 226.581ZM352 210.305C355.043 210.305 357.185 208.363 357.185 205.64C357.185 202.938 355.063 201.056 352 201.056C348.957 201.056 346.815 202.958 346.815 205.64C346.815 208.343 348.977 210.305 352 210.305ZM352 223.658C355.624 223.658 358.226 221.476 358.226 218.433C358.226 215.39 355.624 213.167 352 213.167C348.376 213.167 345.774 215.37 345.774 218.433C345.774 221.476 348.376 223.658 352 223.658Z" fill="#211C1D"/>
<path d="M351.238 254C351.027 254 350.857 253.836 350.857 253.635C350.857 253.205 351.934 250.383 352.194 248.483C352.226 248.255 351.936 248.164 351.805 248.35C351.177 249.24 350.544 250.192 348.823 250.215C345.615 250.257 343.767 247.21 344.776 244.437C345.271 243.078 352.075 234 353 234C353.925 234 360.729 243.078 361.224 244.437C362.233 247.21 360.385 250.257 357.177 250.215C355.456 250.192 354.823 249.24 354.195 248.35C354.064 248.164 353.774 248.255 353.806 248.483C354.066 250.383 355.143 253.205 355.143 253.635C355.143 253.836 354.973 254 354.762 254H351.238Z" fill="#211C1D"/>
<path d="M388.952 221.936C388.952 221.035 389.572 220.455 390.433 220.455C390.974 220.455 391.394 220.695 392.135 221.416C393.596 222.857 395.078 223.518 396.919 223.518C401.444 223.518 403.746 219.374 403.746 212.167H403.566C402.565 214.869 400.002 216.491 396.739 216.491C391.614 216.491 388.051 212.727 388.051 207.322C388.051 201.756 391.834 198.053 397.52 198.053C403.786 198.053 407.129 202.938 407.129 212.006C407.129 221.556 403.666 226.521 396.979 226.521C394.777 226.521 392.695 225.96 391.134 224.939C389.792 224.058 388.952 222.937 388.952 221.936ZM403.146 207.402C403.146 203.658 400.783 201.096 397.32 201.096C393.876 201.096 391.514 203.658 391.514 207.382C391.514 211.025 393.836 213.468 397.32 213.468C400.823 213.468 403.146 211.045 403.146 207.402Z" fill="#211C1D"/>
<path d="M396.238 254C396.027 254 395.857 253.836 395.857 253.635C395.857 253.205 396.934 250.383 397.194 248.483C397.226 248.255 396.936 248.164 396.805 248.35C396.177 249.24 395.544 250.192 393.823 250.215C390.615 250.257 388.767 247.21 389.776 244.437C390.271 243.078 397.075 234 398 234C398.925 234 405.729 243.078 406.224 244.437C407.233 247.21 405.385 250.257 402.177 250.215C400.456 250.192 399.823 249.24 399.195 248.35C399.064 248.164 398.774 248.255 398.806 248.483C399.066 250.383 400.143 253.205 400.143 253.635C400.143 253.836 399.973 254 399.762 254H396.238Z" fill="#211C1D"/>
<path d="M432.479 226.2C431.398 226.2 430.737 225.459 430.737 224.278V200.395C430.737 199.214 431.398 198.473 432.479 198.473C433.56 198.473 434.24 199.214 434.24 200.395V224.278C434.24 225.459 433.56 226.2 432.479 226.2ZM435.245 212.867V211.866C435.245 203.578 438.789 198.093 444.975 198.093C451.161 198.093 454.684 203.578 454.684 211.866V212.867C454.684 221.135 451.141 226.581 444.955 226.581C438.789 226.581 435.245 221.155 435.245 212.867ZM438.749 211.886V212.827C438.749 219.494 441.131 223.558 444.975 223.558C448.819 223.558 451.201 219.494 451.201 212.827V211.886C451.201 205.22 448.799 201.136 444.955 201.136C441.131 201.136 438.749 205.22 438.749 211.886Z" fill="#211C1D"/>
<path d="M441.238 254C441.027 254 440.857 253.836 440.857 253.635C440.857 253.205 441.934 250.383 442.194 248.483C442.226 248.255 441.936 248.164 441.805 248.35C441.177 249.24 440.544 250.192 438.823 250.215C435.615 250.257 433.767 247.21 434.776 244.437C435.271 243.078 442.075 234 443 234C443.925 234 450.729 243.078 451.224 244.437C452.233 247.21 450.385 250.257 447.177 250.215C445.456 250.192 444.823 249.24 444.195 248.35C444.064 248.164 443.774 248.255 443.806 248.483C444.066 250.383 445.143 253.205 445.143 253.635C445.143 253.836 444.973 254 444.762 254H441.238Z" fill="#211C1D"/>
<path d="M489.923 200.415C489.923 199.214 490.583 198.473 491.665 198.473C492.746 198.473 493.426 199.214 493.426 200.415V218.192C493.426 223.377 490.423 226.581 485.599 226.581C482.996 226.581 480.934 225.8 479.513 224.318C478.592 223.357 478.031 222.156 478.031 221.075C478.031 220.034 478.592 219.394 479.493 219.394C480.193 219.394 480.574 219.734 481.094 220.755C481.955 222.517 483.437 223.438 485.458 223.438C488.281 223.438 489.923 221.576 489.923 218.333V200.415Z" fill="#211C1D"/>
<path d="M486.238 254C486.027 254 485.857 253.836 485.857 253.635C485.857 253.205 486.934 250.383 487.194 248.483C487.226 248.255 486.936 248.164 486.805 248.35C486.177 249.24 485.544 250.192 483.823 250.215C480.615 250.257 478.767 247.21 479.776 244.437C480.271 243.078 487.075 234 488 234C488.925 234 495.729 243.078 496.224 244.437C497.233 247.21 495.385 250.257 492.177 250.215C490.456 250.192 489.823 249.24 489.195 248.35C489.064 248.164 488.774 248.255 488.806 248.483C489.066 250.383 490.143 253.205 490.143 253.635C490.143 253.836 489.973 254 489.762 254H486.238Z" fill="#211C1D"/>
<path d="M540.808 229.023C540.027 229.023 539.487 228.663 538.806 227.742L537.265 225.62C535.883 226.24 534.302 226.581 532.5 226.581C525.593 226.581 521.569 221.996 521.569 214.489V210.465C521.569 202.837 525.773 198.093 532.5 198.093C539.126 198.093 543.451 202.837 543.451 210.465V214.489C543.451 218.773 542.189 221.856 539.987 223.838L541.489 225.9C542.029 226.661 542.229 227.041 542.229 227.542C542.229 228.302 541.689 229.023 540.808 229.023ZM525.053 214.529C525.053 220.114 527.916 223.478 532.48 223.478C533.481 223.478 534.442 223.297 535.323 222.937L534.162 221.375C533.721 220.775 533.381 220.234 533.381 219.654C533.381 218.793 534.042 218.132 534.902 218.132C535.443 218.132 535.983 218.433 536.604 219.293L537.905 221.095C539.167 219.614 539.947 217.712 539.947 214.529V210.465C539.947 204.759 536.724 201.236 532.5 201.236C527.916 201.236 525.053 204.759 525.053 210.465V214.529Z" fill="#211C1D"/>
<path d="M531.238 254C531.027 254 530.857 253.836 530.857 253.635C530.857 253.205 531.934 250.383 532.194 248.483C532.226 248.255 531.936 248.164 531.805 248.35C531.177 249.24 530.544 250.192 528.823 250.215C525.615 250.257 523.767 247.21 524.776 244.437C525.271 243.078 532.075 234 533 234C533.925 234 540.729 243.078 541.224 244.437C542.233 247.21 540.385 250.257 537.177 250.215C535.456 250.192 534.823 249.24 534.195 248.35C534.064 248.164 533.774 248.255 533.806 248.483C534.066 250.383 535.143 253.205 535.143 253.635C535.143 253.836 534.973 254 534.762 254H531.238Z" fill="#211C1D"/>
<path d="M585.749 226.06C585.048 226.06 584.447 225.66 583.747 224.679L575.358 212.807L571.915 216.371V224.278C571.915 225.459 571.234 226.2 570.153 226.2C569.072 226.2 568.412 225.459 568.412 224.278V200.395C568.412 199.214 569.072 198.473 570.153 198.473C571.234 198.473 571.915 199.214 571.915 200.395V211.846H572.075L583.466 199.694C584.207 198.874 584.667 198.613 585.248 198.613C586.129 198.613 586.79 199.294 586.79 200.135C586.79 200.655 586.629 200.956 585.829 201.796L577.961 210.405L586.529 222.296C587.37 223.458 587.55 223.818 587.55 224.338C587.55 225.359 586.81 226.06 585.749 226.06Z" fill="#211C1D"/>
<path d="M576.238 254C576.027 254 575.857 253.836 575.857 253.635C575.857 253.205 576.934 250.383 577.194 248.483C577.226 248.255 576.936 248.164 576.805 248.35C576.177 249.24 575.544 250.192 573.823 250.215C570.615 250.257 568.767 247.21 569.776 244.437C570.271 243.078 577.075 234 578 234C578.925 234 585.729 243.078 586.224 244.437C587.233 247.21 585.385 250.257 582.177 250.215C580.456 250.192 579.823 249.24 579.195 248.35C579.064 248.164 578.774 248.255 578.806 248.483C579.066 250.383 580.143 253.205 580.143 253.635C580.143 253.836 579.973 254 579.762 254H576.238Z" fill="#211C1D"/>
<path d="M28.1909 309.26C27.1899 309.26 26.5293 308.68 26.5293 307.759C26.5293 307.358 26.6294 306.978 26.7896 306.498L35.0176 283.495C35.5181 282.094 36.2188 281.453 37.5 281.453C38.7812 281.453 39.4819 282.094 39.9824 283.495L48.2104 306.498C48.3706 306.938 48.4707 307.358 48.4707 307.739C48.4707 308.68 47.8101 309.26 46.7891 309.26C45.8281 309.26 45.2876 308.8 44.9072 307.619L42.605 300.792H32.375L30.0728 307.619C29.6924 308.82 29.1519 309.26 28.1909 309.26ZM33.3159 297.969H41.6641L37.5601 285.797H37.4199L33.3159 297.969Z" fill="#211C1D"/>
<path d="M36.0324 337C35.815 337 35.6387 336.826 35.6387 336.611C35.6387 335.891 36.9316 333.201 37.1901 331.096C37.2179 330.869 36.886 330.785 36.7639 330.979C36.0982 332.036 35.1904 333.515 32.9784 333.463L32.9355 333.465C32.9068 333.466 32.8781 333.467 32.8492 333.467C30.4471 333.467 28.5 331.354 28.5 328.748C28.5 326.142 30.4471 324.03 32.8492 324.03C33.3182 324.03 33.7697 324.111 34.1928 324.26C34.2915 324.295 34.3921 324.181 34.3431 324.09C33.9682 323.393 33.7531 322.582 33.7531 321.717C33.7531 319.148 35.625 317 38 317C40.375 317 42.2469 319.148 42.2469 321.717C42.2469 322.582 42.0318 323.393 41.6569 324.09C41.6079 324.181 41.7085 324.295 41.8072 324.26C42.2303 324.111 42.6818 324.03 43.1508 324.03C45.5529 324.03 47.5 326.142 47.5 328.748C47.5 331.354 45.5529 333.467 43.1508 333.467C43.1219 333.467 43.0932 333.466 43.0645 333.465L43.0216 333.463C40.8096 333.515 39.9018 332.036 39.2361 330.979C39.114 330.785 38.7821 330.869 38.8099 331.096C39.0684 333.201 40.3613 335.891 40.3613 336.611C40.3613 336.826 40.185 337 39.9676 337H36.0324Z" fill="#211C1D"/>
<path d="M74.2319 307.138C74.2319 306.417 74.5723 305.857 75.7534 304.516L84.0815 294.986C86.3438 292.404 87.2046 290.722 87.2046 288.84C87.2046 286.018 85.1826 284.136 82.1396 284.136C79.5571 284.136 77.6553 285.677 77.0547 288.28C76.7744 289.341 76.2139 289.881 75.3931 289.881C74.4121 289.881 73.7715 289.141 73.7715 288.06C73.7715 284.656 77.0747 281.093 82.3599 281.093C87.2847 281.093 90.748 284.216 90.748 288.62C90.748 291.223 89.7271 293.125 86.1235 297.229L78.7163 305.697V305.937H89.8271C90.8882 305.937 91.5688 306.518 91.5688 307.479C91.5688 308.419 90.9282 309 89.8271 309H76.6143C75.1528 309 74.2319 308.299 74.2319 307.138Z" fill="#211C1D"/>
<path d="M81.0324 337C80.815 337 80.6387 336.826 80.6387 336.611C80.6387 335.891 81.9316 333.201 82.1901 331.096C82.2179 330.869 81.886 330.785 81.7639 330.979C81.0982 332.036 80.1904 333.515 77.9784 333.463L77.9355 333.465C77.9068 333.466 77.8781 333.467 77.8492 333.467C75.4471 333.467 73.5 331.354 73.5 328.748C73.5 326.142 75.4471 324.03 77.8492 324.03C78.3182 324.03 78.7697 324.111 79.1928 324.26C79.2915 324.295 79.3921 324.181 79.3431 324.09C78.9682 323.393 78.7531 322.582 78.7531 321.717C78.7531 319.148 80.625 317 83 317C85.375 317 87.2469 319.148 87.2469 321.717C87.2469 322.582 87.0318 323.393 86.6569 324.09C86.6079 324.181 86.7085 324.295 86.8072 324.26C87.2303 324.111 87.6818 324.03 88.1508 324.03C90.5529 324.03 92.5 326.142 92.5 328.748C92.5 331.354 90.5529 333.467 88.1508 333.467C88.1219 333.467 88.0932 333.466 88.0645 333.465L88.0216 333.463C85.8096 333.515 84.9018 332.036 84.2361 330.979C84.114 330.785 83.7821 330.869 83.8099 331.096C84.0684 333.201 85.3613 335.891 85.3613 336.611C85.3613 336.826 85.185 337 84.9676 337H81.0324Z" fill="#211C1D"/>
<path d="M118.311 303.395C118.311 302.494 118.932 301.853 119.812 301.853C120.513 301.853 120.954 302.213 121.474 303.234C122.515 305.376 124.597 306.578 127.32 306.578C130.903 306.578 133.186 304.616 133.186 301.553C133.186 298.49 130.843 296.428 127.36 296.428H124.857C123.937 296.428 123.256 295.767 123.256 294.906C123.256 294.025 123.896 293.405 124.857 293.405H127.22C130.143 293.405 132.265 291.423 132.265 288.68C132.265 285.938 130.203 284.096 127.14 284.096C124.757 284.096 122.956 285.277 122.155 287.339C121.754 288.44 121.254 288.86 120.473 288.86C119.552 288.86 118.952 288.2 118.952 287.199C118.952 284.096 122.295 281.093 127.22 281.093C132.225 281.093 135.788 284.076 135.788 288.24C135.788 291.263 133.526 294.146 130.743 294.626V294.826C134.126 295.207 136.709 298.169 136.709 301.613C136.709 306.297 132.825 309.581 127.26 309.581C122.095 309.581 118.311 306.458 118.311 303.395Z" fill="#211C1D"/>
<path d="M126.032 337C125.815 337 125.639 336.826 125.639 336.611C125.639 335.891 126.932 333.201 127.19 331.096C127.218 330.869 126.886 330.785 126.764 330.979C126.098 332.036 125.19 333.515 122.978 333.463L122.935 333.465C122.907 333.466 122.878 333.467 122.849 333.467C120.447 333.467 118.5 331.354 118.5 328.748C118.5 326.142 120.447 324.03 122.849 324.03C123.318 324.03 123.77 324.111 124.193 324.26C124.292 324.295 124.392 324.181 124.343 324.09C123.968 323.393 123.753 322.582 123.753 321.717C123.753 319.148 125.625 317 128 317C130.375 317 132.247 319.148 132.247 321.717C132.247 322.582 132.032 323.393 131.657 324.09C131.608 324.181 131.708 324.295 131.807 324.26C132.23 324.111 132.682 324.03 133.151 324.03C135.553 324.03 137.5 326.142 137.5 328.748C137.5 331.354 135.553 333.467 133.151 333.467C133.122 333.467 133.093 333.466 133.065 333.465L133.022 333.463C130.81 333.515 129.902 332.036 129.236 330.979C129.114 330.785 128.782 330.869 128.81 331.096C129.068 333.201 130.361 335.891 130.361 336.611C130.361 336.826 130.185 337 129.968 337H126.032Z" fill="#211C1D"/>
<path d="M175.463 307.378V303.314H164.933C163.372 303.314 162.331 302.494 162.331 301.172C162.331 300.432 162.571 299.731 163.271 298.45C166.134 293.385 167.936 290.502 172.48 283.695C173.662 281.954 174.583 281.353 175.964 281.353C177.786 281.353 178.807 282.394 178.807 284.256V300.251H180.889C182.01 300.251 182.67 300.812 182.67 301.793C182.67 302.754 182.03 303.314 180.889 303.314H178.807V307.378C178.807 308.54 178.206 309.2 177.125 309.2C176.064 309.2 175.463 308.54 175.463 307.378ZM165.694 300.251H175.463V284.756H175.283C171.88 289.781 168.316 295.507 165.694 300.051V300.251Z" fill="#211C1D"/>
<path d="M171.032 337C170.815 337 170.639 336.826 170.639 336.611C170.639 335.891 171.932 333.201 172.19 331.096C172.218 330.869 171.886 330.785 171.764 330.979C171.098 332.036 170.19 333.515 167.978 333.463L167.935 333.465C167.907 333.466 167.878 333.467 167.849 333.467C165.447 333.467 163.5 331.354 163.5 328.748C163.5 326.142 165.447 324.03 167.849 324.03C168.318 324.03 168.77 324.111 169.193 324.26C169.292 324.295 169.392 324.181 169.343 324.09C168.968 323.393 168.753 322.582 168.753 321.717C168.753 319.148 170.625 317 173 317C175.375 317 177.247 319.148 177.247 321.717C177.247 322.582 177.032 323.393 176.657 324.09C176.608 324.181 176.708 324.295 176.807 324.26C177.23 324.111 177.682 324.03 178.151 324.03C180.553 324.03 182.5 326.142 182.5 328.748C182.5 331.354 180.553 333.467 178.151 333.467C178.122 333.467 178.093 333.466 178.065 333.465L178.022 333.463C175.81 333.515 174.902 332.036 174.236 330.979C174.114 330.785 173.782 330.869 173.81 331.096C174.068 333.201 175.361 335.891 175.361 336.611C175.361 336.826 175.185 337 174.968 337H171.032Z" fill="#211C1D"/>
<path d="M208.111 303.555C208.111 302.554 208.692 301.873 209.573 301.873C210.253 301.873 210.694 302.233 211.214 303.254C212.315 305.396 214.157 306.558 216.56 306.558C220.203 306.558 222.746 303.995 222.746 300.312C222.746 296.788 220.283 294.306 216.82 294.306C215.258 294.306 213.877 294.826 212.716 295.867C211.254 297.229 210.854 297.469 210.213 297.469C209.072 297.469 208.492 296.568 208.592 295.026L209.473 283.815C209.593 282.334 210.454 281.633 212.175 281.633H223.406C224.567 281.633 225.248 282.214 225.248 283.195C225.248 284.156 224.587 284.696 223.406 284.696H212.616L211.855 293.605H212.055C212.956 292.264 215.298 291.303 217.601 291.303C222.686 291.303 226.269 294.946 226.269 300.131C226.269 305.657 222.285 309.581 216.7 309.581C211.415 309.581 208.111 306.357 208.111 303.555Z" fill="#211C1D"/>
<path d="M216.032 337C215.815 337 215.639 336.826 215.639 336.611C215.639 335.891 216.932 333.201 217.19 331.096C217.218 330.869 216.886 330.785 216.764 330.979C216.098 332.036 215.19 333.515 212.978 333.463L212.935 333.465C212.907 333.466 212.878 333.467 212.849 333.467C210.447 333.467 208.5 331.354 208.5 328.748C208.5 326.142 210.447 324.03 212.849 324.03C213.318 324.03 213.77 324.111 214.193 324.26C214.292 324.295 214.392 324.181 214.343 324.09C213.968 323.393 213.753 322.582 213.753 321.717C213.753 319.148 215.625 317 218 317C220.375 317 222.247 319.148 222.247 321.717C222.247 322.582 222.032 323.393 221.657 324.09C221.608 324.181 221.708 324.295 221.807 324.26C222.23 324.111 222.682 324.03 223.151 324.03C225.553 324.03 227.5 326.142 227.5 328.748C227.5 331.354 225.553 333.467 223.151 333.467C223.122 333.467 223.093 333.466 223.065 333.465L223.022 333.463C220.81 333.515 219.902 332.036 219.236 330.979C219.114 330.785 218.782 330.869 218.81 331.096C219.068 333.201 220.361 335.891 220.361 336.611C220.361 336.826 220.185 337 219.968 337H216.032Z" fill="#211C1D"/>
<path d="M253.031 296.127C253.031 286.498 256.734 281.153 263.381 281.153C265.523 281.153 267.585 281.733 269.106 282.774C270.428 283.635 271.229 284.736 271.229 285.657C271.229 286.518 270.608 287.159 269.747 287.159C269.187 287.159 268.766 286.938 268.045 286.238C266.604 284.816 265.103 284.176 263.321 284.176C258.856 284.176 256.494 288.1 256.434 295.587H256.594C257.515 293.145 260.378 291.423 263.501 291.423C268.586 291.423 272.149 295.086 272.149 300.312C272.149 305.817 268.386 309.561 262.82 309.561C259.437 309.561 256.734 308.159 255.093 305.577C253.711 303.375 253.031 300.271 253.031 296.127ZM256.935 300.432C256.935 304.015 259.417 306.558 262.96 306.558C266.404 306.558 268.706 304.135 268.706 300.452C268.706 296.808 266.384 294.406 262.82 294.406C259.357 294.406 256.935 296.888 256.935 300.432Z" fill="#211C1D"/>
<path d="M261.032 337C260.815 337 260.639 336.826 260.639 336.611C260.639 335.891 261.932 333.201 262.19 331.096C262.218 330.869 261.886 330.785 261.764 330.979C261.098 332.036 260.19 333.515 257.978 333.463L257.935 333.465C257.907 333.466 257.878 333.467 257.849 333.467C255.447 333.467 253.5 331.354 253.5 328.748C253.5 326.142 255.447 324.03 257.849 324.03C258.318 324.03 258.77 324.111 259.193 324.26C259.292 324.295 259.392 324.181 259.343 324.09C258.968 323.393 258.753 322.582 258.753 321.717C258.753 319.148 260.625 317 263 317C265.375 317 267.247 319.148 267.247 321.717C267.247 322.582 267.032 323.393 266.657 324.09C266.608 324.181 266.708 324.295 266.807 324.26C267.23 324.111 267.682 324.03 268.151 324.03C270.553 324.03 272.5 326.142 272.5 328.748C272.5 331.354 270.553 333.467 268.151 333.467C268.122 333.467 268.093 333.466 268.065 333.465L268.022 333.463C265.81 333.515 264.902 332.036 264.236 330.979C264.114 330.785 263.782 330.869 263.81 331.096C264.068 333.201 265.361 335.891 265.361 336.611C265.361 336.826 265.185 337 264.968 337H261.032Z" fill="#211C1D"/>
<path d="M301.535 307.759C301.535 307.318 301.675 306.938 301.895 306.498L312.005 284.937V284.736H299.593C298.352 284.736 297.751 284.096 297.751 283.215C297.751 282.314 298.352 281.673 299.593 281.673H313.847C314.888 281.673 315.749 282.394 315.749 283.575C315.749 284.136 315.468 285.057 315.028 285.998L304.818 308.039C304.438 308.84 303.957 309.32 303.116 309.32C302.295 309.32 301.535 308.7 301.535 307.759Z" fill="#211C1D"/>
<path d="M306.032 337C305.815 337 305.639 336.826 305.639 336.611C305.639 335.891 306.932 333.201 307.19 331.096C307.218 330.869 306.886 330.785 306.764 330.979C306.098 332.036 305.19 333.515 302.978 333.463L302.935 333.465C302.907 333.466 302.878 333.467 302.849 333.467C300.447 333.467 298.5 331.354 298.5 328.748C298.5 326.142 300.447 324.03 302.849 324.03C303.318 324.03 303.77 324.111 304.193 324.26C304.292 324.295 304.392 324.181 304.343 324.09C303.968 323.393 303.753 322.582 303.753 321.717C303.753 319.148 305.625 317 308 317C310.375 317 312.247 319.148 312.247 321.717C312.247 322.582 312.032 323.393 311.657 324.09C311.608 324.181 311.708 324.295 311.807 324.26C312.23 324.111 312.682 324.03 313.151 324.03C315.553 324.03 317.5 326.142 317.5 328.748C317.5 331.354 315.553 333.467 313.151 333.467C313.122 333.467 313.093 333.466 313.065 333.465L313.022 333.463C310.81 333.515 309.902 332.036 309.236 330.979C309.114 330.785 308.782 330.869 308.81 331.096C309.068 333.201 310.361 335.891 310.361 336.611C310.361 336.826 310.185 337 309.968 337H306.032Z" fill="#211C1D"/>
<path d="M351.92 309.581C346.274 309.581 342.351 306.297 342.351 301.573C342.351 298.27 344.573 295.487 347.876 294.686V294.486C345.193 293.605 343.432 291.183 343.432 288.4C343.432 284.196 347.035 281.093 352 281.093C356.965 281.093 360.588 284.196 360.588 288.4C360.588 291.143 358.767 293.605 356.124 294.486V294.686C359.387 295.467 361.629 298.27 361.629 301.533C361.629 306.237 357.585 309.581 351.92 309.581ZM352 293.305C355.043 293.305 357.185 291.363 357.185 288.64C357.185 285.938 355.063 284.056 352 284.056C348.957 284.056 346.815 285.958 346.815 288.64C346.815 291.343 348.977 293.305 352 293.305ZM352 306.658C355.624 306.658 358.226 304.476 358.226 301.433C358.226 298.39 355.624 296.167 352 296.167C348.376 296.167 345.774 298.37 345.774 301.433C345.774 304.476 348.376 306.658 352 306.658Z" fill="#211C1D"/>
<path d="M351.032 337C350.815 337 350.639 336.826 350.639 336.611C350.639 335.891 351.932 333.201 352.19 331.096C352.218 330.869 351.886 330.785 351.764 330.979C351.098 332.036 350.19 333.515 347.978 333.463L347.935 333.465C347.907 333.466 347.878 333.467 347.849 333.467C345.447 333.467 343.5 331.354 343.5 328.748C343.5 326.142 345.447 324.03 347.849 324.03C348.318 324.03 348.77 324.111 349.193 324.26C349.292 324.295 349.392 324.181 349.343 324.09C348.968 323.393 348.753 322.582 348.753 321.717C348.753 319.148 350.625 317 353 317C355.375 317 357.247 319.148 357.247 321.717C357.247 322.582 357.032 323.393 356.657 324.09C356.608 324.181 356.708 324.295 356.807 324.26C357.23 324.111 357.682 324.03 358.151 324.03C360.553 324.03 362.5 326.142 362.5 328.748C362.5 331.354 360.553 333.467 358.151 333.467C358.122 333.467 358.093 333.466 358.065 333.465L358.022 333.463C355.81 333.515 354.902 332.036 354.236 330.979C354.114 330.785 353.782 330.869 353.81 331.096C354.068 333.201 355.361 335.891 355.361 336.611C355.361 336.826 355.185 337 354.968 337H351.032Z" fill="#211C1D"/>
<path d="M388.952 304.936C388.952 304.035 389.572 303.455 390.433 303.455C390.974 303.455 391.394 303.695 392.135 304.416C393.596 305.857 395.078 306.518 396.919 306.518C401.444 306.518 403.746 302.374 403.746 295.167H403.566C402.565 297.869 400.002 299.491 396.739 299.491C391.614 299.491 388.051 295.727 388.051 290.322C388.051 284.756 391.834 281.053 397.52 281.053C403.786 281.053 407.129 285.938 407.129 295.006C407.129 304.556 403.666 309.521 396.979 309.521C394.777 309.521 392.695 308.96 391.134 307.939C389.792 307.058 388.952 305.937 388.952 304.936ZM403.146 290.402C403.146 286.658 400.783 284.096 397.32 284.096C393.876 284.096 391.514 286.658 391.514 290.382C391.514 294.025 393.836 296.468 397.32 296.468C400.823 296.468 403.146 294.045 403.146 290.402Z" fill="#211C1D"/>
<path d="M396.032 337C395.815 337 395.639 336.826 395.639 336.611C395.639 335.891 396.932 333.201 397.19 331.096C397.218 330.869 396.886 330.785 396.764 330.979C396.098 332.036 395.19 333.515 392.978 333.463L392.935 333.465C392.907 333.466 392.878 333.467 392.849 333.467C390.447 333.467 388.5 331.354 388.5 328.748C388.5 326.142 390.447 324.03 392.849 324.03C393.318 324.03 393.77 324.111 394.193 324.26C394.292 324.295 394.392 324.181 394.343 324.09C393.968 323.393 393.753 322.582 393.753 321.717C393.753 319.148 395.625 317 398 317C400.375 317 402.247 319.148 402.247 321.717C402.247 322.582 402.032 323.393 401.657 324.09C401.608 324.181 401.708 324.295 401.807 324.26C402.23 324.111 402.682 324.03 403.151 324.03C405.553 324.03 407.5 326.142 407.5 328.748C407.5 331.354 405.553 333.467 403.151 333.467C403.122 333.467 403.093 333.466 403.065 333.465L403.022 333.463C400.81 333.515 399.902 332.036 399.236 330.979C399.114 330.785 398.782 330.869 398.81 331.096C399.068 333.201 400.361 335.891 400.361 336.611C400.361 336.826 400.185 337 399.968 337H396.032Z" fill="#211C1D"/>
<path d="M432.479 309.2C431.398 309.2 430.737 308.459 430.737 307.278V283.395C430.737 282.214 431.398 281.473 432.479 281.473C433.56 281.473 434.24 282.214 434.24 283.395V307.278C434.24 308.459 433.56 309.2 432.479 309.2ZM435.245 295.867V294.866C435.245 286.578 438.789 281.093 444.975 281.093C451.161 281.093 454.684 286.578 454.684 294.866V295.867C454.684 304.135 451.141 309.581 444.955 309.581C438.789 309.581 435.245 304.155 435.245 295.867ZM438.749 294.886V295.827C438.749 302.494 441.131 306.558 444.975 306.558C448.819 306.558 451.201 302.494 451.201 295.827V294.886C451.201 288.22 448.799 284.136 444.955 284.136C441.131 284.136 438.749 288.22 438.749 294.886Z" fill="#211C1D"/>
<path d="M441.032 337C440.815 337 440.639 336.826 440.639 336.611C440.639 335.891 441.932 333.201 442.19 331.096C442.218 330.869 441.886 330.785 441.764 330.979C441.098 332.036 440.19 333.515 437.978 333.463L437.935 333.465C437.907 333.466 437.878 333.467 437.849 333.467C435.447 333.467 433.5 331.354 433.5 328.748C433.5 326.142 435.447 324.03 437.849 324.03C438.318 324.03 438.77 324.111 439.193 324.26C439.292 324.295 439.392 324.181 439.343 324.09C438.968 323.393 438.753 322.582 438.753 321.717C438.753 319.148 440.625 317 443 317C445.375 317 447.247 319.148 447.247 321.717C447.247 322.582 447.032 323.393 446.657 324.09C446.608 324.181 446.708 324.295 446.807 324.26C447.23 324.111 447.682 324.03 448.151 324.03C450.553 324.03 452.5 326.142 452.5 328.748C452.5 331.354 450.553 333.467 448.151 333.467C448.122 333.467 448.093 333.466 448.065 333.465L448.022 333.463C445.81 333.515 444.902 332.036 444.236 330.979C444.114 330.785 443.782 330.869 443.81 331.096C444.068 333.201 445.361 335.891 445.361 336.611C445.361 336.826 445.185 337 444.968 337H441.032Z" fill="#211C1D"/>
<path d="M489.923 283.415C489.923 282.214 490.583 281.473 491.665 281.473C492.746 281.473 493.426 282.214 493.426 283.415V301.192C493.426 306.377 490.423 309.581 485.599 309.581C482.996 309.581 480.934 308.8 479.513 307.318C478.592 306.357 478.031 305.156 478.031 304.075C478.031 303.034 478.592 302.394 479.493 302.394C480.193 302.394 480.574 302.734 481.094 303.755C481.955 305.517 483.437 306.438 485.458 306.438C488.281 306.438 489.923 304.576 489.923 301.333V283.415Z" fill="#211C1D"/>
<path d="M486.032 337C485.815 337 485.639 336.826 485.639 336.611C485.639 335.891 486.932 333.201 487.19 331.096C487.218 330.869 486.886 330.785 486.764 330.979C486.098 332.036 485.19 333.515 482.978 333.463L482.935 333.465C482.907 333.466 482.878 333.467 482.849 333.467C480.447 333.467 478.5 331.354 478.5 328.748C478.5 326.142 480.447 324.03 482.849 324.03C483.318 324.03 483.77 324.111 484.193 324.26C484.292 324.295 484.392 324.181 484.343 324.09C483.968 323.393 483.753 322.582 483.753 321.717C483.753 319.148 485.625 317 488 317C490.375 317 492.247 319.148 492.247 321.717C492.247 322.582 492.032 323.393 491.657 324.09C491.608 324.181 491.708 324.295 491.807 324.26C492.23 324.111 492.682 324.03 493.151 324.03C495.553 324.03 497.5 326.142 497.5 328.748C497.5 331.354 495.553 333.467 493.151 333.467C493.122 333.467 493.093 333.466 493.065 333.465L493.022 333.463C490.81 333.515 489.902 332.036 489.236 330.979C489.114 330.785 488.782 330.869 488.81 331.096C489.068 333.201 490.361 335.891 490.361 336.611C490.361 336.826 490.185 337 489.968 337H486.032Z" fill="#211C1D"/>
<path d="M540.808 312.023C540.027 312.023 539.487 311.663 538.806 310.742L537.265 308.62C535.883 309.24 534.302 309.581 532.5 309.581C525.593 309.581 521.569 304.996 521.569 297.489V293.465C521.569 285.837 525.773 281.093 532.5 281.093C539.126 281.093 543.451 285.837 543.451 293.465V297.489C543.451 301.773 542.189 304.856 539.987 306.838L541.489 308.9C542.029 309.661 542.229 310.041 542.229 310.542C542.229 311.302 541.689 312.023 540.808 312.023ZM525.053 297.529C525.053 303.114 527.916 306.478 532.48 306.478C533.481 306.478 534.442 306.297 535.323 305.937L534.162 304.375C533.721 303.775 533.381 303.234 533.381 302.654C533.381 301.793 534.042 301.132 534.902 301.132C535.443 301.132 535.983 301.433 536.604 302.293L537.905 304.095C539.167 302.614 539.947 300.712 539.947 297.529V293.465C539.947 287.759 536.724 284.236 532.5 284.236C527.916 284.236 525.053 287.759 525.053 293.465V297.529Z" fill="#211C1D"/>
<path d="M531.032 337C530.815 337 530.639 336.826 530.639 336.611C530.639 335.891 531.932 333.201 532.19 331.096C532.218 330.869 531.886 330.785 531.764 330.979C531.098 332.036 530.19 333.515 527.978 333.463L527.935 333.465C527.907 333.466 527.878 333.467 527.849 333.467C525.447 333.467 523.5 331.354 523.5 328.748C523.5 326.142 525.447 324.03 527.849 324.03C528.318 324.03 528.77 324.111 529.193 324.26C529.292 324.295 529.392 324.181 529.343 324.09C528.968 323.393 528.753 322.582 528.753 321.717C528.753 319.148 530.625 317 533 317C535.375 317 537.247 319.148 537.247 321.717C537.247 322.582 537.032 323.393 536.657 324.09C536.608 324.181 536.708 324.295 536.807 324.26C537.23 324.111 537.682 324.03 538.151 324.03C540.553 324.03 542.5 326.142 542.5 328.748C542.5 331.354 540.553 333.467 538.151 333.467C538.122 333.467 538.093 333.466 538.065 333.465L538.022 333.463C535.81 333.515 534.902 332.036 534.236 330.979C534.114 330.785 533.782 330.869 533.81 331.096C534.068 333.201 535.361 335.891 535.361 336.611C535.361 336.826 535.185 337 534.968 337H531.032Z" fill="#211C1D"/>
<path d="M585.749 309.06C585.048 309.06 584.447 308.66 583.747 307.679L575.358 295.807L571.915 299.371V307.278C571.915 308.459 571.234 309.2 570.153 309.2C569.072 309.2 568.412 308.459 568.412 307.278V283.395C568.412 282.214 569.072 281.473 570.153 281.473C571.234 281.473 571.915 282.214 571.915 283.395V294.846H572.075L583.466 282.694C584.207 281.874 584.667 281.613 585.248 281.613C586.129 281.613 586.79 282.294 586.79 283.135C586.79 283.655 586.629 283.956 585.829 284.796L577.961 293.405L586.529 305.296C587.37 306.458 587.55 306.818 587.55 307.338C587.55 308.359 586.81 309.06 585.749 309.06Z" fill="#211C1D"/>
<path d="M576.032 337C575.815 337 575.639 336.826 575.639 336.611C575.639 335.891 576.932 333.201 577.19 331.096C577.218 330.869 576.886 330.785 576.764 330.979C576.098 332.036 575.19 333.515 572.978 333.463L572.935 333.465C572.907 333.466 572.878 333.467 572.849 333.467C570.447 333.467 568.5 331.354 568.5 328.748C568.5 326.142 570.447 324.03 572.849 324.03C573.318 324.03 573.77 324.111 574.193 324.26C574.292 324.295 574.392 324.181 574.343 324.09C573.968 323.393 573.753 322.582 573.753 321.717C573.753 319.148 575.625 317 578 317C580.375 317 582.247 319.148 582.247 321.717C582.247 322.582 582.032 323.393 581.657 324.09C581.608 324.181 581.708 324.295 581.807 324.26C582.23 324.111 582.682 324.03 583.151 324.03C585.553 324.03 587.5 326.142 587.5 328.748C587.5 331.354 585.553 333.467 583.151 333.467C583.122 333.467 583.093 333.466 583.065 333.465L583.022 333.463C580.81 333.515 579.902 332.036 579.236 330.979C579.114 330.785 578.782 330.869 578.81 331.096C579.068 333.201 580.361 335.891 580.361 336.611C580.361 336.826 580.185 337 579.968 337H576.032Z" fill="#211C1D"/>
</svg>
