<svg width="219" height="304" viewBox="0 0 219 304" fill="none" xmlns="http://www.w3.org/2000/svg">
<g filter="url(#filter0_d_123_826)">
<rect x="8" y="4" width="203" height="288" rx="10" fill="white"/>
<path d="M81.5728 159.781C78.5698 159.781 76.5879 158.039 76.5879 155.276C76.5879 154.075 76.8882 152.934 77.3687 151.493L102.053 82.4854C103.554 78.2812 105.656 76.3594 109.5 76.3594C113.344 76.3594 115.446 78.2812 116.947 82.4854L141.631 151.493C142.112 152.814 142.412 154.075 142.412 155.216C142.412 158.039 140.43 159.781 137.367 159.781C134.484 159.781 132.863 158.399 131.722 154.856L124.815 134.376H94.125L87.2183 154.856C86.0771 158.459 84.4556 159.781 81.5728 159.781ZM96.9478 125.908H121.992L109.68 89.3921H109.26L96.9478 125.908Z" fill="#BC1E24"/>
<path d="M111.54 183.312C111.311 182.896 110.689 182.896 110.46 183.312C103.579 195.817 98.6166 202.435 88.6659 212.595C88.4447 212.82 88.4447 213.18 88.6659 213.406C98.6166 223.565 103.579 230.183 110.46 242.688C110.689 243.104 111.311 243.104 111.54 242.688C118.421 230.183 123.383 223.565 133.334 213.406C133.555 213.18 133.555 212.82 133.334 212.595C123.383 202.435 118.421 195.817 111.54 183.312Z" fill="#BC1E24"/>
</g>
<defs>
<filter id="filter0_d_123_826" x="0" y="0" width="219" height="304" filterUnits="userSpaceOnUse" color-interpolation-filters="sRGB">
<feFlood flood-opacity="0" result="BackgroundImageFix"/>
<feColorMatrix in="SourceAlpha" type="matrix" values="0 0 0 0 0 0 0 0 0 0 0 0 0 0 0 0 0 0 127 0" result="hardAlpha"/>
<feOffset dy="4"/>
<feGaussianBlur stdDeviation="4"/>
<feComposite in2="hardAlpha" operator="out"/>
<feColorMatrix type="matrix" values="0 0 0 0 0.614771 0 0 0 0 0.70094 0 0 0 0 0.806257 0 0 0 1 0"/>
<feBlend mode="normal" in2="BackgroundImageFix" result="effect1_dropShadow_123_826"/>
<feBlend mode="normal" in="SourceGraphic" in2="effect1_dropShadow_123_826" result="shape"/>
</filter>
</defs>
</svg>
