<svg width="219" height="304" viewBox="0 0 219 304" fill="none" xmlns="http://www.w3.org/2000/svg">
<g filter="url(#filter0_d_123_893)">
<rect x="8" y="4.5" width="203" height="287" rx="10" fill="white"/>
<path d="M81.334 142.164C81.334 139.161 83.0757 137.119 85.7183 137.119C87.7603 137.119 89.0815 138.2 90.6431 141.263C93.9463 147.689 99.4717 151.173 106.679 151.173C117.609 151.173 125.237 143.485 125.237 132.435C125.237 121.864 117.85 114.417 107.459 114.417C102.775 114.417 98.6309 115.979 95.1475 119.102C90.7632 123.186 89.562 123.906 87.6401 123.906C84.2168 123.906 82.4751 121.204 82.7754 116.579L85.418 82.9463C85.7783 78.502 88.3608 76.3999 93.5259 76.3999H127.219C130.702 76.3999 132.744 78.1416 132.744 81.0845C132.744 83.9673 130.762 85.5889 127.219 85.5889H94.8472L92.5649 112.315H93.1655C95.8682 108.291 102.895 105.408 109.802 105.408C125.057 105.408 135.807 116.339 135.807 131.894C135.807 148.47 123.855 160.242 107.099 160.242C91.2437 160.242 81.334 150.572 81.334 142.164Z" fill="#BC1E24"/>
<path d="M111.54 182.812C111.311 182.396 110.689 182.396 110.46 182.812C103.579 195.317 98.6166 201.935 88.6659 212.095C88.4447 212.32 88.4447 212.68 88.6659 212.906C98.6166 223.065 103.579 229.683 110.46 242.188C110.689 242.604 111.311 242.604 111.54 242.188C118.421 229.683 123.383 223.065 133.334 212.906C133.555 212.68 133.555 212.32 133.334 212.095C123.383 201.935 118.421 195.317 111.54 182.812Z" fill="#BC1E24"/>
</g>
<defs>
<filter id="filter0_d_123_893" x="0" y="0.5" width="219" height="303" filterUnits="userSpaceOnUse" color-interpolation-filters="sRGB">
<feFlood flood-opacity="0" result="BackgroundImageFix"/>
<feColorMatrix in="SourceAlpha" type="matrix" values="0 0 0 0 0 0 0 0 0 0 0 0 0 0 0 0 0 0 127 0" result="hardAlpha"/>
<feOffset dy="4"/>
<feGaussianBlur stdDeviation="4"/>
<feComposite in2="hardAlpha" operator="out"/>
<feColorMatrix type="matrix" values="0 0 0 0 0.614771 0 0 0 0 0.70094 0 0 0 0 0.806257 0 0 0 1 0"/>
<feBlend mode="normal" in2="BackgroundImageFix" result="effect1_dropShadow_123_893"/>
<feBlend mode="normal" in="SourceGraphic" in2="effect1_dropShadow_123_893" result="shape"/>
</filter>
</defs>
</svg>
