<svg width="219" height="304" viewBox="0 0 219 304" fill="none" xmlns="http://www.w3.org/2000/svg">
<g filter="url(#filter0_d_123_1089)">
<rect x="8" y="4" width="203" height="288" rx="10" fill="white"/>
<path d="M116.769 81.2451C116.769 77.6416 118.75 75.4194 121.994 75.4194C125.237 75.4194 127.279 77.6416 127.279 81.2451V134.577C127.279 150.132 118.27 159.742 103.796 159.742C95.9883 159.742 89.8022 157.399 85.5381 152.955C82.7754 150.072 81.0938 146.469 81.0938 143.226C81.0938 140.103 82.7754 138.181 85.478 138.181C87.5801 138.181 88.7212 139.202 90.2827 142.265C92.8652 147.55 97.3096 150.312 103.375 150.312C111.844 150.312 116.769 144.727 116.769 134.998V81.2451Z" fill="#BC1E24"/>
<path d="M111.54 182.312C111.311 181.896 110.689 181.896 110.46 182.312C103.579 194.817 98.6166 201.435 88.6659 211.595C88.4447 211.82 88.4447 212.18 88.6659 212.406C98.6166 222.565 103.579 229.183 110.46 241.688C110.689 242.104 111.311 242.104 111.54 241.688C118.421 229.183 123.383 222.565 133.334 212.406C133.555 212.18 133.555 211.82 133.334 211.595C123.383 201.435 118.421 194.817 111.54 182.312Z" fill="#BC1E24"/>
</g>
<defs>
<filter id="filter0_d_123_1089" x="0" y="0" width="219" height="304" filterUnits="userSpaceOnUse" color-interpolation-filters="sRGB">
<feFlood flood-opacity="0" result="BackgroundImageFix"/>
<feColorMatrix in="SourceAlpha" type="matrix" values="0 0 0 0 0 0 0 0 0 0 0 0 0 0 0 0 0 0 127 0" result="hardAlpha"/>
<feOffset dy="4"/>
<feGaussianBlur stdDeviation="4"/>
<feComposite in2="hardAlpha" operator="out"/>
<feColorMatrix type="matrix" values="0 0 0 0 0.614771 0 0 0 0 0.70094 0 0 0 0 0.806257 0 0 0 1 0"/>
<feBlend mode="normal" in2="BackgroundImageFix" result="effect1_dropShadow_123_1089"/>
<feBlend mode="normal" in="SourceGraphic" in2="effect1_dropShadow_123_1089" result="shape"/>
</filter>
</defs>
</svg>
