<svg width="219" height="304" viewBox="0 0 219 304" fill="none" xmlns="http://www.w3.org/2000/svg">
<g filter="url(#filter0_d_123_981)">
<rect x="8" y="4" width="203" height="288" rx="10" fill="white"/>
<path d="M81.0923 120.382C81.0923 91.4941 92.2031 75.4585 112.143 75.4585C118.569 75.4585 124.755 77.2002 129.319 80.3232C133.283 82.9058 135.686 86.209 135.686 88.9717C135.686 91.5542 133.824 93.4761 131.241 93.4761C129.56 93.4761 128.298 92.8154 126.136 90.7134C121.812 86.4492 117.308 84.5273 111.962 84.5273C98.5693 84.5273 91.4824 96.2988 91.3022 118.761H91.7827C94.5454 111.434 103.134 106.269 112.503 106.269C127.758 106.269 138.448 117.259 138.448 132.935C138.448 149.451 127.157 160.682 110.461 160.682C100.311 160.682 92.2031 156.478 87.2783 148.73C83.1343 142.124 81.0923 132.814 81.0923 120.382ZM92.8037 133.295C92.8037 144.045 100.251 151.673 110.881 151.673C121.211 151.673 128.118 144.406 128.118 133.355C128.118 122.424 121.151 115.217 110.461 115.217C100.071 115.217 92.8037 122.665 92.8037 133.295Z" fill="#BC1E24"/>
<path d="M111.54 183.312C111.311 182.896 110.689 182.896 110.46 183.312C103.579 195.817 98.6166 202.435 88.6659 212.595C88.4447 212.82 88.4447 213.18 88.6659 213.406C98.6166 223.565 103.579 230.183 110.46 242.688C110.689 243.104 111.311 243.104 111.54 242.688C118.421 230.183 123.383 223.565 133.334 213.406C133.555 213.18 133.555 212.82 133.334 212.595C123.383 202.435 118.421 195.817 111.54 183.312Z" fill="#BC1E24"/>
</g>
<defs>
<filter id="filter0_d_123_981" x="0" y="0" width="219" height="304" filterUnits="userSpaceOnUse" color-interpolation-filters="sRGB">
<feFlood flood-opacity="0" result="BackgroundImageFix"/>
<feColorMatrix in="SourceAlpha" type="matrix" values="0 0 0 0 0 0 0 0 0 0 0 0 0 0 0 0 0 0 127 0" result="hardAlpha"/>
<feOffset dy="4"/>
<feGaussianBlur stdDeviation="4"/>
<feComposite in2="hardAlpha" operator="out"/>
<feColorMatrix type="matrix" values="0 0 0 0 0.614771 0 0 0 0 0.70094 0 0 0 0 0.806257 0 0 0 1 0"/>
<feBlend mode="normal" in2="BackgroundImageFix" result="effect1_dropShadow_123_981"/>
<feBlend mode="normal" in="SourceGraphic" in2="effect1_dropShadow_123_981" result="shape"/>
</filter>
</defs>
</svg>
