<svg width="219" height="304" viewBox="0 0 219 304" fill="none" xmlns="http://www.w3.org/2000/svg">
<g filter="url(#filter0_d_123_867)">
<rect x="8" y="4" width="203" height="288" rx="10" fill="white"/>
<path d="M118.39 154.135V141.943H86.7993C82.1147 141.943 78.9917 139.481 78.9917 135.517C78.9917 133.295 79.7124 131.193 81.8145 127.349C90.4028 112.154 95.8081 103.506 109.441 83.0859C112.985 77.8608 115.748 76.0591 119.892 76.0591C125.357 76.0591 128.42 79.1821 128.42 84.7676V132.754H134.666C138.029 132.754 140.011 134.436 140.011 137.379C140.011 140.262 138.089 141.943 134.666 141.943H128.42V154.135C128.42 157.619 126.618 159.601 123.375 159.601C120.192 159.601 118.39 157.619 118.39 154.135ZM89.0815 132.754H118.39V86.269H117.85C107.64 101.344 96.9492 118.521 89.0815 132.154V132.754Z" fill="#BC1E24"/>
<path d="M111.54 183.312C111.311 182.896 110.689 182.896 110.46 183.312C103.579 195.817 98.6166 202.435 88.6659 212.595C88.4447 212.82 88.4447 213.18 88.6659 213.406C98.6166 223.565 103.579 230.183 110.46 242.688C110.689 243.104 111.311 243.104 111.54 242.688C118.421 230.183 123.383 223.565 133.334 213.406C133.555 213.18 133.555 212.82 133.334 212.595C123.383 202.435 118.421 195.817 111.54 183.312Z" fill="#BC1E24"/>
</g>
<defs>
<filter id="filter0_d_123_867" x="0" y="0" width="219" height="304" filterUnits="userSpaceOnUse" color-interpolation-filters="sRGB">
<feFlood flood-opacity="0" result="BackgroundImageFix"/>
<feColorMatrix in="SourceAlpha" type="matrix" values="0 0 0 0 0 0 0 0 0 0 0 0 0 0 0 0 0 0 127 0" result="hardAlpha"/>
<feOffset dy="4"/>
<feGaussianBlur stdDeviation="4"/>
<feComposite in2="hardAlpha" operator="out"/>
<feColorMatrix type="matrix" values="0 0 0 0 0.614771 0 0 0 0 0.70094 0 0 0 0 0.806257 0 0 0 1 0"/>
<feBlend mode="normal" in2="BackgroundImageFix" result="effect1_dropShadow_123_867"/>
<feBlend mode="normal" in="SourceGraphic" in2="effect1_dropShadow_123_867" result="shape"/>
</filter>
</defs>
</svg>
