<svg width="219" height="304" viewBox="0 0 219 304" fill="none" xmlns="http://www.w3.org/2000/svg">
<g filter="url(#filter0_d_123_1005)">
<rect x="8" y="4" width="203" height="288" rx="10" fill="white"/>
<path d="M107.76 160.742C90.8232 160.742 79.0518 150.892 79.0518 136.718C79.0518 126.809 85.7183 118.46 95.6279 116.058V115.458C87.5801 112.815 82.2949 105.548 82.2949 97.1997C82.2949 84.5874 93.1055 75.2783 108 75.2783C122.895 75.2783 133.765 84.5874 133.765 97.1997C133.765 105.428 128.3 112.815 120.372 115.458V116.058C130.162 118.4 136.888 126.809 136.888 136.598C136.888 150.712 124.756 160.742 107.76 160.742ZM108 111.914C117.129 111.914 123.555 106.088 123.555 97.9204C123.555 89.8125 117.189 84.167 108 84.167C98.8711 84.167 92.4448 89.8726 92.4448 97.9204C92.4448 106.028 98.9312 111.914 108 111.914ZM108 151.973C118.871 151.973 126.678 145.427 126.678 136.298C126.678 127.169 118.871 120.502 108 120.502C97.1294 120.502 89.3218 127.109 89.3218 136.298C89.3218 145.427 97.1294 151.973 108 151.973Z" fill="#BC1E24"/>
<path d="M111.54 183.312C111.311 182.896 110.689 182.896 110.46 183.312C103.579 195.817 98.6166 202.435 88.6659 212.595C88.4447 212.82 88.4447 213.18 88.6659 213.406C98.6166 223.565 103.579 230.183 110.46 242.688C110.689 243.104 111.311 243.104 111.54 242.688C118.421 230.183 123.383 223.565 133.334 213.406C133.555 213.18 133.555 212.82 133.334 212.595C123.383 202.435 118.421 195.817 111.54 183.312Z" fill="#BC1E24"/>
</g>
<defs>
<filter id="filter0_d_123_1005" x="0" y="0" width="219" height="304" filterUnits="userSpaceOnUse" color-interpolation-filters="sRGB">
<feFlood flood-opacity="0" result="BackgroundImageFix"/>
<feColorMatrix in="SourceAlpha" type="matrix" values="0 0 0 0 0 0 0 0 0 0 0 0 0 0 0 0 0 0 127 0" result="hardAlpha"/>
<feOffset dy="4"/>
<feGaussianBlur stdDeviation="4"/>
<feComposite in2="hardAlpha" operator="out"/>
<feColorMatrix type="matrix" values="0 0 0 0 0.614771 0 0 0 0 0.70094 0 0 0 0 0.806257 0 0 0 1 0"/>
<feBlend mode="normal" in2="BackgroundImageFix" result="effect1_dropShadow_123_1005"/>
<feBlend mode="normal" in="SourceGraphic" in2="effect1_dropShadow_123_1005" result="shape"/>
</filter>
</defs>
</svg>
