<svg width="219" height="304" viewBox="0 0 219 304" fill="none" xmlns="http://www.w3.org/2000/svg">
<g filter="url(#filter0_d_123_1256)">
<rect x="8" y="4" width="203" height="288" rx="10" fill="white"/>
<path d="M107.76 159.742C90.8232 159.742 79.0518 149.892 79.0518 135.718C79.0518 125.809 85.7183 117.46 95.6279 115.058V114.458C87.5801 111.815 82.2949 104.548 82.2949 96.1997C82.2949 83.5874 93.1055 74.2783 108 74.2783C122.895 74.2783 133.765 83.5874 133.765 96.1997C133.765 104.428 128.3 111.815 120.372 114.458V115.058C130.162 117.4 136.888 125.809 136.888 135.598C136.888 149.712 124.756 159.742 107.76 159.742ZM108 110.914C117.129 110.914 123.555 105.088 123.555 96.9204C123.555 88.8125 117.189 83.167 108 83.167C98.8711 83.167 92.4448 88.8726 92.4448 96.9204C92.4448 105.028 98.9312 110.914 108 110.914ZM108 150.973C118.871 150.973 126.678 144.427 126.678 135.298C126.678 126.169 118.871 119.502 108 119.502C97.1294 119.502 89.3218 126.109 89.3218 135.298C89.3218 144.427 97.1294 150.973 108 150.973Z" fill="#BC1E24"/>
<path d="M98.2041 185.002C106.355 185.126 109.521 192.195 110.561 195.528C110.666 195.865 111.337 195.865 111.442 195.528C112.481 192.195 115.645 185.126 123.796 185.002C134.469 184.838 142.498 196.787 135.176 208.787C128.65 219.482 111.246 239 111 239C110.75 239 93.3508 219.483 86.8238 208.787C79.5016 196.787 87.5311 184.838 98.2041 185.002Z" fill="#BC1E24"/>
</g>
<defs>
<filter id="filter0_d_123_1256" x="0" y="0" width="219" height="304" filterUnits="userSpaceOnUse" color-interpolation-filters="sRGB">
<feFlood flood-opacity="0" result="BackgroundImageFix"/>
<feColorMatrix in="SourceAlpha" type="matrix" values="0 0 0 0 0 0 0 0 0 0 0 0 0 0 0 0 0 0 127 0" result="hardAlpha"/>
<feOffset dy="4"/>
<feGaussianBlur stdDeviation="4"/>
<feComposite in2="hardAlpha" operator="out"/>
<feColorMatrix type="matrix" values="0 0 0 0 0.614771 0 0 0 0 0.70094 0 0 0 0 0.806257 0 0 0 1 0"/>
<feBlend mode="normal" in2="BackgroundImageFix" result="effect1_dropShadow_123_1256"/>
<feBlend mode="normal" in="SourceGraphic" in2="effect1_dropShadow_123_1256" result="shape"/>
</filter>
</defs>
</svg>
