<svg width="219" height="304" viewBox="0 0 219 304" fill="none" xmlns="http://www.w3.org/2000/svg">
<g filter="url(#filter0_d_123_1282)">
<rect x="8" y="4" width="203" height="288" rx="10" fill="white"/>
<path d="M83.855 145.808C83.855 143.105 85.7168 141.364 88.2993 141.364C89.9209 141.364 91.1821 142.084 93.4043 144.247C97.7886 148.571 102.233 150.553 107.758 150.553C121.332 150.553 128.238 138.121 128.238 116.5H127.698C124.695 124.607 117.007 129.472 107.218 129.472C91.8428 129.472 81.1523 118.181 81.1523 101.965C81.1523 85.269 92.5034 74.1582 109.56 74.1582C128.358 74.1582 138.388 88.8125 138.388 116.019C138.388 144.667 127.998 159.562 107.938 159.562C101.332 159.562 95.0859 157.88 90.4014 154.817C86.3774 152.174 83.855 148.811 83.855 145.808ZM126.437 102.206C126.437 90.9746 119.35 83.2871 108.959 83.2871C98.6294 83.2871 91.5425 90.9746 91.5425 102.146C91.5425 113.076 98.5093 120.403 108.959 120.403C119.47 120.403 126.437 113.136 126.437 102.206Z" fill="#BC1E24"/>
<path d="M98.2041 185.002C106.355 185.126 109.521 192.195 110.561 195.528C110.666 195.865 111.337 195.865 111.442 195.528C112.481 192.195 115.645 185.126 123.796 185.002C134.469 184.838 142.498 196.787 135.176 208.787C128.65 219.482 111.246 239 111 239C110.75 239 93.3508 219.483 86.8238 208.787C79.5016 196.787 87.5311 184.838 98.2041 185.002Z" fill="#BC1E24"/>
</g>
<defs>
<filter id="filter0_d_123_1282" x="0" y="0" width="219" height="304" filterUnits="userSpaceOnUse" color-interpolation-filters="sRGB">
<feFlood flood-opacity="0" result="BackgroundImageFix"/>
<feColorMatrix in="SourceAlpha" type="matrix" values="0 0 0 0 0 0 0 0 0 0 0 0 0 0 0 0 0 0 127 0" result="hardAlpha"/>
<feOffset dy="4"/>
<feGaussianBlur stdDeviation="4"/>
<feComposite in2="hardAlpha" operator="out"/>
<feColorMatrix type="matrix" values="0 0 0 0 0.614771 0 0 0 0 0.70094 0 0 0 0 0.806257 0 0 0 1 0"/>
<feBlend mode="normal" in2="BackgroundImageFix" result="effect1_dropShadow_123_1282"/>
<feBlend mode="normal" in="SourceGraphic" in2="effect1_dropShadow_123_1282" result="shape"/>
</filter>
</defs>
</svg>
