<svg width="219" height="304" viewBox="0 0 219 304" fill="none" xmlns="http://www.w3.org/2000/svg">
<g filter="url(#filter0_d_123_1135)">
<rect x="8" y="4" width="203" height="288" rx="10" fill="white"/>
<path d="M84.6958 152.415C84.6958 150.252 85.7168 148.571 89.2603 144.547L114.245 115.959C121.031 108.211 123.614 103.167 123.614 97.521C123.614 89.0527 117.548 83.4072 108.419 83.4072C100.671 83.4072 94.9658 88.0317 93.1641 95.8394C92.3232 99.0225 90.6416 100.644 88.1792 100.644C85.2363 100.644 83.3145 98.4219 83.3145 95.1787C83.3145 84.9688 93.2241 74.2783 109.08 74.2783C123.854 74.2783 134.244 83.6475 134.244 96.8604C134.244 104.668 131.181 110.374 120.371 122.686L98.1489 148.09V148.811H131.481C134.665 148.811 136.707 150.553 136.707 153.436C136.707 156.258 134.785 158 131.481 158H91.8428C87.4585 158 84.6958 155.898 84.6958 152.415Z" fill="#BC1E24"/>
<path d="M98.2041 185.002C106.355 185.126 109.521 192.195 110.561 195.528C110.666 195.865 111.337 195.865 111.442 195.528C112.481 192.195 115.645 185.126 123.796 185.002C134.469 184.838 142.498 196.787 135.176 208.787C128.65 219.482 111.246 239 111 239C110.75 239 93.3508 219.483 86.8238 208.787C79.5016 196.787 87.5311 184.838 98.2041 185.002Z" fill="#BC1E24"/>
</g>
<defs>
<filter id="filter0_d_123_1135" x="0" y="0" width="219" height="304" filterUnits="userSpaceOnUse" color-interpolation-filters="sRGB">
<feFlood flood-opacity="0" result="BackgroundImageFix"/>
<feColorMatrix in="SourceAlpha" type="matrix" values="0 0 0 0 0 0 0 0 0 0 0 0 0 0 0 0 0 0 127 0" result="hardAlpha"/>
<feOffset dy="4"/>
<feGaussianBlur stdDeviation="4"/>
<feComposite in2="hardAlpha" operator="out"/>
<feColorMatrix type="matrix" values="0 0 0 0 0.614771 0 0 0 0 0.70094 0 0 0 0 0.806257 0 0 0 1 0"/>
<feBlend mode="normal" in2="BackgroundImageFix" result="effect1_dropShadow_123_1135"/>
<feBlend mode="normal" in="SourceGraphic" in2="effect1_dropShadow_123_1135" result="shape"/>
</filter>
</defs>
</svg>
