<svg width="219" height="304" viewBox="0 0 219 304" fill="none" xmlns="http://www.w3.org/2000/svg">
<g filter="url(#filter0_d_123_1149)">
<rect x="8" y="4" width="203" height="288" rx="10" fill="white"/>
<path d="M81.9331 141.184C81.9331 138.481 83.7949 136.559 86.4375 136.559C88.5396 136.559 89.8608 137.64 91.4224 140.703C94.5454 147.129 100.792 150.733 108.959 150.733C119.71 150.733 126.557 144.847 126.557 135.658C126.557 126.469 119.53 120.283 109.08 120.283H101.572C98.8096 120.283 96.7676 118.301 96.7676 115.719C96.7676 113.076 98.6895 111.214 101.572 111.214H108.659C117.428 111.214 123.794 105.269 123.794 97.0405C123.794 88.8125 117.608 83.2871 108.419 83.2871C101.272 83.2871 95.8667 86.8306 93.4644 93.0166C92.2632 96.3198 90.7617 97.5811 88.4194 97.5811C85.6567 97.5811 83.855 95.5991 83.855 92.5962C83.855 83.2871 93.8848 74.2783 108.659 74.2783C123.674 74.2783 134.364 83.2271 134.364 95.7192C134.364 104.788 127.578 113.437 119.229 114.878V115.479C129.379 116.62 137.127 125.508 137.127 135.838C137.127 149.892 125.476 159.742 108.779 159.742C93.2842 159.742 81.9331 150.373 81.9331 141.184Z" fill="#BC1E24"/>
<path d="M98.2041 185.002C106.355 185.126 109.521 192.195 110.561 195.528C110.666 195.865 111.337 195.865 111.442 195.528C112.481 192.195 115.645 185.126 123.796 185.002C134.469 184.838 142.498 196.787 135.176 208.787C128.65 219.482 111.246 239 111 239C110.75 239 93.3508 219.483 86.8238 208.787C79.5016 196.787 87.5311 184.838 98.2041 185.002Z" fill="#BC1E24"/>
</g>
<defs>
<filter id="filter0_d_123_1149" x="0" y="0" width="219" height="304" filterUnits="userSpaceOnUse" color-interpolation-filters="sRGB">
<feFlood flood-opacity="0" result="BackgroundImageFix"/>
<feColorMatrix in="SourceAlpha" type="matrix" values="0 0 0 0 0 0 0 0 0 0 0 0 0 0 0 0 0 0 127 0" result="hardAlpha"/>
<feOffset dy="4"/>
<feGaussianBlur stdDeviation="4"/>
<feComposite in2="hardAlpha" operator="out"/>
<feColorMatrix type="matrix" values="0 0 0 0 0.614771 0 0 0 0 0.70094 0 0 0 0 0.806257 0 0 0 1 0"/>
<feBlend mode="normal" in2="BackgroundImageFix" result="effect1_dropShadow_123_1149"/>
<feBlend mode="normal" in="SourceGraphic" in2="effect1_dropShadow_123_1149" result="shape"/>
</filter>
</defs>
</svg>
