<svg width="16" height="29" viewBox="0 0 16 29" fill="none" xmlns="http://www.w3.org/2000/svg">
<path d="M11.9229 2.41504C11.9229 1.21387 12.5835 0.473145 13.6646 0.473145C14.7456 0.473145 15.4263 1.21387 15.4263 2.41504V20.1924C15.4263 25.3774 12.4233 28.5806 7.59863 28.5806C4.99609 28.5806 2.93408 27.7998 1.5127 26.3184C0.591797 25.3574 0.03125 24.1562 0.03125 23.0752C0.03125 22.0342 0.591797 21.3936 1.49268 21.3936C2.19336 21.3936 2.57373 21.7339 3.09424 22.7549C3.95508 24.5166 5.43652 25.4375 7.4585 25.4375C10.2812 25.4375 11.9229 23.5757 11.9229 20.3325V2.41504Z" fill="#BC1E24"/>
</svg>
