<svg width="20" height="29" viewBox="0 0 20 29" fill="none" xmlns="http://www.w3.org/2000/svg">
<path d="M17.7485 28.0601C17.0479 28.0601 16.4473 27.6597 15.7466 26.6787L7.3584 14.8071L3.91504 18.3706V26.2783C3.91504 27.4595 3.23438 28.2002 2.15332 28.2002C1.07227 28.2002 0.411621 27.4595 0.411621 26.2783V2.39502C0.411621 1.21387 1.07227 0.473145 2.15332 0.473145C3.23438 0.473145 3.91504 1.21387 3.91504 2.39502V13.8462H4.0752L15.4663 1.69434C16.207 0.873535 16.6675 0.613281 17.248 0.613281C18.1289 0.613281 18.7896 1.29395 18.7896 2.13477C18.7896 2.65527 18.6294 2.95557 17.8286 3.79639L9.96094 12.4048L18.5293 24.2964C19.3701 25.4575 19.5503 25.8179 19.5503 26.3384C19.5503 27.3594 18.8096 28.0601 17.7485 28.0601Z" fill="#BC1E24"/>
</svg>
