<svg width="19" height="29" viewBox="0 0 19 29" fill="none" xmlns="http://www.w3.org/2000/svg">
<path d="M0.111328 22.5547C0.111328 21.5537 0.691895 20.873 1.57275 20.873C2.25342 20.873 2.69385 21.2334 3.21436 22.2544C4.31543 24.3965 6.15723 25.5576 8.55957 25.5576C12.2031 25.5576 14.7456 22.9951 14.7456 19.3115C14.7456 15.7881 12.2832 13.3057 8.81982 13.3057C7.2583 13.3057 5.87695 13.8262 4.71582 14.8672C3.25439 16.2285 2.854 16.4688 2.21338 16.4688C1.07227 16.4688 0.491699 15.5679 0.591797 14.0264L1.47266 2.81543C1.59277 1.33398 2.45361 0.633301 4.17529 0.633301H15.4062C16.5674 0.633301 17.248 1.21387 17.248 2.19482C17.248 3.15576 16.5874 3.69629 15.4062 3.69629H4.61572L3.85498 12.605H4.05518C4.95605 11.2637 7.29834 10.3027 9.60059 10.3027C14.6855 10.3027 18.269 13.9463 18.269 19.1313C18.269 24.6567 14.2852 28.5806 8.69971 28.5806C3.41455 28.5806 0.111328 25.3574 0.111328 22.5547Z" fill="#BC1E24"/>
</svg>
