<svg width="23" height="32" viewBox="0 0 23 32" fill="none" xmlns="http://www.w3.org/2000/svg">
<path d="M19.8081 31.0229C19.0273 31.0229 18.4868 30.6626 17.8062 29.7417L16.2646 27.6196C14.8833 28.2402 13.3018 28.5806 11.5 28.5806C4.59326 28.5806 0.569336 23.9961 0.569336 16.4888V12.4648C0.569336 4.8374 4.77344 0.0927734 11.5 0.0927734C18.1265 0.0927734 22.4507 4.8374 22.4507 12.4648V16.4888C22.4507 20.7729 21.1895 23.856 18.9873 25.8379L20.4888 27.8999C21.0293 28.6606 21.2295 29.041 21.2295 29.5415C21.2295 30.3022 20.689 31.0229 19.8081 31.0229ZM4.05273 16.5288C4.05273 22.1143 6.91553 25.4775 11.48 25.4775C12.481 25.4775 13.4419 25.2974 14.3228 24.937L13.1616 23.3755C12.7212 22.7749 12.3809 22.2344 12.3809 21.6538C12.3809 20.793 13.0415 20.1323 13.9023 20.1323C14.4429 20.1323 14.9834 20.4326 15.604 21.2935L16.9053 23.0952C18.1665 21.6138 18.9473 19.7119 18.9473 16.5288V12.4648C18.9473 6.75928 15.7241 3.23584 11.5 3.23584C6.91553 3.23584 4.05273 6.75928 4.05273 12.4648V16.5288Z" fill="#BC1E24"/>
</svg>
