<svg width="19" height="28" viewBox="0 0 19 28" fill="none" xmlns="http://www.w3.org/2000/svg">
<path d="M1.23193 26.1382C1.23193 25.4175 1.57227 24.8569 2.75342 23.5156L11.0815 13.9863C13.3438 11.4038 14.2046 9.72217 14.2046 7.84033C14.2046 5.01758 12.1826 3.13574 9.13965 3.13574C6.55713 3.13574 4.65527 4.67725 4.05469 7.27979C3.77441 8.34082 3.21387 8.88135 2.39307 8.88135C1.41211 8.88135 0.771484 8.14062 0.771484 7.05957C0.771484 3.65625 4.07471 0.0927734 9.35986 0.0927734C14.2847 0.0927734 17.748 3.21582 17.748 7.62012C17.748 10.2227 16.7271 12.1245 13.1235 16.2285L5.71631 24.6968V24.937H16.8271C17.8882 24.937 18.5688 25.5176 18.5688 26.4785C18.5688 27.4194 17.9282 28 16.8271 28H3.61426C2.15283 28 1.23193 27.2993 1.23193 26.1382Z" fill="#BC1E24"/>
</svg>
