<svg width="25" height="29" viewBox="0 0 25 29" fill="none" xmlns="http://www.w3.org/2000/svg">
<path d="M2.47871 28.2002C1.39766 28.2002 0.737012 27.4595 0.737012 26.2783V2.39502C0.737012 1.21387 1.39766 0.473145 2.47871 0.473145C3.55977 0.473145 4.24043 1.21387 4.24043 2.39502V26.2783C4.24043 27.4595 3.55977 28.2002 2.47871 28.2002ZM5.24541 14.8672V13.8662C5.24541 5.57812 8.78887 0.0927734 14.9749 0.0927734C21.1609 0.0927734 24.6844 5.57812 24.6844 13.8662V14.8672C24.6844 23.1353 21.1409 28.5806 14.9549 28.5806C8.78887 28.5806 5.24541 23.1553 5.24541 14.8672ZM8.74883 13.8862V14.8271C8.74883 21.4937 11.1312 25.5576 14.9749 25.5576C18.8187 25.5576 21.201 21.4937 21.201 14.8271V13.8862C21.201 7.21973 18.7986 3.13574 14.9549 3.13574C11.1312 3.13574 8.74883 7.21973 8.74883 13.8862Z" fill="#BC1E24"/>
</svg>
