<svg width="20" height="29" viewBox="0 0 20 29" fill="none" xmlns="http://www.w3.org/2000/svg">
<path d="M9.91992 28.5806C4.27441 28.5806 0.350586 25.2974 0.350586 20.5728C0.350586 17.2695 2.57275 14.4868 5.87598 13.686V13.4858C3.19336 12.605 1.43164 10.1826 1.43164 7.3999C1.43164 3.1958 5.03516 0.0927734 10 0.0927734C14.9648 0.0927734 18.5884 3.1958 18.5884 7.3999C18.5884 10.1426 16.7666 12.605 14.124 13.4858V13.686C17.3872 14.4668 19.6294 17.2695 19.6294 20.5327C19.6294 25.2373 15.5854 28.5806 9.91992 28.5806ZM10 12.3047C13.043 12.3047 15.1851 10.3628 15.1851 7.64014C15.1851 4.9375 13.063 3.05566 10 3.05566C6.95703 3.05566 4.81494 4.95752 4.81494 7.64014C4.81494 10.3428 6.97705 12.3047 10 12.3047ZM10 25.6577C13.6235 25.6577 16.2261 23.4756 16.2261 20.4326C16.2261 17.3896 13.6235 15.1675 10 15.1675C6.37646 15.1675 3.77393 17.3696 3.77393 20.4326C3.77393 23.4756 6.37646 25.6577 10 25.6577Z" fill="#BC1E24"/>
</svg>
