<svg width="23" height="29" viewBox="0 0 23 29" fill="none" xmlns="http://www.w3.org/2000/svg">
<path d="M2.19092 28.2603C1.18994 28.2603 0.529297 27.6797 0.529297 26.7588C0.529297 26.3584 0.629395 25.978 0.789551 25.4976L9.01758 2.49512C9.51807 1.09375 10.2188 0.453125 11.5 0.453125C12.7812 0.453125 13.4819 1.09375 13.9824 2.49512L22.2104 25.4976C22.3706 25.938 22.4707 26.3584 22.4707 26.7388C22.4707 27.6797 21.8101 28.2603 20.7891 28.2603C19.8281 28.2603 19.2876 27.7998 18.9072 26.6187L16.605 19.792H6.375L4.07275 26.6187C3.69238 27.8198 3.15186 28.2603 2.19092 28.2603ZM7.31592 16.9692H15.6641L11.5601 4.79736H11.4199L7.31592 16.9692Z" fill="#BC1E24"/>
</svg>
