<svg width="219" height="304" viewBox="0 0 219 304" fill="none" xmlns="http://www.w3.org/2000/svg">
<g filter="url(#filter0_d_123_1384)">
<rect x="8" y="4" width="203" height="288" rx="10" fill="white"/>
<path d="M84.6958 152.415C84.6958 150.252 85.7168 148.571 89.2603 144.547L114.245 115.959C121.031 108.211 123.614 103.167 123.614 97.521C123.614 89.0527 117.548 83.4072 108.419 83.4072C100.671 83.4072 94.9658 88.0317 93.1641 95.8394C92.3232 99.0225 90.6416 100.644 88.1792 100.644C85.2363 100.644 83.3145 98.4219 83.3145 95.1787C83.3145 84.9688 93.2241 74.2783 109.08 74.2783C123.854 74.2783 134.244 83.6475 134.244 96.8604C134.244 104.668 131.181 110.374 120.371 122.686L98.1489 148.09V148.811H131.481C134.665 148.811 136.707 150.553 136.707 153.436C136.707 156.258 134.785 158 131.481 158H91.8428C87.4585 158 84.6958 155.898 84.6958 152.415Z" fill="#211C1D"/>
<path d="M105.713 242C105.082 242 104.572 241.509 104.572 240.904C104.572 239.616 107.803 231.148 108.583 225.45C108.677 224.764 107.807 224.491 107.414 225.049C105.531 227.72 103.632 230.577 98.4675 230.645C88.8449 230.771 83.3016 221.63 86.3284 213.312C87.8124 209.233 108.226 182 111 182C113.774 182 134.188 209.233 135.672 213.312C138.698 221.63 133.155 230.771 123.532 230.645C118.368 230.577 116.469 227.72 114.586 225.049C114.193 224.491 113.323 224.764 113.417 225.45C114.197 231.148 117.428 239.616 117.428 240.904C117.428 241.509 116.918 242 116.287 242H105.713Z" fill="#211C1D"/>
</g>
<defs>
<filter id="filter0_d_123_1384" x="0" y="0" width="219" height="304" filterUnits="userSpaceOnUse" color-interpolation-filters="sRGB">
<feFlood flood-opacity="0" result="BackgroundImageFix"/>
<feColorMatrix in="SourceAlpha" type="matrix" values="0 0 0 0 0 0 0 0 0 0 0 0 0 0 0 0 0 0 127 0" result="hardAlpha"/>
<feOffset dy="4"/>
<feGaussianBlur stdDeviation="4"/>
<feComposite in2="hardAlpha" operator="out"/>
<feColorMatrix type="matrix" values="0 0 0 0 0.614771 0 0 0 0 0.70094 0 0 0 0 0.806257 0 0 0 1 0"/>
<feBlend mode="normal" in2="BackgroundImageFix" result="effect1_dropShadow_123_1384"/>
<feBlend mode="normal" in="SourceGraphic" in2="effect1_dropShadow_123_1384" result="shape"/>
</filter>
</defs>
</svg>
