<svg width="219" height="304" viewBox="0 0 219 304" fill="none" xmlns="http://www.w3.org/2000/svg">
<g filter="url(#filter0_d_123_1452)">
<rect x="8" y="4" width="203" height="288" rx="10" fill="white"/>
<path d="M81.0923 119.382C81.0923 90.4941 92.2031 74.4585 112.143 74.4585C118.569 74.4585 124.755 76.2002 129.319 79.3232C133.283 81.9058 135.686 85.209 135.686 87.9717C135.686 90.5542 133.824 92.4761 131.241 92.4761C129.56 92.4761 128.298 91.8154 126.136 89.7134C121.812 85.4492 117.308 83.5273 111.962 83.5273C98.5693 83.5273 91.4824 95.2988 91.3022 117.761H91.7827C94.5454 110.434 103.134 105.269 112.503 105.269C127.758 105.269 138.448 116.259 138.448 131.935C138.448 148.451 127.157 159.682 110.461 159.682C100.311 159.682 92.2031 155.478 87.2783 147.73C83.1343 141.124 81.0923 131.814 81.0923 119.382ZM92.8037 132.295C92.8037 143.045 100.251 150.673 110.881 150.673C121.211 150.673 128.118 143.406 128.118 132.355C128.118 121.424 121.151 114.217 110.461 114.217C100.071 114.217 92.8037 121.665 92.8037 132.295Z" fill="#211C1D"/>
<path d="M105.713 242C105.082 242 104.572 241.509 104.572 240.904C104.572 239.616 107.803 231.148 108.583 225.45C108.677 224.764 107.807 224.491 107.414 225.049C105.531 227.72 103.632 230.577 98.4675 230.645C88.8449 230.771 83.3016 221.63 86.3284 213.312C87.8124 209.233 108.226 182 111 182C113.774 182 134.188 209.233 135.672 213.312C138.698 221.63 133.155 230.771 123.532 230.645C118.368 230.577 116.469 227.72 114.586 225.049C114.193 224.491 113.323 224.764 113.417 225.45C114.197 231.148 117.428 239.616 117.428 240.904C117.428 241.509 116.918 242 116.287 242H105.713Z" fill="#211C1D"/>
</g>
<defs>
<filter id="filter0_d_123_1452" x="0" y="0" width="219" height="304" filterUnits="userSpaceOnUse" color-interpolation-filters="sRGB">
<feFlood flood-opacity="0" result="BackgroundImageFix"/>
<feColorMatrix in="SourceAlpha" type="matrix" values="0 0 0 0 0 0 0 0 0 0 0 0 0 0 0 0 0 0 127 0" result="hardAlpha"/>
<feOffset dy="4"/>
<feGaussianBlur stdDeviation="4"/>
<feComposite in2="hardAlpha" operator="out"/>
<feColorMatrix type="matrix" values="0 0 0 0 0.614771 0 0 0 0 0.70094 0 0 0 0 0.806257 0 0 0 1 0"/>
<feBlend mode="normal" in2="BackgroundImageFix" result="effect1_dropShadow_123_1452"/>
<feBlend mode="normal" in="SourceGraphic" in2="effect1_dropShadow_123_1452" result="shape"/>
</filter>
</defs>
</svg>
