<svg width="219" height="304" viewBox="0 0 219 304" fill="none" xmlns="http://www.w3.org/2000/svg">
<g filter="url(#filter0_d_123_1492)">
<rect x="8" y="4" width="203" height="288" rx="10" fill="white"/>
<path d="M91.604 154.276C91.604 152.955 92.0244 151.814 92.6851 150.493L123.015 85.8096V85.209H85.7783C82.0547 85.209 80.2529 83.2871 80.2529 80.6445C80.2529 77.9419 82.0547 76.02 85.7783 76.02H128.54C131.663 76.02 134.246 78.1821 134.246 81.7256C134.246 83.4072 133.405 86.1699 132.083 88.9927L101.454 155.117C100.312 157.52 98.8711 158.961 96.3486 158.961C93.8862 158.961 91.604 157.099 91.604 154.276Z" fill="#211C1D"/>
<path d="M105.713 242C105.082 242 104.572 241.509 104.572 240.904C104.572 239.616 107.803 231.148 108.583 225.45C108.677 224.764 107.807 224.491 107.414 225.049C105.531 227.72 103.632 230.577 98.4675 230.645C88.8449 230.771 83.3016 221.63 86.3284 213.312C87.8124 209.233 108.226 182 111 182C113.774 182 134.188 209.233 135.672 213.312C138.698 221.63 133.155 230.771 123.532 230.645C118.368 230.577 116.469 227.72 114.586 225.049C114.193 224.491 113.323 224.764 113.417 225.45C114.197 231.148 117.428 239.616 117.428 240.904C117.428 241.509 116.918 242 116.287 242H105.713Z" fill="#211C1D"/>
</g>
<defs>
<filter id="filter0_d_123_1492" x="0" y="0" width="219" height="304" filterUnits="userSpaceOnUse" color-interpolation-filters="sRGB">
<feFlood flood-opacity="0" result="BackgroundImageFix"/>
<feColorMatrix in="SourceAlpha" type="matrix" values="0 0 0 0 0 0 0 0 0 0 0 0 0 0 0 0 0 0 127 0" result="hardAlpha"/>
<feOffset dy="4"/>
<feGaussianBlur stdDeviation="4"/>
<feComposite in2="hardAlpha" operator="out"/>
<feColorMatrix type="matrix" values="0 0 0 0 0.614771 0 0 0 0 0.70094 0 0 0 0 0.806257 0 0 0 1 0"/>
<feBlend mode="normal" in2="BackgroundImageFix" result="effect1_dropShadow_123_1492"/>
<feBlend mode="normal" in="SourceGraphic" in2="effect1_dropShadow_123_1492" result="shape"/>
</filter>
</defs>
</svg>
