<svg width="219" height="304" viewBox="0 0 219 304" fill="none" xmlns="http://www.w3.org/2000/svg">
<g filter="url(#filter0_d_123_1373)">
<rect x="8" y="4" width="203" height="288" rx="10" fill="white"/>
<path d="M81.5728 158.781C78.5698 158.781 76.5879 157.039 76.5879 154.276C76.5879 153.075 76.8882 151.934 77.3687 150.493L102.053 81.4854C103.554 77.2812 105.656 75.3594 109.5 75.3594C113.344 75.3594 115.446 77.2812 116.947 81.4854L141.631 150.493C142.112 151.814 142.412 153.075 142.412 154.216C142.412 157.039 140.43 158.781 137.367 158.781C134.484 158.781 132.863 157.399 131.722 153.856L124.815 133.376H94.125L87.2183 153.856C86.0771 157.459 84.4556 158.781 81.5728 158.781ZM96.9478 124.908H121.992L109.68 88.3921H109.26L96.9478 124.908Z" fill="#211C1D"/>
<path d="M105.713 242C105.082 242 104.572 241.509 104.572 240.904C104.572 239.616 107.803 231.148 108.583 225.45C108.677 224.764 107.807 224.491 107.414 225.049C105.531 227.72 103.632 230.577 98.4675 230.645C88.8449 230.771 83.3016 221.63 86.3284 213.312C87.8124 209.233 108.226 182 111 182C113.774 182 134.188 209.233 135.672 213.312C138.698 221.63 133.155 230.771 123.532 230.645C118.368 230.577 116.469 227.72 114.586 225.049C114.193 224.491 113.323 224.764 113.417 225.45C114.197 231.148 117.428 239.616 117.428 240.904C117.428 241.509 116.918 242 116.287 242H105.713Z" fill="#211C1D"/>
</g>
<defs>
<filter id="filter0_d_123_1373" x="0" y="0" width="219" height="304" filterUnits="userSpaceOnUse" color-interpolation-filters="sRGB">
<feFlood flood-opacity="0" result="BackgroundImageFix"/>
<feColorMatrix in="SourceAlpha" type="matrix" values="0 0 0 0 0 0 0 0 0 0 0 0 0 0 0 0 0 0 127 0" result="hardAlpha"/>
<feOffset dy="4"/>
<feGaussianBlur stdDeviation="4"/>
<feComposite in2="hardAlpha" operator="out"/>
<feColorMatrix type="matrix" values="0 0 0 0 0.614771 0 0 0 0 0.70094 0 0 0 0 0.806257 0 0 0 1 0"/>
<feBlend mode="normal" in2="BackgroundImageFix" result="effect1_dropShadow_123_1373"/>
<feBlend mode="normal" in="SourceGraphic" in2="effect1_dropShadow_123_1373" result="shape"/>
</filter>
</defs>
</svg>
