<svg width="219" height="304" viewBox="0 0 219 304" fill="none" xmlns="http://www.w3.org/2000/svg">
<g filter="url(#filter0_d_123_1598)">
<rect x="8" y="4" width="203" height="288" rx="10" fill="white"/>
<path d="M79.4361 158.601C76.193 158.601 74.211 156.378 74.211 152.835V81.1851C74.211 77.6416 76.193 75.4194 79.4361 75.4194C82.6793 75.4194 84.7213 77.6416 84.7213 81.1851V152.835C84.7213 156.378 82.6793 158.601 79.4361 158.601ZM87.7362 118.602V115.599C87.7362 90.7344 98.3666 74.2783 116.925 74.2783C135.483 74.2783 146.053 90.7344 146.053 115.599V118.602C146.053 143.406 135.423 159.742 116.865 159.742C98.3666 159.742 87.7362 143.466 87.7362 118.602ZM98.2465 115.659V118.481C98.2465 138.481 105.393 150.673 116.925 150.673C128.456 150.673 135.603 138.481 135.603 118.481V115.659C135.603 95.6592 128.396 83.4072 116.865 83.4072C105.393 83.4072 98.2465 95.6592 98.2465 115.659Z" fill="#211C1D"/>
<path d="M105.713 242C105.082 242 104.572 241.509 104.572 240.904C104.572 239.616 107.803 231.148 108.583 225.45C108.677 224.764 107.807 224.491 107.414 225.049C105.531 227.72 103.632 230.577 98.4675 230.645C88.8449 230.771 83.3016 221.63 86.3284 213.312C87.8124 209.233 108.226 182 111 182C113.774 182 134.188 209.233 135.672 213.312C138.698 221.63 133.155 230.771 123.532 230.645C118.368 230.577 116.469 227.72 114.586 225.049C114.193 224.491 113.323 224.764 113.417 225.45C114.197 231.148 117.428 239.616 117.428 240.904C117.428 241.509 116.918 242 116.287 242H105.713Z" fill="#211C1D"/>
</g>
<defs>
<filter id="filter0_d_123_1598" x="0" y="0" width="219" height="304" filterUnits="userSpaceOnUse" color-interpolation-filters="sRGB">
<feFlood flood-opacity="0" result="BackgroundImageFix"/>
<feColorMatrix in="SourceAlpha" type="matrix" values="0 0 0 0 0 0 0 0 0 0 0 0 0 0 0 0 0 0 127 0" result="hardAlpha"/>
<feOffset dy="4"/>
<feGaussianBlur stdDeviation="4"/>
<feComposite in2="hardAlpha" operator="out"/>
<feColorMatrix type="matrix" values="0 0 0 0 0.614771 0 0 0 0 0.70094 0 0 0 0 0.806257 0 0 0 1 0"/>
<feBlend mode="normal" in2="BackgroundImageFix" result="effect1_dropShadow_123_1598"/>
<feBlend mode="normal" in="SourceGraphic" in2="effect1_dropShadow_123_1598" result="shape"/>
</filter>
</defs>
</svg>
