<svg width="219" height="304" viewBox="0 0 219 304" fill="none" xmlns="http://www.w3.org/2000/svg">
<g filter="url(#filter0_d_123_1432)">
<rect x="8" y="4" width="203" height="288" rx="10" fill="white"/>
<path d="M81.334 141.664C81.334 138.661 83.0757 136.619 85.7183 136.619C87.7603 136.619 89.0815 137.7 90.6431 140.763C93.9463 147.189 99.4717 150.673 106.679 150.673C117.609 150.673 125.237 142.985 125.237 131.935C125.237 121.364 117.85 113.917 107.459 113.917C102.775 113.917 98.6309 115.479 95.1475 118.602C90.7632 122.686 89.562 123.406 87.6401 123.406C84.2168 123.406 82.4751 120.704 82.7754 116.079L85.418 82.4463C85.7783 78.002 88.3608 75.8999 93.5259 75.8999H127.219C130.702 75.8999 132.744 77.6416 132.744 80.5845C132.744 83.4673 130.762 85.0889 127.219 85.0889H94.8472L92.5649 111.815H93.1655C95.8682 107.791 102.895 104.908 109.802 104.908C125.057 104.908 135.807 115.839 135.807 131.394C135.807 147.97 123.855 159.742 107.099 159.742C91.2437 159.742 81.334 150.072 81.334 141.664Z" fill="#211C1D"/>
<path d="M105.713 242C105.082 242 104.572 241.509 104.572 240.904C104.572 239.616 107.803 231.148 108.583 225.45C108.677 224.764 107.807 224.491 107.414 225.049C105.531 227.72 103.632 230.577 98.4675 230.645C88.8449 230.771 83.3016 221.63 86.3284 213.312C87.8124 209.233 108.226 182 111 182C113.774 182 134.188 209.233 135.672 213.312C138.698 221.63 133.155 230.771 123.532 230.645C118.368 230.577 116.469 227.72 114.586 225.049C114.193 224.491 113.323 224.764 113.417 225.45C114.197 231.148 117.428 239.616 117.428 240.904C117.428 241.509 116.918 242 116.287 242H105.713Z" fill="#211C1D"/>
</g>
<defs>
<filter id="filter0_d_123_1432" x="0" y="0" width="219" height="304" filterUnits="userSpaceOnUse" color-interpolation-filters="sRGB">
<feFlood flood-opacity="0" result="BackgroundImageFix"/>
<feColorMatrix in="SourceAlpha" type="matrix" values="0 0 0 0 0 0 0 0 0 0 0 0 0 0 0 0 0 0 127 0" result="hardAlpha"/>
<feOffset dy="4"/>
<feGaussianBlur stdDeviation="4"/>
<feComposite in2="hardAlpha" operator="out"/>
<feColorMatrix type="matrix" values="0 0 0 0 0.614771 0 0 0 0 0.70094 0 0 0 0 0.806257 0 0 0 1 0"/>
<feBlend mode="normal" in2="BackgroundImageFix" result="effect1_dropShadow_123_1432"/>
<feBlend mode="normal" in="SourceGraphic" in2="effect1_dropShadow_123_1432" result="shape"/>
</filter>
</defs>
</svg>
