<svg width="219" height="304" viewBox="0 0 219 304" fill="none" xmlns="http://www.w3.org/2000/svg">
<g filter="url(#filter0_d_123_1414)">
<rect x="8" y="4" width="203" height="288" rx="10" fill="white"/>
<path d="M118.39 153.135V140.943H86.7993C82.1147 140.943 78.9917 138.481 78.9917 134.517C78.9917 132.295 79.7124 130.193 81.8145 126.349C90.4028 111.154 95.8081 102.506 109.441 82.0859C112.985 76.8608 115.748 75.0591 119.892 75.0591C125.357 75.0591 128.42 78.1821 128.42 83.7676V131.754H134.666C138.029 131.754 140.011 133.436 140.011 136.379C140.011 139.262 138.089 140.943 134.666 140.943H128.42V153.135C128.42 156.619 126.618 158.601 123.375 158.601C120.192 158.601 118.39 156.619 118.39 153.135ZM89.0815 131.754H118.39V85.269H117.85C107.64 100.344 96.9492 117.521 89.0815 131.154V131.754Z" fill="#211C1D"/>
<path d="M105.713 242C105.082 242 104.572 241.509 104.572 240.904C104.572 239.616 107.803 231.148 108.583 225.45C108.677 224.764 107.807 224.491 107.414 225.049C105.531 227.72 103.632 230.577 98.4675 230.645C88.8449 230.771 83.3016 221.63 86.3284 213.312C87.8124 209.233 108.226 182 111 182C113.774 182 134.188 209.233 135.672 213.312C138.698 221.63 133.155 230.771 123.532 230.645C118.368 230.577 116.469 227.72 114.586 225.049C114.193 224.491 113.323 224.764 113.417 225.45C114.197 231.148 117.428 239.616 117.428 240.904C117.428 241.509 116.918 242 116.287 242H105.713Z" fill="#211C1D"/>
</g>
<defs>
<filter id="filter0_d_123_1414" x="0" y="0" width="219" height="304" filterUnits="userSpaceOnUse" color-interpolation-filters="sRGB">
<feFlood flood-opacity="0" result="BackgroundImageFix"/>
<feColorMatrix in="SourceAlpha" type="matrix" values="0 0 0 0 0 0 0 0 0 0 0 0 0 0 0 0 0 0 127 0" result="hardAlpha"/>
<feOffset dy="4"/>
<feGaussianBlur stdDeviation="4"/>
<feComposite in2="hardAlpha" operator="out"/>
<feColorMatrix type="matrix" values="0 0 0 0 0.614771 0 0 0 0 0.70094 0 0 0 0 0.806257 0 0 0 1 0"/>
<feBlend mode="normal" in2="BackgroundImageFix" result="effect1_dropShadow_123_1414"/>
<feBlend mode="normal" in="SourceGraphic" in2="effect1_dropShadow_123_1414" result="shape"/>
</filter>
</defs>
</svg>
