<svg width="219" height="304" viewBox="0 0 219 304" fill="none" xmlns="http://www.w3.org/2000/svg">
<g filter="url(#filter0_d_123_1398)">
<rect x="8" y="4" width="203" height="288" rx="10" fill="white"/>
<path d="M81.9331 141.184C81.9331 138.481 83.7949 136.559 86.4375 136.559C88.5396 136.559 89.8608 137.64 91.4224 140.703C94.5454 147.129 100.792 150.733 108.959 150.733C119.71 150.733 126.557 144.847 126.557 135.658C126.557 126.469 119.53 120.283 109.08 120.283H101.572C98.8096 120.283 96.7676 118.301 96.7676 115.719C96.7676 113.076 98.6895 111.214 101.572 111.214H108.659C117.428 111.214 123.794 105.269 123.794 97.0405C123.794 88.8125 117.608 83.2871 108.419 83.2871C101.272 83.2871 95.8667 86.8306 93.4644 93.0166C92.2632 96.3198 90.7617 97.5811 88.4194 97.5811C85.6567 97.5811 83.855 95.5991 83.855 92.5962C83.855 83.2871 93.8848 74.2783 108.659 74.2783C123.674 74.2783 134.364 83.2271 134.364 95.7192C134.364 104.788 127.578 113.437 119.229 114.878V115.479C129.379 116.62 137.127 125.508 137.127 135.838C137.127 149.892 125.476 159.742 108.779 159.742C93.2842 159.742 81.9331 150.373 81.9331 141.184Z" fill="#211C1D"/>
<path d="M105.713 242C105.082 242 104.572 241.509 104.572 240.904C104.572 239.616 107.803 231.148 108.583 225.45C108.677 224.764 107.807 224.491 107.414 225.049C105.531 227.72 103.632 230.577 98.4675 230.645C88.8449 230.771 83.3016 221.63 86.3284 213.312C87.8124 209.233 108.226 182 111 182C113.774 182 134.188 209.233 135.672 213.312C138.698 221.63 133.155 230.771 123.532 230.645C118.368 230.577 116.469 227.72 114.586 225.049C114.193 224.491 113.323 224.764 113.417 225.45C114.197 231.148 117.428 239.616 117.428 240.904C117.428 241.509 116.918 242 116.287 242H105.713Z" fill="#211C1D"/>
</g>
<defs>
<filter id="filter0_d_123_1398" x="0" y="0" width="219" height="304" filterUnits="userSpaceOnUse" color-interpolation-filters="sRGB">
<feFlood flood-opacity="0" result="BackgroundImageFix"/>
<feColorMatrix in="SourceAlpha" type="matrix" values="0 0 0 0 0 0 0 0 0 0 0 0 0 0 0 0 0 0 127 0" result="hardAlpha"/>
<feOffset dy="4"/>
<feGaussianBlur stdDeviation="4"/>
<feComposite in2="hardAlpha" operator="out"/>
<feColorMatrix type="matrix" values="0 0 0 0 0.614771 0 0 0 0 0.70094 0 0 0 0 0.806257 0 0 0 1 0"/>
<feBlend mode="normal" in2="BackgroundImageFix" result="effect1_dropShadow_123_1398"/>
<feBlend mode="normal" in="SourceGraphic" in2="effect1_dropShadow_123_1398" result="shape"/>
</filter>
</defs>
</svg>
