<svg width="219" height="304" viewBox="0 0 219 304" fill="none" xmlns="http://www.w3.org/2000/svg">
<g filter="url(#filter0_d_123_1650)">
<rect x="8" y="4" width="203" height="288" rx="10" fill="white"/>
<path d="M134.246 158.18C132.144 158.18 130.342 156.979 128.24 154.036L103.075 118.421L92.7451 129.112V152.835C92.7451 156.378 90.7031 158.601 87.46 158.601C84.2168 158.601 82.2349 156.378 82.2349 152.835V81.1851C82.2349 77.6416 84.2168 75.4194 87.46 75.4194C90.7031 75.4194 92.7451 77.6416 92.7451 81.1851V115.539H93.2256L127.399 79.083C129.621 76.6206 131.002 75.8398 132.744 75.8398C135.387 75.8398 137.369 77.8818 137.369 80.4043C137.369 81.9658 136.888 82.8667 134.486 85.3892L110.883 111.214L136.588 146.889C139.11 150.373 139.651 151.454 139.651 153.015C139.651 156.078 137.429 158.18 134.246 158.18Z" fill="#211C1D"/>
<path d="M105.713 242C105.082 242 104.572 241.509 104.572 240.904C104.572 239.616 107.803 231.148 108.583 225.45C108.677 224.764 107.807 224.491 107.414 225.049C105.531 227.72 103.632 230.577 98.4675 230.645C88.8449 230.771 83.3016 221.63 86.3284 213.312C87.8124 209.233 108.226 182 111 182C113.774 182 134.188 209.233 135.672 213.312C138.698 221.63 133.155 230.771 123.532 230.645C118.368 230.577 116.469 227.72 114.586 225.049C114.193 224.491 113.323 224.764 113.417 225.45C114.197 231.148 117.428 239.616 117.428 240.904C117.428 241.509 116.918 242 116.287 242H105.713Z" fill="#211C1D"/>
</g>
<defs>
<filter id="filter0_d_123_1650" x="0" y="0" width="219" height="304" filterUnits="userSpaceOnUse" color-interpolation-filters="sRGB">
<feFlood flood-opacity="0" result="BackgroundImageFix"/>
<feColorMatrix in="SourceAlpha" type="matrix" values="0 0 0 0 0 0 0 0 0 0 0 0 0 0 0 0 0 0 127 0" result="hardAlpha"/>
<feOffset dy="4"/>
<feGaussianBlur stdDeviation="4"/>
<feComposite in2="hardAlpha" operator="out"/>
<feColorMatrix type="matrix" values="0 0 0 0 0.614771 0 0 0 0 0.70094 0 0 0 0 0.806257 0 0 0 1 0"/>
<feBlend mode="normal" in2="BackgroundImageFix" result="effect1_dropShadow_123_1650"/>
<feBlend mode="normal" in="SourceGraphic" in2="effect1_dropShadow_123_1650" result="shape"/>
</filter>
</defs>
</svg>
