<svg width="219" height="304" viewBox="0 0 219 304" fill="none" xmlns="http://www.w3.org/2000/svg">
<g filter="url(#filter0_d_123_1639)">
<rect x="8" y="4" width="203" height="288" rx="10" fill="white"/>
<path d="M134.424 167.069C132.082 167.069 130.46 165.988 128.418 163.225L123.794 156.859C119.65 158.721 114.905 159.742 109.5 159.742C88.7798 159.742 76.708 145.988 76.708 123.466V111.395C76.708 88.5122 89.3203 74.2783 109.5 74.2783C129.379 74.2783 142.352 88.5122 142.352 111.395V123.466C142.352 136.319 138.568 145.568 131.962 151.514L136.466 157.7C138.088 159.982 138.688 161.123 138.688 162.625C138.688 164.907 137.067 167.069 134.424 167.069ZM87.1582 123.586C87.1582 140.343 95.7466 150.433 109.44 150.433C112.443 150.433 115.326 149.892 117.968 148.811L114.485 144.126C113.164 142.325 112.143 140.703 112.143 138.961C112.143 136.379 114.125 134.397 116.707 134.397C118.329 134.397 119.95 135.298 121.812 137.88L125.716 143.286C129.5 138.841 131.842 133.136 131.842 123.586V111.395C131.842 94.2778 122.172 83.7075 109.5 83.7075C95.7466 83.7075 87.1582 94.2778 87.1582 111.395V123.586Z" fill="#211C1D"/>
<path d="M105.713 242C105.082 242 104.572 241.509 104.572 240.904C104.572 239.616 107.803 231.148 108.583 225.45C108.677 224.764 107.807 224.491 107.414 225.049C105.531 227.72 103.632 230.577 98.4675 230.645C88.8449 230.771 83.3016 221.63 86.3284 213.312C87.8124 209.233 108.226 182 111 182C113.774 182 134.188 209.233 135.672 213.312C138.698 221.63 133.155 230.771 123.532 230.645C118.368 230.577 116.469 227.72 114.586 225.049C114.193 224.491 113.323 224.764 113.417 225.45C114.197 231.148 117.428 239.616 117.428 240.904C117.428 241.509 116.918 242 116.287 242H105.713Z" fill="#211C1D"/>
</g>
<defs>
<filter id="filter0_d_123_1639" x="0" y="0" width="219" height="304" filterUnits="userSpaceOnUse" color-interpolation-filters="sRGB">
<feFlood flood-opacity="0" result="BackgroundImageFix"/>
<feColorMatrix in="SourceAlpha" type="matrix" values="0 0 0 0 0 0 0 0 0 0 0 0 0 0 0 0 0 0 127 0" result="hardAlpha"/>
<feOffset dy="4"/>
<feGaussianBlur stdDeviation="4"/>
<feComposite in2="hardAlpha" operator="out"/>
<feColorMatrix type="matrix" values="0 0 0 0 0.614771 0 0 0 0 0.70094 0 0 0 0 0.806257 0 0 0 1 0"/>
<feBlend mode="normal" in2="BackgroundImageFix" result="effect1_dropShadow_123_1639"/>
<feBlend mode="normal" in="SourceGraphic" in2="effect1_dropShadow_123_1639" result="shape"/>
</filter>
</defs>
</svg>
